<?xml version="1.0" encoding="utf-8" standalone="no"?>
<!DOCTYPE svg PUBLIC "-//W3C//DTD SVG 1.1//EN"
  "http://www.w3.org/Graphics/SVG/1.1/DTD/svg11.dtd">
<!-- Created with matplotlib (https://matplotlib.org/) -->
<svg height="226.8pt" version="1.1" viewBox="0 0 226.8 226.8" width="226.8pt" xmlns="http://www.w3.org/2000/svg" xmlns:xlink="http://www.w3.org/1999/xlink">
 <defs>
  <style type="text/css">
*{stroke-linecap:butt;stroke-linejoin:round;}
  </style>
 </defs>
 <g id="figure_1">
  <g id="patch_1">
   <path d="M 0 226.8 
L 226.8 226.8 
L 226.8 0 
L 0 0 
z
" style="fill:#ffffff;"/>
  </g>
  <g id="axes_1">
   <g id="patch_2">
    <path d="M 34.02 197.316 
L 224.532 197.316 
L 224.532 2.268 
L 34.02 2.268 
z
" style="fill:#ffffff;"/>
   </g>
   <g id="PathCollection_1">
    <defs>
     <path d="M 0 1 
C 0.265203 1 0.51958 0.894634 0.707107 0.707107 
C 0.894634 0.51958 1 0.265203 1 0 
C 1 -0.265203 0.894634 -0.51958 0.707107 -0.707107 
C 0.51958 -0.894634 0.265203 -1 0 -1 
C -0.265203 -1 -0.51958 -0.894634 -0.707107 -0.707107 
C -0.894634 -0.51958 -1 -0.265203 -1 0 
C -1 0.265203 -0.894634 0.51958 -0.707107 0.707107 
C -0.51958 0.894634 -0.265203 1 0 1 
z
" id="mfeca7ee311" style="stroke:#000000;"/>
    </defs>
    <g clip-path="url(#p23ab05f3c8)">
     <use style="stroke:#000000;" x="151.076832" xlink:href="#mfeca7ee311" y="99.792"/>
    </g>
   </g>
   <g id="matplotlib.axis_1">
    <g id="xtick_1">
     <g id="line2d_1">
      <defs>
       <path d="M 0 0 
L 0 3.5 
" id="mf7651b78e9" style="stroke:#000000;stroke-width:0.8;"/>
      </defs>
      <g>
       <use style="stroke:#000000;stroke-width:0.8;" x="34.02" xlink:href="#mf7651b78e9" y="197.316"/>
      </g>
     </g>
     <g id="text_1">
      <!-- $\mathdefault{10^{-7}}$ -->
      <defs>
       <path d="M 8.90625 57.09375 
L 8.90625 60.203125 
Q 20.90625 60.203125 27.09375 66.59375 
Q 28.796875 66.59375 29.09375 66.1875 
Q 29.40625 65.796875 29.40625 64 
L 29.40625 7.90625 
Q 29.40625 4.90625 30.84375 4 
Q 32.296875 3.09375 38.703125 3.09375 
L 41.90625 3.09375 
L 41.90625 0 
Q 38.40625 0.296875 25.703125 0.296875 
Q 13 0.296875 9.5 0 
L 9.5 3.09375 
L 12.703125 3.09375 
Q 19 3.09375 20.5 4 
Q 22 4.90625 22 7.90625 
L 22 59.703125 
Q 16.796875 57.09375 8.90625 57.09375 
z
" id="CMUSerif-Roman-49"/>
       <path d="M 3.90625 32 
Q 3.90625 46.703125 7.59375 54.703125 
Q 12.796875 66.59375 25 66.59375 
Q 27.59375 66.59375 30.296875 65.890625 
Q 33 65.203125 36.453125 62.5 
Q 39.90625 59.796875 42 55.40625 
Q 46 46.90625 46 32 
Q 46 17.40625 42.296875 9.40625 
Q 36.90625 -2.203125 24.90625 -2.203125 
Q 20.40625 -2.203125 15.84375 0.09375 
Q 11.296875 2.40625 8.40625 7.90625 
Q 3.90625 16.203125 3.90625 32 
z
M 12.203125 33.203125 
Q 12.203125 18.09375 13.296875 12.09375 
Q 14.5 5.59375 17.84375 2.796875 
Q 21.203125 0 24.90625 0 
Q 28.90625 0 32.25 3 
Q 35.59375 6 36.59375 12.5 
Q 37.703125 18.90625 37.703125 33.203125 
Q 37.703125 47.09375 36.703125 52.703125 
Q 35.40625 59.203125 31.90625 61.796875 
Q 28.40625 64.40625 24.90625 64.40625 
Q 23.59375 64.40625 22.1875 64 
Q 20.796875 63.59375 18.796875 62.5 
Q 16.796875 61.40625 15.25 58.59375 
Q 13.703125 55.796875 13 51.59375 
Q 12.203125 46.203125 12.203125 33.203125 
z
" id="CMUSerif-Roman-48"/>
       <path d="M 1 18.59375 
L 1 24.5 
L 27.59375 24.5 
L 27.59375 18.59375 
z
" id="CMUSerif-Roman-45"/>
       <path d="M 5.59375 47 
L 8.90625 67.59375 
L 11.40625 67.59375 
Q 11.703125 66.40625 12.203125 65.84375 
Q 12.703125 65.296875 15.546875 64.84375 
Q 18.40625 64.40625 24.203125 64.40625 
L 48.5 64.40625 
Q 48.5 62.09375 47.59375 60.90625 
L 34.09375 41.90625 
Q 29.796875 35.90625 27.90625 24.796875 
Q 26.796875 17.40625 26.796875 8.40625 
L 26.796875 3.296875 
Q 26.796875 -2.203125 22.1875 -2.203125 
Q 17.59375 -2.203125 17.59375 3.296875 
Q 17.59375 22.40625 29.90625 40.90625 
Q 31.203125 42.796875 36.046875 49.59375 
Q 40.90625 56.40625 41.09375 56.703125 
L 20.40625 56.703125 
Q 11.296875 56.703125 10.59375 56.09375 
Q 9.59375 55.203125 8.09375 47 
z
" id="CMUSerif-Roman-55"/>
      </defs>
      <g transform="translate(25.92 211.256625)scale(0.1 -0.1)">
       <use transform="translate(0 0.51875)" xlink:href="#CMUSerif-Roman-49"/>
       <use transform="translate(49.999985 0.51875)" xlink:href="#CMUSerif-Roman-48"/>
       <use transform="translate(100.75411 30.684375)scale(0.7)" xlink:href="#CMUSerif-Roman-45"/>
       <use transform="translate(124.064102 30.684375)scale(0.7)" xlink:href="#CMUSerif-Roman-55"/>
      </g>
     </g>
    </g>
    <g id="xtick_2">
     <g id="line2d_2">
      <g>
       <use style="stroke:#000000;stroke-width:0.8;" x="88.452" xlink:href="#mf7651b78e9" y="197.316"/>
      </g>
     </g>
     <g id="text_2">
      <!-- $\mathdefault{10^{-5}}$ -->
      <defs>
       <path d="M 5 16.09375 
Q 5 19.09375 6.59375 20.25 
Q 8.203125 21.40625 9.90625 21.40625 
Q 12.203125 21.40625 13.546875 19.953125 
Q 14.90625 18.5 14.90625 16.5 
Q 14.90625 14.5 13.546875 13.046875 
Q 12.203125 11.59375 9.90625 11.59375 
Q 8.796875 11.59375 8.203125 11.796875 
Q 9.5 7.203125 13.546875 3.890625 
Q 17.59375 0.59375 22.90625 0.59375 
Q 29.59375 0.59375 33.59375 7.09375 
Q 36 11.296875 36 20.796875 
Q 36 29.203125 34.203125 33.40625 
Q 31.40625 39.796875 25.703125 39.796875 
Q 17.59375 39.796875 12.796875 32.796875 
Q 12.203125 31.90625 11.5 31.90625 
Q 10.5 31.90625 10.296875 32.453125 
Q 10.09375 33 10.09375 34.5 
L 10.09375 64.09375 
Q 10.09375 66.5 11.09375 66.5 
Q 11.5 66.5 12.296875 66.203125 
Q 18.59375 63.40625 25.59375 63.40625 
Q 32.796875 63.40625 39.203125 66.296875 
Q 39.703125 66.59375 40 66.59375 
Q 41 66.59375 41 65.5 
Q 41 65.09375 40.203125 63.9375 
Q 39.40625 62.796875 37.703125 61.296875 
Q 36 59.796875 33.796875 58.390625 
Q 31.59375 57 28.390625 56.046875 
Q 25.203125 55.09375 21.703125 55.09375 
Q 17.5 55.09375 13.203125 56.40625 
L 13.203125 36.90625 
Q 18.40625 42 25.90625 42 
Q 33.90625 42 39.40625 35.546875 
Q 44.90625 29.09375 44.90625 20.09375 
Q 44.90625 10.703125 38.40625 4.25 
Q 31.90625 -2.203125 23.09375 -2.203125 
Q 15.09375 -2.203125 10.046875 3.5 
Q 5 9.203125 5 16.09375 
z
" id="CMUSerif-Roman-53"/>
      </defs>
      <g transform="translate(80.352 211.256625)scale(0.1 -0.1)">
       <use transform="translate(0 0.21875)" xlink:href="#CMUSerif-Roman-49"/>
       <use transform="translate(49.999985 0.21875)" xlink:href="#CMUSerif-Roman-48"/>
       <use transform="translate(100.75411 30.384375)scale(0.7)" xlink:href="#CMUSerif-Roman-45"/>
       <use transform="translate(124.064102 30.384375)scale(0.7)" xlink:href="#CMUSerif-Roman-53"/>
      </g>
     </g>
    </g>
    <g id="xtick_3">
     <g id="line2d_3">
      <g>
       <use style="stroke:#000000;stroke-width:0.8;" x="142.884" xlink:href="#mf7651b78e9" y="197.316"/>
      </g>
     </g>
     <g id="text_3">
      <!-- $\mathdefault{10^{-3}}$ -->
      <defs>
       <path d="M 4.203125 13.5 
Q 4.203125 16.5 5.890625 17.890625 
Q 7.59375 19.296875 9.796875 19.296875 
Q 12.09375 19.296875 13.75 17.796875 
Q 15.40625 16.296875 15.40625 13.703125 
Q 15.40625 10.90625 13.453125 9.34375 
Q 11.5 7.796875 8.796875 8.203125 
Q 11.203125 4.203125 15.59375 2.390625 
Q 20 0.59375 24.09375 0.59375 
Q 28.40625 0.59375 31.90625 4.296875 
Q 35.40625 8 35.40625 17.09375 
Q 35.40625 24.796875 32.40625 29.25 
Q 29.40625 33.703125 23.5 33.703125 
L 19.09375 33.703125 
Q 17.59375 33.703125 17.140625 33.84375 
Q 16.703125 34 16.703125 34.796875 
Q 16.703125 35.796875 18.203125 36 
Q 19.703125 36 22.09375 36.296875 
Q 27.90625 36.5 31 41.5 
Q 33.796875 46.203125 33.796875 52.90625 
Q 33.796875 59 30.890625 61.546875 
Q 28 64.09375 24.203125 64.09375 
Q 20.703125 64.09375 16.84375 62.640625 
Q 13 61.203125 10.90625 57.90625 
Q 17.09375 57.90625 17.09375 52.90625 
Q 17.09375 50.703125 15.6875 49.25 
Q 14.296875 47.796875 12 47.796875 
Q 9.796875 47.796875 8.34375 49.1875 
Q 6.90625 50.59375 6.90625 53 
Q 6.90625 58.703125 12 62.640625 
Q 17.09375 66.59375 24.59375 66.59375 
Q 32 66.59375 37.5 62.6875 
Q 43 58.796875 43 52.796875 
Q 43 46.90625 39.09375 42.046875 
Q 35.203125 37.203125 29 35.203125 
Q 36.59375 33.703125 41.140625 28.546875 
Q 45.703125 23.40625 45.703125 17.09375 
Q 45.703125 9.296875 39.546875 3.546875 
Q 33.40625 -2.203125 24.40625 -2.203125 
Q 16.09375 -2.203125 10.140625 2.296875 
Q 4.203125 6.796875 4.203125 13.5 
z
" id="CMUSerif-Roman-51"/>
      </defs>
      <g transform="translate(134.784 211.256625)scale(0.1 -0.1)">
       <use transform="translate(0 0.21875)" xlink:href="#CMUSerif-Roman-49"/>
       <use transform="translate(49.999985 0.21875)" xlink:href="#CMUSerif-Roman-48"/>
       <use transform="translate(100.75411 30.384375)scale(0.7)" xlink:href="#CMUSerif-Roman-45"/>
       <use transform="translate(124.064102 30.384375)scale(0.7)" xlink:href="#CMUSerif-Roman-51"/>
      </g>
     </g>
    </g>
    <g id="xtick_4">
     <g id="line2d_4">
      <g>
       <use style="stroke:#000000;stroke-width:0.8;" x="197.316" xlink:href="#mf7651b78e9" y="197.316"/>
      </g>
     </g>
     <g id="text_4">
      <!-- $\mathdefault{10^{-1}}$ -->
      <g transform="translate(189.216 211.256625)scale(0.1 -0.1)">
       <use transform="translate(0 0.21875)" xlink:href="#CMUSerif-Roman-49"/>
       <use transform="translate(49.999985 0.21875)" xlink:href="#CMUSerif-Roman-48"/>
       <use transform="translate(100.75411 30.384375)scale(0.7)" xlink:href="#CMUSerif-Roman-45"/>
       <use transform="translate(124.064102 30.384375)scale(0.7)" xlink:href="#CMUSerif-Roman-49"/>
      </g>
     </g>
    </g>
    <g id="text_5">
     <!-- Metallicity (metal mass fraction) $Z$ [-] -->
     <defs>
      <path d="M 3.703125 0 
L 3.703125 3.09375 
Q 7.296875 3.09375 9.59375 3.796875 
Q 11.90625 4.5 12.75 5.84375 
Q 13.59375 7.203125 13.796875 8.09375 
Q 14 9 14 10.5 
L 14 60.5 
Q 14 63.40625 12.75 64.296875 
Q 11.5 65.203125 6.09375 65.203125 
L 3.703125 65.203125 
L 3.703125 68.296875 
L 20.59375 68.296875 
Q 22.40625 68.296875 22.90625 68 
Q 23.40625 67.703125 24.09375 66.09375 
L 45.796875 10.09375 
L 67.703125 66.40625 
Q 68.203125 67.796875 68.640625 68.046875 
Q 69.09375 68.296875 71 68.296875 
L 87.90625 68.296875 
L 87.90625 65.203125 
L 85.5 65.203125 
Q 80.09375 65.203125 78.84375 64.296875 
Q 77.59375 63.40625 77.59375 60.5 
L 77.59375 7.796875 
Q 77.59375 4.90625 78.84375 4 
Q 80.09375 3.09375 85.5 3.09375 
L 87.90625 3.09375 
L 87.90625 0 
Q 84.203125 0.296875 73.59375 0.296875 
Q 62.90625 0.296875 59.203125 0 
L 59.203125 3.09375 
L 61.59375 3.09375 
Q 67 3.09375 68.25 4 
Q 69.5 4.90625 69.5 7.796875 
L 69.5 65.203125 
L 69.40625 65.203125 
L 44.796875 1.90625 
Q 44.09375 0 43 0 
Q 41.796875 0 41 2.203125 
L 16.90625 64.40625 
L 16.796875 64.40625 
L 16.796875 10.5 
Q 16.796875 9 17 8.09375 
Q 17.203125 7.203125 18.046875 5.84375 
Q 18.90625 4.5 21.203125 3.796875 
Q 23.5 3.09375 27.09375 3.09375 
L 27.09375 0 
Q 16.59375 0.296875 15.390625 0.296875 
Q 14.203125 0.296875 3.703125 0 
z
" id="CMUSerif-Roman-77"/>
      <path d="M 2.796875 22 
Q 2.796875 31.40625 8.84375 38.09375 
Q 14.90625 44.796875 23.59375 44.796875 
Q 32.40625 44.796875 36.953125 39.09375 
Q 41.5 33.40625 41.5 25.203125 
Q 41.5 23.703125 41.09375 23.390625 
Q 40.703125 23.09375 39 23.09375 
L 11.09375 23.09375 
Q 11.09375 12.90625 14.09375 8.09375 
Q 18.296875 1.40625 25.40625 1.40625 
Q 26.40625 1.40625 27.546875 1.59375 
Q 28.703125 1.796875 31.09375 2.640625 
Q 33.5 3.5 35.59375 5.796875 
Q 37.703125 8.09375 38.90625 11.703125 
Q 39.203125 13.09375 40.203125 13.09375 
Q 41.5 13.09375 41.5 11.90625 
Q 41.5 11 40.546875 9.046875 
Q 39.59375 7.09375 37.796875 4.75 
Q 36 2.40625 32.5 0.65625 
Q 29 -1.09375 24.796875 -1.09375 
Q 16 -1.09375 9.390625 5.546875 
Q 2.796875 12.203125 2.796875 22 
z
M 11.203125 25.203125 
L 34.90625 25.203125 
Q 34.90625 27.296875 34.546875 29.640625 
Q 34.203125 32 33.140625 35.25 
Q 32.09375 38.5 29.640625 40.546875 
Q 27.203125 42.59375 23.59375 42.59375 
Q 22 42.59375 20.25 41.890625 
Q 18.5 41.203125 16.390625 39.546875 
Q 14.296875 37.90625 12.84375 34.15625 
Q 11.40625 30.40625 11.203125 25.203125 
z
" id="CMUSerif-Roman-101"/>
      <path d="M 1.90625 40 
L 1.90625 42.203125 
Q 6.5 42.40625 9.546875 45.65625 
Q 12.59375 48.90625 13.640625 52.90625 
Q 14.703125 56.90625 14.796875 61.5 
L 17.296875 61.5 
L 17.296875 43.09375 
L 31.59375 43.09375 
L 31.59375 40 
L 17.296875 40 
L 17.296875 12.203125 
Q 17.296875 1.40625 24 1.40625 
Q 26.90625 1.40625 28.796875 4.34375 
Q 30.703125 7.296875 30.703125 12.59375 
L 30.703125 18.09375 
L 33.203125 18.09375 
L 33.203125 12.40625 
Q 33.203125 7 30.703125 2.953125 
Q 28.203125 -1.09375 23.296875 -1.09375 
Q 21.5 -1.09375 19.703125 -0.640625 
Q 17.90625 -0.203125 15.59375 1 
Q 13.296875 2.203125 11.84375 5.140625 
Q 10.40625 8.09375 10.40625 12.40625 
L 10.40625 40 
z
" id="CMUSerif-Roman-116"/>
      <path d="M 4.203125 9.5 
Q 4.203125 18 14.203125 22.5 
Q 20.203125 25.40625 32.59375 26.09375 
L 32.59375 29.796875 
Q 32.59375 36 29.34375 39.296875 
Q 26.09375 42.59375 22 42.59375 
Q 14.703125 42.59375 11.203125 38 
Q 14.203125 37.90625 15.25 36.40625 
Q 16.296875 34.90625 16.296875 33.40625 
Q 16.296875 31.40625 15.046875 30.09375 
Q 13.796875 28.796875 11.703125 28.796875 
Q 9.703125 28.796875 8.390625 30.046875 
Q 7.09375 31.296875 7.09375 33.5 
Q 7.09375 38.40625 11.5 41.59375 
Q 15.90625 44.796875 22.203125 44.796875 
Q 30.40625 44.796875 35.90625 39.296875 
Q 37.59375 37.59375 38.4375 35.390625 
Q 39.296875 33.203125 39.390625 31.75 
Q 39.5 30.296875 39.5 27.5 
L 39.5 7.5 
Q 39.5 6.90625 39.703125 5.953125 
Q 39.90625 5 40.796875 3.75 
Q 41.703125 2.5 43.203125 2.5 
Q 46.796875 2.5 46.796875 8.90625 
L 46.796875 14.5 
L 49.296875 14.5 
L 49.296875 8.90625 
Q 49.296875 3.59375 46.5 1.5 
Q 43.703125 -0.59375 41.09375 -0.59375 
Q 37.796875 -0.59375 35.6875 1.84375 
Q 33.59375 4.296875 33.296875 7.59375 
Q 31.796875 3.796875 28.34375 1.34375 
Q 24.90625 -1.09375 20.203125 -1.09375 
Q 16.59375 -1.09375 13.1875 -0.1875 
Q 9.796875 0.703125 7 3.203125 
Q 4.203125 5.703125 4.203125 9.5 
z
M 11.90625 9.59375 
Q 11.90625 5.90625 14.546875 3.5 
Q 17.203125 1.09375 20.90625 1.09375 
Q 25.09375 1.09375 28.84375 4.34375 
Q 32.59375 7.59375 32.59375 14 
L 32.59375 24 
Q 21.5 23.59375 16.703125 19.1875 
Q 11.90625 14.796875 11.90625 9.59375 
z
" id="CMUSerif-Roman-97"/>
      <path d="M 3.296875 0 
L 3.296875 3.09375 
Q 8.59375 3.09375 9.84375 3.75 
Q 11.09375 4.40625 11.09375 7.59375 
L 11.09375 59.59375 
Q 11.09375 63.296875 9.796875 64.25 
Q 8.5 65.203125 3.296875 65.203125 
L 3.296875 68.296875 
L 17.703125 69.40625 
L 17.703125 7.59375 
Q 17.703125 4.40625 18.953125 3.75 
Q 20.203125 3.09375 25.5 3.09375 
L 25.5 0 
Q 24.296875 0 21.75 0.09375 
Q 19.203125 0.203125 17.34375 0.25 
Q 15.5 0.296875 14.40625 0.296875 
Q 13.203125 0.296875 3.296875 0 
z
" id="CMUSerif-Roman-108"/>
      <path d="M 3.296875 0 
L 3.296875 3.09375 
Q 8.59375 3.09375 9.84375 3.75 
Q 11.09375 4.40625 11.09375 7.59375 
L 11.09375 34.5 
Q 11.09375 38.203125 9.84375 39.09375 
Q 8.59375 40 3.703125 40 
L 3.703125 43.09375 
L 17.703125 44.203125 
L 17.703125 7.5 
Q 17.703125 4.5 18.75 3.796875 
Q 19.796875 3.09375 24.703125 3.09375 
L 24.703125 0 
Q 14.5 0.296875 14.296875 0.296875 
Q 12.90625 0.296875 3.296875 0 
z
M 7.5 61.59375 
Q 7.5 63.59375 9.046875 65.25 
Q 10.59375 66.90625 12.796875 66.90625 
Q 15 66.90625 16.546875 65.40625 
Q 18.09375 63.90625 18.09375 61.59375 
Q 18.09375 59.296875 16.546875 57.796875 
Q 15 56.296875 12.796875 56.296875 
Q 10.5 56.296875 9 57.890625 
Q 7.5 59.5 7.5 61.59375 
z
" id="CMUSerif-Roman-105"/>
      <path d="M 16.09375 -1.09375 
Q 3.40625 12.09375 3.40625 21.59375 
Q 3.40625 31.09375 9.65625 37.9375 
Q 15.90625 44.796875 25.09375 44.796875 
Q 31.203125 44.796875 35.796875 41.890625 
Q 40.40625 39 40.40625 34.09375 
Q 40.40625 31.90625 39.09375 30.65625 
Q 37.796875 29.40625 35.796875 29.40625 
Q 33.703125 29.40625 32.453125 30.703125 
Q 31.203125 32 31.203125 34 
Q 31.203125 34.90625 31.5 35.75 
Q 31.796875 36.59375 32.890625 37.546875 
Q 34 38.5 35.90625 38.59375 
Q 32.296875 42.296875 25.203125 42.296875 
Q 20.09375 42.296875 15.890625 37.5 
Q 11.703125 32.703125 11.703125 21.796875 
Q 11.703125 16.09375 13.09375 11.890625 
Q 14.5 7.703125 16.796875 5.546875 
Q 19.09375 3.40625 21.34375 2.40625 
Q 23.59375 1.40625 25.796875 1.40625 
Q 35.59375 1.40625 38.90625 11.90625 
Q 39.203125 12.90625 40.203125 12.90625 
Q 41.5 12.90625 41.5 11.90625 
Q 41.5 11.40625 41.09375 10.15625 
Q 40.703125 8.90625 39.5 6.90625 
Q 38.296875 4.90625 36.546875 3.15625 
Q 34.796875 1.40625 31.75 0.15625 
Q 28.703125 -1.09375 24.90625 -1.09375 
Q 16.09375 -1.09375 3.40625 12.09375 
z
" id="CMUSerif-Roman-99"/>
      <path d="M 1.90625 -12.40625 
Q 1.90625 -10.296875 3.15625 -9.1875 
Q 4.40625 -8.09375 6.09375 -8.09375 
Q 7.90625 -8.09375 9.09375 -9.25 
Q 10.296875 -10.40625 10.296875 -12.296875 
Q 10.296875 -16 6.40625 -16.5 
Q 8.296875 -18.296875 11.09375 -18.296875 
Q 14.09375 -18.296875 16.5 -16.09375 
Q 18.90625 -13.90625 19.953125 -11.796875 
Q 21 -9.703125 22.5 -5.90625 
Q 23.90625 -2.90625 25 0 
L 10 36.5 
Q 9 38.90625 7.5 39.453125 
Q 6 40 1.90625 40 
L 1.90625 43.09375 
Q 6.40625 42.796875 11.59375 42.796875 
Q 14.703125 42.796875 22.5 43.09375 
L 22.5 40 
Q 16.90625 40 16.90625 37.40625 
Q 16.90625 37.09375 17.5 35.59375 
L 28.59375 8.703125 
L 38.703125 33.296875 
Q 39.296875 34.703125 39.296875 35.703125 
Q 39.296875 39.796875 34.59375 40 
L 34.59375 43.09375 
Q 41.203125 42.796875 43.296875 42.796875 
Q 47.40625 42.796875 50.796875 43.09375 
L 50.796875 40 
Q 44.09375 40 41.5 33.59375 
L 23.90625 -9.09375 
Q 19.09375 -20.5 11.09375 -20.5 
Q 7.296875 -20.5 4.59375 -18.140625 
Q 1.90625 -15.796875 1.90625 -12.40625 
z
" id="CMUSerif-Roman-121"/>
      <path id="CMUSerif-Roman-32"/>
      <path d="M 9.90625 25 
Q 9.90625 41.90625 16.203125 55.5 
Q 18.90625 61.203125 22.65625 66 
Q 26.40625 70.796875 28.90625 72.890625 
Q 31.40625 75 32.09375 75 
Q 33.09375 75 33.09375 74 
Q 33.09375 73.5 31.796875 72.296875 
Q 15.703125 55.90625 15.703125 25 
Q 15.703125 -6 31.40625 -21.796875 
Q 33.09375 -23.5 33.09375 -24 
Q 33.09375 -25 32.09375 -25 
Q 31.40625 -25 29 -23 
Q 26.59375 -21 22.890625 -16.390625 
Q 19.203125 -11.796875 16.5 -6.203125 
Q 9.90625 7.40625 9.90625 25 
z
" id="CMUSerif-Roman-40"/>
      <path d="M 3.203125 0 
L 3.203125 3.09375 
Q 8.5 3.09375 9.75 3.75 
Q 11 4.40625 11 7.59375 
L 11 34.40625 
Q 11 38.09375 9.703125 39.046875 
Q 8.40625 40 3.203125 40 
L 3.203125 43.09375 
L 17.296875 44.203125 
L 17.296875 33.703125 
Q 22 44.203125 32.09375 44.203125 
Q 43.796875 44.203125 45.40625 34.40625 
Q 47.09375 38.203125 50.6875 41.203125 
Q 54.296875 44.203125 59.90625 44.203125 
Q 67.40625 44.203125 70.40625 40.5 
Q 72.59375 38 73.046875 35.203125 
Q 73.5 32.40625 73.5 25.203125 
L 73.5 6.09375 
Q 73.59375 4 75.1875 3.546875 
Q 76.796875 3.09375 81.296875 3.09375 
L 81.296875 0 
Q 71.09375 0.296875 70.09375 0.296875 
Q 69.296875 0.296875 58.796875 0 
L 58.796875 3.09375 
Q 64.09375 3.09375 65.34375 3.75 
Q 66.59375 4.40625 66.59375 7.59375 
L 66.59375 30.90625 
Q 66.59375 36 65.046875 39 
Q 63.5 42 59.203125 42 
Q 54 42 49.84375 37.640625 
Q 45.703125 33.296875 45.703125 26 
L 45.703125 7.59375 
Q 45.703125 4.40625 46.953125 3.75 
Q 48.203125 3.09375 53.5 3.09375 
L 53.5 0 
Q 43.296875 0.296875 42.296875 0.296875 
Q 41.5 0.296875 31 0 
L 31 3.09375 
Q 36.296875 3.09375 37.546875 3.75 
Q 38.796875 4.40625 38.796875 7.59375 
L 38.796875 30.90625 
Q 38.796875 36 37.25 39 
Q 35.703125 42 31.40625 42 
Q 26.203125 42 22.046875 37.640625 
Q 17.90625 33.296875 17.90625 26 
L 17.90625 7.59375 
Q 17.90625 4.40625 19.15625 3.75 
Q 20.40625 3.09375 25.703125 3.09375 
L 25.703125 0 
Q 15.5 0.296875 14.5 0.296875 
Q 13.703125 0.296875 3.203125 0 
z
" id="CMUSerif-Roman-109"/>
      <path d="M 3.296875 1.296875 
L 3.296875 14.5 
Q 3.296875 15.59375 3.34375 16 
Q 3.40625 16.40625 3.703125 16.703125 
Q 4 17 4.59375 17 
Q 5.296875 17 5.546875 16.703125 
Q 5.796875 16.40625 6 15.296875 
Q 7.5 8.40625 10.75 4.75 
Q 14 1.09375 19.90625 1.09375 
Q 25.5 1.09375 28.34375 3.59375 
Q 31.203125 6.09375 31.203125 10.203125 
Q 31.203125 17.5 20.796875 19.40625 
Q 14.796875 20.59375 12.296875 21.390625 
Q 9.796875 22.203125 7.59375 24 
Q 3.296875 27.5 3.296875 32.5 
Q 3.296875 37.5 7.09375 41.140625 
Q 10.90625 44.796875 19.296875 44.796875 
Q 24.90625 44.796875 28.703125 42 
Q 29.796875 42.90625 30.40625 43.59375 
Q 31.703125 44.796875 32.40625 44.796875 
Q 33.203125 44.796875 33.34375 44.296875 
Q 33.5 43.796875 33.5 42.40625 
L 33.5 32.296875 
Q 33.5 31.203125 33.453125 30.796875 
Q 33.40625 30.40625 33.09375 30.15625 
Q 32.796875 29.90625 32.203125 29.90625 
Q 31.09375 29.90625 31 30.796875 
Q 30.203125 42.90625 19.296875 42.90625 
Q 13.40625 42.90625 10.75 40.65625 
Q 8.09375 38.40625 8.09375 35.296875 
Q 8.09375 33.59375 8.890625 32.296875 
Q 9.703125 31 10.75 30.25 
Q 11.796875 29.5 13.75 28.796875 
Q 15.703125 28.09375 16.890625 27.84375 
Q 18.09375 27.59375 20.40625 27.09375 
Q 28.40625 25.59375 31.796875 22.296875 
Q 36 18.09375 36 12.796875 
Q 36 6.90625 32 2.90625 
Q 28 -1.09375 19.90625 -1.09375 
Q 13.40625 -1.09375 8.90625 3.203125 
Q 8.296875 2.59375 7.84375 2.09375 
Q 7.40625 1.59375 7.25 1.390625 
Q 7.09375 1.203125 7.046875 1.09375 
Q 7 1 6.90625 0.90625 
Q 4.90625 -1.09375 4.40625 -1.09375 
Q 3.59375 -1.09375 3.4375 -0.59375 
Q 3.296875 -0.09375 3.296875 1.296875 
z
" id="CMUSerif-Roman-115"/>
      <path d="M 3.296875 40 
L 3.296875 43.09375 
L 11.203125 43.09375 
L 11.203125 54.59375 
Q 11.203125 62 16 66.25 
Q 20.796875 70.5 26.703125 70.5 
Q 30.59375 70.5 33.140625 68.390625 
Q 35.703125 66.296875 35.703125 63.5 
Q 35.703125 61.59375 34.546875 60.34375 
Q 33.40625 59.09375 31.296875 59.09375 
Q 29.296875 59.09375 28.140625 60.34375 
Q 27 61.59375 27 63.40625 
Q 27 66.59375 30 67.59375 
Q 28.5 68.296875 26.703125 68.296875 
Q 23.09375 68.296875 20.296875 64.59375 
Q 17.5 60.90625 17.5 54.703125 
L 17.5 43.09375 
L 29.203125 43.09375 
L 29.203125 40 
L 17.796875 40 
L 17.796875 7.796875 
Q 17.796875 4.90625 19 4 
Q 20.203125 3.09375 25.40625 3.09375 
L 27.5 3.09375 
L 27.5 0 
Q 23.5 0.296875 14.796875 0.296875 
Q 13.59375 0.296875 11.6875 0.25 
Q 9.796875 0.203125 7.296875 0.09375 
Q 4.796875 0 3.40625 0 
L 3.40625 3.09375 
Q 8.703125 3.09375 9.953125 3.75 
Q 11.203125 4.40625 11.203125 7.59375 
L 11.203125 40 
z
" id="CMUSerif-Roman-102"/>
      <path d="M 2.796875 0 
L 2.796875 3.09375 
Q 8.09375 3.09375 9.34375 3.75 
Q 10.59375 4.40625 10.59375 7.59375 
L 10.59375 34.40625 
Q 10.59375 38.09375 9.296875 39.046875 
Q 8 40 2.796875 40 
L 2.796875 43.09375 
L 16.703125 44.203125 
L 16.703125 33.203125 
Q 18.09375 37.5 21.09375 40.84375 
Q 24.09375 44.203125 29 44.203125 
Q 32.203125 44.203125 34.296875 42.390625 
Q 36.40625 40.59375 36.40625 38.09375 
Q 36.40625 35.90625 35.046875 34.796875 
Q 33.703125 33.703125 32.09375 33.703125 
Q 30.296875 33.703125 29.046875 34.84375 
Q 27.796875 36 27.796875 38 
Q 27.796875 39.203125 28.34375 40.140625 
Q 28.90625 41.09375 29.34375 41.4375 
Q 29.796875 41.796875 30.09375 41.90625 
Q 29.90625 42 29 42 
Q 23.5 42 20.34375 36.5 
Q 17.203125 31 17.203125 23.203125 
L 17.203125 7.796875 
Q 17.203125 4.90625 18.390625 4 
Q 19.59375 3.09375 24.796875 3.09375 
L 26.90625 3.09375 
L 26.90625 0 
Q 22.90625 0.296875 14.203125 0.296875 
Q 13 0.296875 11.09375 0.25 
Q 9.203125 0.203125 6.703125 0.09375 
Q 4.203125 0 2.796875 0 
z
" id="CMUSerif-Roman-114"/>
      <path d="M 16 -1.09375 
Q 2.796875 11.90625 2.796875 21.40625 
Q 2.796875 30.90625 9.25 37.84375 
Q 15.703125 44.796875 25 44.796875 
Q 34.09375 44.796875 40.59375 37.890625 
Q 47.09375 31 47.09375 21.40625 
Q 47.09375 12 40.546875 5.453125 
Q 34 -1.09375 24.90625 -1.09375 
Q 16 -1.09375 2.796875 11.90625 
z
M 11.09375 22.203125 
Q 11.09375 12.5 13.59375 8.09375 
Q 17.5 1.40625 25 1.40625 
Q 28.703125 1.40625 31.796875 3.40625 
Q 34.90625 5.40625 36.59375 8.796875 
Q 38.796875 13.203125 38.796875 22.203125 
Q 38.796875 31.796875 36.203125 36.09375 
Q 32.296875 42.59375 24.90625 42.59375 
Q 21.703125 42.59375 18.546875 40.890625 
Q 15.40625 39.203125 13.5 35.90625 
Q 11.09375 31.5 11.09375 22.203125 
z
" id="CMUSerif-Roman-111"/>
      <path d="M 3.203125 0 
L 3.203125 3.09375 
Q 8.5 3.09375 9.75 3.75 
Q 11 4.40625 11 7.59375 
L 11 34.40625 
Q 11 38.09375 9.703125 39.046875 
Q 8.40625 40 3.203125 40 
L 3.203125 43.09375 
L 17.296875 44.203125 
L 17.296875 33.703125 
Q 22 44.203125 32.09375 44.203125 
Q 39.59375 44.203125 42.59375 40.5 
Q 44.796875 38 45.25 35.203125 
Q 45.703125 32.40625 45.703125 25.203125 
L 45.703125 6.09375 
Q 45.796875 4 47.390625 3.546875 
Q 49 3.09375 53.5 3.09375 
L 53.5 0 
Q 43.296875 0.296875 42.296875 0.296875 
Q 41.5 0.296875 31 0 
L 31 3.09375 
Q 36.296875 3.09375 37.546875 3.75 
Q 38.796875 4.40625 38.796875 7.59375 
L 38.796875 30.90625 
Q 38.796875 36 37.25 39 
Q 35.703125 42 31.40625 42 
Q 26.203125 42 22.046875 37.640625 
Q 17.90625 33.296875 17.90625 26 
L 17.90625 7.59375 
Q 17.90625 4.40625 19.15625 3.75 
Q 20.40625 3.09375 25.703125 3.09375 
L 25.703125 0 
Q 15.5 0.296875 14.5 0.296875 
Q 13.703125 0.296875 3.203125 0 
z
" id="CMUSerif-Roman-110"/>
      <path d="M 5.703125 -24 
Q 5.703125 -23.5 7 -22.296875 
Q 23.09375 -5.90625 23.09375 25 
Q 23.09375 56 7.59375 71.703125 
Q 5.703125 73.5 5.703125 74 
Q 5.703125 75 6.703125 75 
Q 7.40625 75 9.796875 73 
Q 12.203125 71 15.890625 66.390625 
Q 19.59375 61.796875 22.296875 56.203125 
Q 28.90625 42.59375 28.90625 25 
Q 28.90625 8.09375 22.59375 -5.5 
Q 19.90625 -11.203125 16.15625 -16 
Q 12.40625 -20.796875 9.90625 -22.890625 
Q 7.40625 -25 6.703125 -25 
Q 5.703125 -25 5.703125 -24 
z
" id="CMUSerif-Roman-41"/>
      <path d="M 5.8125 0.78125 
Q 5.8125 2.25 6.5 3.078125 
L 61.53125 64.796875 
L 46.78125 64.796875 
Q 39.453125 64.796875 34.640625 63.0625 
Q 29.828125 61.328125 26.671875 57.296875 
Q 23.53125 53.265625 21.390625 46.296875 
Q 21.1875 45.40625 20.40625 45.40625 
L 19.484375 45.40625 
Q 18.5 45.40625 18.5 46.6875 
L 24.8125 67.390625 
Q 25 68.3125 25.78125 68.3125 
L 71.390625 68.3125 
Q 72.21875 68.3125 72.21875 67.484375 
Q 72.21875 66.015625 71.578125 65.375 
L 16.796875 3.8125 
L 31.984375 3.8125 
Q 40.828125 3.8125 45.875 5.984375 
Q 50.921875 8.15625 53.875 12.84375 
Q 56.84375 17.53125 59.625 26.21875 
Q 59.71875 26.5625 59.984375 26.828125 
Q 60.25 27.09375 60.59375 27.09375 
L 61.53125 27.09375 
Q 62.5 27.09375 62.5 25.78125 
L 54.59375 0.875 
Q 54.15625 0 53.609375 0 
L 6.6875 0 
Q 5.8125 0 5.8125 0.78125 
z
" id="Cmmi10-90"/>
      <path d="M 10.40625 -25 
L 10.40625 75 
L 25.5 75 
L 25.5 72.703125 
L 17.09375 72.703125 
L 17.09375 -22.703125 
L 25.5 -22.703125 
L 25.5 -25 
z
" id="CMUSerif-Roman-91"/>
      <path d="M 2.09375 -22.703125 
L 10.5 -22.703125 
L 10.5 72.703125 
L 2.09375 72.703125 
L 2.09375 75 
L 17.203125 75 
L 17.203125 -25 
L 2.09375 -25 
z
" id="CMUSerif-Roman-93"/>
     </defs>
     <g transform="translate(45.976 222.69725)scale(0.1 -0.1)">
      <use xlink:href="#CMUSerif-Roman-77"/>
      <use transform="translate(91.599991 0)" xlink:href="#CMUSerif-Roman-101"/>
      <use transform="translate(135.999985 0)" xlink:href="#CMUSerif-Roman-116"/>
      <use transform="translate(174.799973 0)" xlink:href="#CMUSerif-Roman-97"/>
      <use transform="translate(224.799957 0)" xlink:href="#CMUSerif-Roman-108"/>
      <use transform="translate(252.499954 0)" xlink:href="#CMUSerif-Roman-108"/>
      <use transform="translate(280.199951 0)" xlink:href="#CMUSerif-Roman-105"/>
      <use transform="translate(307.899948 0)" xlink:href="#CMUSerif-Roman-99"/>
      <use transform="translate(352.299942 0)" xlink:href="#CMUSerif-Roman-105"/>
      <use transform="translate(379.999939 0)" xlink:href="#CMUSerif-Roman-116"/>
      <use transform="translate(418.799927 0)" xlink:href="#CMUSerif-Roman-121"/>
      <use transform="translate(471.499924 0)" xlink:href="#CMUSerif-Roman-32"/>
      <use transform="translate(504.799911 0)" xlink:href="#CMUSerif-Roman-40"/>
      <use transform="translate(543.599899 0)" xlink:href="#CMUSerif-Roman-109"/>
      <use transform="translate(626.899887 0)" xlink:href="#CMUSerif-Roman-101"/>
      <use transform="translate(671.299881 0)" xlink:href="#CMUSerif-Roman-116"/>
      <use transform="translate(710.099869 0)" xlink:href="#CMUSerif-Roman-97"/>
      <use transform="translate(760.099854 0)" xlink:href="#CMUSerif-Roman-108"/>
      <use transform="translate(787.79985 0)" xlink:href="#CMUSerif-Roman-32"/>
      <use transform="translate(821.099838 0)" xlink:href="#CMUSerif-Roman-109"/>
      <use transform="translate(904.399826 0)" xlink:href="#CMUSerif-Roman-97"/>
      <use transform="translate(954.399811 0)" xlink:href="#CMUSerif-Roman-115"/>
      <use transform="translate(993.799805 0)" xlink:href="#CMUSerif-Roman-115"/>
      <use transform="translate(1033.199799 0)" xlink:href="#CMUSerif-Roman-32"/>
      <use transform="translate(1066.499786 0)" xlink:href="#CMUSerif-Roman-102"/>
      <use transform="translate(1096.999771 0)" xlink:href="#CMUSerif-Roman-114"/>
      <use transform="translate(1136.099762 0)" xlink:href="#CMUSerif-Roman-97"/>
      <use transform="translate(1186.099747 0)" xlink:href="#CMUSerif-Roman-99"/>
      <use transform="translate(1230.499741 0)" xlink:href="#CMUSerif-Roman-116"/>
      <use transform="translate(1269.299728 0)" xlink:href="#CMUSerif-Roman-105"/>
      <use transform="translate(1296.999725 0)" xlink:href="#CMUSerif-Roman-111"/>
      <use transform="translate(1346.99971 0)" xlink:href="#CMUSerif-Roman-110"/>
      <use transform="translate(1402.499695 0)" xlink:href="#CMUSerif-Roman-41"/>
      <use transform="translate(1441.299683 0)" xlink:href="#CMUSerif-Roman-32"/>
      <use transform="translate(1474.59967 0)" xlink:href="#Cmmi10-90"/>
      <use transform="translate(1542.812561 0)" xlink:href="#CMUSerif-Roman-32"/>
      <use transform="translate(1576.112549 0)" xlink:href="#CMUSerif-Roman-91"/>
      <use transform="translate(1603.912537 0)" xlink:href="#CMUSerif-Roman-45"/>
      <use transform="translate(1637.212524 0)" xlink:href="#CMUSerif-Roman-93"/>
     </g>
    </g>
   </g>
   <g id="matplotlib.axis_2">
    <g id="ytick_1">
     <g id="line2d_5">
      <defs>
       <path d="M 0 0 
L -3.5 0 
" id="m7bcf80c517" style="stroke:#000000;stroke-width:0.8;"/>
      </defs>
      <g>
       <use style="stroke:#000000;stroke-width:0.8;" x="34.02" xlink:href="#m7bcf80c517" y="172.059569"/>
      </g>
     </g>
     <g id="text_6">
      <!-- $\mathdefault{10^{-3}}$ -->
      <g transform="translate(10.82 175.529881)scale(0.1 -0.1)">
       <use transform="translate(0 0.21875)" xlink:href="#CMUSerif-Roman-49"/>
       <use transform="translate(49.999985 0.21875)" xlink:href="#CMUSerif-Roman-48"/>
       <use transform="translate(100.75411 30.384375)scale(0.7)" xlink:href="#CMUSerif-Roman-45"/>
       <use transform="translate(124.064102 30.384375)scale(0.7)" xlink:href="#CMUSerif-Roman-51"/>
      </g>
     </g>
    </g>
    <g id="ytick_2">
     <g id="line2d_6">
      <g>
       <use style="stroke:#000000;stroke-width:0.8;" x="34.02" xlink:href="#m7bcf80c517" y="135.925784"/>
      </g>
     </g>
     <g id="text_7">
      <!-- $\mathdefault{10^{-2}}$ -->
      <defs>
       <path d="M 5 0 
Q 5 1.796875 5.140625 2.34375 
Q 5.296875 2.90625 6.09375 3.703125 
L 25.296875 25.09375 
Q 35.796875 36.90625 35.796875 47.203125 
Q 35.796875 53.90625 32.296875 58.703125 
Q 28.796875 63.5 22.40625 63.5 
Q 18 63.5 14.296875 60.796875 
Q 10.59375 58.09375 8.90625 53.296875 
Q 9.203125 53.40625 10.203125 53.40625 
Q 12.703125 53.40625 14.09375 51.84375 
Q 15.5 50.296875 15.5 48.203125 
Q 15.5 45.5 13.75 44.203125 
Q 12 42.90625 10.296875 42.90625 
Q 9.59375 42.90625 8.6875 43.046875 
Q 7.796875 43.203125 6.390625 44.59375 
Q 5 46 5 48.5 
Q 5 55.5 10.296875 61.046875 
Q 15.59375 66.59375 23.703125 66.59375 
Q 32.90625 66.59375 38.90625 61.140625 
Q 44.90625 55.703125 44.90625 47.203125 
Q 44.90625 44.203125 44 41.5 
Q 43.09375 38.796875 41.890625 36.6875 
Q 40.703125 34.59375 37.5 31.25 
Q 34.296875 27.90625 31.6875 25.5 
Q 29.09375 23.09375 23.296875 18 
L 12.703125 7.703125 
L 30.703125 7.703125 
Q 39.5 7.703125 40.203125 8.5 
Q 41.203125 9.90625 42.40625 17.40625 
L 44.90625 17.40625 
L 42.09375 0 
z
" id="CMUSerif-Roman-50"/>
      </defs>
      <g transform="translate(10.82 139.396097)scale(0.1 -0.1)">
       <use transform="translate(0 0.21875)" xlink:href="#CMUSerif-Roman-49"/>
       <use transform="translate(49.999985 0.21875)" xlink:href="#CMUSerif-Roman-48"/>
       <use transform="translate(100.75411 30.384375)scale(0.7)" xlink:href="#CMUSerif-Roman-45"/>
       <use transform="translate(124.064102 30.384375)scale(0.7)" xlink:href="#CMUSerif-Roman-50"/>
      </g>
     </g>
    </g>
    <g id="ytick_3">
     <g id="line2d_7">
      <g>
       <use style="stroke:#000000;stroke-width:0.8;" x="34.02" xlink:href="#m7bcf80c517" y="99.792"/>
      </g>
     </g>
     <g id="text_8">
      <!-- $\mathdefault{10^{-1}}$ -->
      <g transform="translate(10.82 103.262312)scale(0.1 -0.1)">
       <use transform="translate(0 0.21875)" xlink:href="#CMUSerif-Roman-49"/>
       <use transform="translate(49.999985 0.21875)" xlink:href="#CMUSerif-Roman-48"/>
       <use transform="translate(100.75411 30.384375)scale(0.7)" xlink:href="#CMUSerif-Roman-45"/>
       <use transform="translate(124.064102 30.384375)scale(0.7)" xlink:href="#CMUSerif-Roman-49"/>
      </g>
     </g>
    </g>
    <g id="ytick_4">
     <g id="line2d_8">
      <g>
       <use style="stroke:#000000;stroke-width:0.8;" x="34.02" xlink:href="#m7bcf80c517" y="63.658216"/>
      </g>
     </g>
     <g id="text_9">
      <!-- $\mathdefault{10^{0}}$ -->
      <g transform="translate(13.22 67.128528)scale(0.1 -0.1)">
       <use transform="translate(0 0.21875)" xlink:href="#CMUSerif-Roman-49"/>
       <use transform="translate(49.999985 0.21875)" xlink:href="#CMUSerif-Roman-48"/>
       <use transform="translate(100.75411 30.384375)scale(0.7)" xlink:href="#CMUSerif-Roman-48"/>
      </g>
     </g>
    </g>
    <g id="ytick_5">
     <g id="line2d_9">
      <g>
       <use style="stroke:#000000;stroke-width:0.8;" x="34.02" xlink:href="#m7bcf80c517" y="27.524431"/>
      </g>
     </g>
     <g id="text_10">
      <!-- $\mathdefault{10^{1}}$ -->
      <g transform="translate(13.22 30.994744)scale(0.1 -0.1)">
       <use transform="translate(0 0.21875)" xlink:href="#CMUSerif-Roman-49"/>
       <use transform="translate(49.999985 0.21875)" xlink:href="#CMUSerif-Roman-48"/>
       <use transform="translate(100.75411 30.384375)scale(0.7)" xlink:href="#CMUSerif-Roman-49"/>
      </g>
     </g>
    </g>
    <g id="ytick_6">
     <g id="line2d_10">
      <defs>
       <path d="M 0 0 
L -2 0 
" id="mb9ef9ffb1f" style="stroke:#000000;stroke-width:0.6;"/>
      </defs>
      <g>
       <use style="stroke:#000000;stroke-width:0.6;" x="34.02" xlink:href="#mb9ef9ffb1f" y="197.316"/>
      </g>
     </g>
    </g>
    <g id="ytick_7">
     <g id="line2d_11">
      <g>
       <use style="stroke:#000000;stroke-width:0.6;" x="34.02" xlink:href="#mb9ef9ffb1f" y="190.953156"/>
      </g>
     </g>
    </g>
    <g id="ytick_8">
     <g id="line2d_12">
      <g>
       <use style="stroke:#000000;stroke-width:0.6;" x="34.02" xlink:href="#mb9ef9ffb1f" y="186.438647"/>
      </g>
     </g>
    </g>
    <g id="ytick_9">
     <g id="line2d_13">
      <g>
       <use style="stroke:#000000;stroke-width:0.6;" x="34.02" xlink:href="#mb9ef9ffb1f" y="182.936922"/>
      </g>
     </g>
    </g>
    <g id="ytick_10">
     <g id="line2d_14">
      <g>
       <use style="stroke:#000000;stroke-width:0.6;" x="34.02" xlink:href="#mb9ef9ffb1f" y="180.075803"/>
      </g>
     </g>
    </g>
    <g id="ytick_11">
     <g id="line2d_15">
      <g>
       <use style="stroke:#000000;stroke-width:0.6;" x="34.02" xlink:href="#mb9ef9ffb1f" y="177.656763"/>
      </g>
     </g>
    </g>
    <g id="ytick_12">
     <g id="line2d_16">
      <g>
       <use style="stroke:#000000;stroke-width:0.6;" x="34.02" xlink:href="#mb9ef9ffb1f" y="175.561294"/>
      </g>
     </g>
    </g>
    <g id="ytick_13">
     <g id="line2d_17">
      <g>
       <use style="stroke:#000000;stroke-width:0.6;" x="34.02" xlink:href="#mb9ef9ffb1f" y="173.71296"/>
      </g>
     </g>
    </g>
    <g id="ytick_14">
     <g id="line2d_18">
      <g>
       <use style="stroke:#000000;stroke-width:0.6;" x="34.02" xlink:href="#mb9ef9ffb1f" y="161.182216"/>
      </g>
     </g>
    </g>
    <g id="ytick_15">
     <g id="line2d_19">
      <g>
       <use style="stroke:#000000;stroke-width:0.6;" x="34.02" xlink:href="#mb9ef9ffb1f" y="154.819372"/>
      </g>
     </g>
    </g>
    <g id="ytick_16">
     <g id="line2d_20">
      <g>
       <use style="stroke:#000000;stroke-width:0.6;" x="34.02" xlink:href="#mb9ef9ffb1f" y="150.304863"/>
      </g>
     </g>
    </g>
    <g id="ytick_17">
     <g id="line2d_21">
      <g>
       <use style="stroke:#000000;stroke-width:0.6;" x="34.02" xlink:href="#mb9ef9ffb1f" y="146.803137"/>
      </g>
     </g>
    </g>
    <g id="ytick_18">
     <g id="line2d_22">
      <g>
       <use style="stroke:#000000;stroke-width:0.6;" x="34.02" xlink:href="#mb9ef9ffb1f" y="143.942019"/>
      </g>
     </g>
    </g>
    <g id="ytick_19">
     <g id="line2d_23">
      <g>
       <use style="stroke:#000000;stroke-width:0.6;" x="34.02" xlink:href="#mb9ef9ffb1f" y="141.522978"/>
      </g>
     </g>
    </g>
    <g id="ytick_20">
     <g id="line2d_24">
      <g>
       <use style="stroke:#000000;stroke-width:0.6;" x="34.02" xlink:href="#mb9ef9ffb1f" y="139.42751"/>
      </g>
     </g>
    </g>
    <g id="ytick_21">
     <g id="line2d_25">
      <g>
       <use style="stroke:#000000;stroke-width:0.6;" x="34.02" xlink:href="#mb9ef9ffb1f" y="137.579176"/>
      </g>
     </g>
    </g>
    <g id="ytick_22">
     <g id="line2d_26">
      <g>
       <use style="stroke:#000000;stroke-width:0.6;" x="34.02" xlink:href="#mb9ef9ffb1f" y="125.048431"/>
      </g>
     </g>
    </g>
    <g id="ytick_23">
     <g id="line2d_27">
      <g>
       <use style="stroke:#000000;stroke-width:0.6;" x="34.02" xlink:href="#mb9ef9ffb1f" y="118.685588"/>
      </g>
     </g>
    </g>
    <g id="ytick_24">
     <g id="line2d_28">
      <g>
       <use style="stroke:#000000;stroke-width:0.6;" x="34.02" xlink:href="#mb9ef9ffb1f" y="114.171078"/>
      </g>
     </g>
    </g>
    <g id="ytick_25">
     <g id="line2d_29">
      <g>
       <use style="stroke:#000000;stroke-width:0.6;" x="34.02" xlink:href="#mb9ef9ffb1f" y="110.669353"/>
      </g>
     </g>
    </g>
    <g id="ytick_26">
     <g id="line2d_30">
      <g>
       <use style="stroke:#000000;stroke-width:0.6;" x="34.02" xlink:href="#mb9ef9ffb1f" y="107.808235"/>
      </g>
     </g>
    </g>
    <g id="ytick_27">
     <g id="line2d_31">
      <g>
       <use style="stroke:#000000;stroke-width:0.6;" x="34.02" xlink:href="#mb9ef9ffb1f" y="105.389194"/>
      </g>
     </g>
    </g>
    <g id="ytick_28">
     <g id="line2d_32">
      <g>
       <use style="stroke:#000000;stroke-width:0.6;" x="34.02" xlink:href="#mb9ef9ffb1f" y="103.293726"/>
      </g>
     </g>
    </g>
    <g id="ytick_29">
     <g id="line2d_33">
      <g>
       <use style="stroke:#000000;stroke-width:0.6;" x="34.02" xlink:href="#mb9ef9ffb1f" y="101.445391"/>
      </g>
     </g>
    </g>
    <g id="ytick_30">
     <g id="line2d_34">
      <g>
       <use style="stroke:#000000;stroke-width:0.6;" x="34.02" xlink:href="#mb9ef9ffb1f" y="88.914647"/>
      </g>
     </g>
    </g>
    <g id="ytick_31">
     <g id="line2d_35">
      <g>
       <use style="stroke:#000000;stroke-width:0.6;" x="34.02" xlink:href="#mb9ef9ffb1f" y="82.551803"/>
      </g>
     </g>
    </g>
    <g id="ytick_32">
     <g id="line2d_36">
      <g>
       <use style="stroke:#000000;stroke-width:0.6;" x="34.02" xlink:href="#mb9ef9ffb1f" y="78.037294"/>
      </g>
     </g>
    </g>
    <g id="ytick_33">
     <g id="line2d_37">
      <g>
       <use style="stroke:#000000;stroke-width:0.6;" x="34.02" xlink:href="#mb9ef9ffb1f" y="74.535569"/>
      </g>
     </g>
    </g>
    <g id="ytick_34">
     <g id="line2d_38">
      <g>
       <use style="stroke:#000000;stroke-width:0.6;" x="34.02" xlink:href="#mb9ef9ffb1f" y="71.674451"/>
      </g>
     </g>
    </g>
    <g id="ytick_35">
     <g id="line2d_39">
      <g>
       <use style="stroke:#000000;stroke-width:0.6;" x="34.02" xlink:href="#mb9ef9ffb1f" y="69.25541"/>
      </g>
     </g>
    </g>
    <g id="ytick_36">
     <g id="line2d_40">
      <g>
       <use style="stroke:#000000;stroke-width:0.6;" x="34.02" xlink:href="#mb9ef9ffb1f" y="67.159941"/>
      </g>
     </g>
    </g>
    <g id="ytick_37">
     <g id="line2d_41">
      <g>
       <use style="stroke:#000000;stroke-width:0.6;" x="34.02" xlink:href="#mb9ef9ffb1f" y="65.311607"/>
      </g>
     </g>
    </g>
    <g id="ytick_38">
     <g id="line2d_42">
      <g>
       <use style="stroke:#000000;stroke-width:0.6;" x="34.02" xlink:href="#mb9ef9ffb1f" y="52.780863"/>
      </g>
     </g>
    </g>
    <g id="ytick_39">
     <g id="line2d_43">
      <g>
       <use style="stroke:#000000;stroke-width:0.6;" x="34.02" xlink:href="#mb9ef9ffb1f" y="46.418019"/>
      </g>
     </g>
    </g>
    <g id="ytick_40">
     <g id="line2d_44">
      <g>
       <use style="stroke:#000000;stroke-width:0.6;" x="34.02" xlink:href="#mb9ef9ffb1f" y="41.90351"/>
      </g>
     </g>
    </g>
    <g id="ytick_41">
     <g id="line2d_45">
      <g>
       <use style="stroke:#000000;stroke-width:0.6;" x="34.02" xlink:href="#mb9ef9ffb1f" y="38.401784"/>
      </g>
     </g>
    </g>
    <g id="ytick_42">
     <g id="line2d_46">
      <g>
       <use style="stroke:#000000;stroke-width:0.6;" x="34.02" xlink:href="#mb9ef9ffb1f" y="35.540666"/>
      </g>
     </g>
    </g>
    <g id="ytick_43">
     <g id="line2d_47">
      <g>
       <use style="stroke:#000000;stroke-width:0.6;" x="34.02" xlink:href="#mb9ef9ffb1f" y="33.121625"/>
      </g>
     </g>
    </g>
    <g id="ytick_44">
     <g id="line2d_48">
      <g>
       <use style="stroke:#000000;stroke-width:0.6;" x="34.02" xlink:href="#mb9ef9ffb1f" y="31.026157"/>
      </g>
     </g>
    </g>
    <g id="ytick_45">
     <g id="line2d_49">
      <g>
       <use style="stroke:#000000;stroke-width:0.6;" x="34.02" xlink:href="#mb9ef9ffb1f" y="29.177823"/>
      </g>
     </g>
    </g>
    <g id="ytick_46">
     <g id="line2d_50">
      <g>
       <use style="stroke:#000000;stroke-width:0.6;" x="34.02" xlink:href="#mb9ef9ffb1f" y="16.647078"/>
      </g>
     </g>
    </g>
    <g id="ytick_47">
     <g id="line2d_51">
      <g>
       <use style="stroke:#000000;stroke-width:0.6;" x="34.02" xlink:href="#mb9ef9ffb1f" y="10.284235"/>
      </g>
     </g>
    </g>
    <g id="ytick_48">
     <g id="line2d_52">
      <g>
       <use style="stroke:#000000;stroke-width:0.6;" x="34.02" xlink:href="#mb9ef9ffb1f" y="5.769726"/>
      </g>
     </g>
    </g>
    <g id="ytick_49">
     <g id="line2d_53">
      <g>
       <use style="stroke:#000000;stroke-width:0.6;" x="34.02" xlink:href="#mb9ef9ffb1f" y="2.268"/>
      </g>
     </g>
    </g>
    <g id="text_11">
     <!-- SF threshold number density $n_{\rm H, thresh}$ [cm$^{-3}$] -->
     <defs>
      <path d="M 5.59375 0.203125 
L 5.59375 20.203125 
Q 5.59375 21.296875 5.640625 21.6875 
Q 5.703125 22.09375 6 22.390625 
Q 6.296875 22.703125 6.90625 22.703125 
Q 8 22.703125 8.09375 21.703125 
Q 8.40625 11.796875 14.296875 6.296875 
Q 20.09375 0.90625 30.09375 0.90625 
Q 36.09375 0.90625 39.796875 5.203125 
Q 43.5 9.5 43.5 15.203125 
Q 43.5 20.59375 40.40625 24.40625 
Q 39.09375 26.09375 37.4375 27.1875 
Q 35.796875 28.296875 34.796875 28.640625 
Q 33.796875 29 31.90625 29.5 
Q 19.5 32.5 18.703125 32.796875 
Q 12.796875 34.796875 9.1875 39.84375 
Q 5.59375 44.90625 5.59375 51.09375 
Q 5.59375 59.09375 11.25 64.796875 
Q 16.90625 70.5 25.09375 70.5 
Q 29.203125 70.5 32.640625 69.203125 
Q 36.09375 67.90625 37.5 66.75 
Q 38.90625 65.59375 41.09375 63.5 
L 44.59375 69.203125 
Q 45.40625 70.5 46.09375 70.5 
Q 46.90625 70.5 47.046875 70.046875 
Q 47.203125 69.59375 47.203125 68.09375 
L 47.203125 48 
Q 47.203125 46.90625 47.140625 46.5 
Q 47.09375 46.09375 46.796875 45.84375 
Q 46.5 45.59375 45.90625 45.59375 
Q 44.90625 45.59375 44.703125 46.796875 
Q 41.90625 67.703125 25.203125 67.703125 
Q 19.5 67.703125 15.75 63.84375 
Q 12 60 12 54.59375 
Q 12 50.203125 14.75 46.59375 
Q 17.5 43 22.09375 41.90625 
L 34.90625 38.796875 
Q 41.296875 37.296875 45.59375 31.640625 
Q 49.90625 26 49.90625 18.59375 
Q 49.90625 10.09375 44.34375 3.9375 
Q 38.796875 -2.203125 30.203125 -2.203125 
Q 24 -2.203125 19.203125 -0.140625 
Q 14.40625 1.90625 11.796875 4.796875 
Q 9.796875 1.5 8.5 -0.40625 
L 8.203125 -0.90625 
Q 7.40625 -2.203125 6.703125 -2.203125 
Q 5.90625 -2.203125 5.75 -1.703125 
Q 5.59375 -1.203125 5.59375 0.203125 
z
" id="CMUSerif-Roman-83"/>
      <path d="M 3.296875 0 
L 3.296875 3.09375 
L 5.703125 3.09375 
Q 11.09375 3.09375 12.34375 4 
Q 13.59375 4.90625 13.59375 7.796875 
L 13.59375 60.203125 
Q 13.59375 63.09375 12.34375 64 
Q 11.09375 64.90625 5.703125 64.90625 
L 3.296875 64.90625 
L 3.296875 68 
L 58.203125 68 
L 61 45.5 
L 58.5 45.5 
Q 57.796875 51.203125 56.890625 54.453125 
Q 56 57.703125 53.953125 60.296875 
Q 51.90625 62.90625 48.453125 63.90625 
Q 45 64.90625 39.40625 64.90625 
L 27.40625 64.90625 
Q 24 64.90625 23.25 64.203125 
Q 22.5 63.5 22.5 60.90625 
L 22.5 35.59375 
L 31.09375 35.59375 
Q 37.90625 35.59375 39.796875 38.046875 
Q 41.703125 40.5 41.703125 47.296875 
L 44.203125 47.296875 
L 44.203125 20.796875 
L 41.703125 20.796875 
Q 41.703125 27.703125 39.796875 30.09375 
Q 37.90625 32.5 31.09375 32.5 
L 22.5 32.5 
L 22.5 7.90625 
Q 22.5 5.796875 22.84375 5 
Q 23.203125 4.203125 25.296875 3.640625 
Q 27.40625 3.09375 32 3.09375 
L 35.296875 3.09375 
L 35.296875 0 
Q 31.703125 0.296875 18.5 0.296875 
Q 6.796875 0.296875 3.296875 0 
z
" id="CMUSerif-Roman-70"/>
      <path d="M 3.203125 0 
L 3.203125 3.09375 
Q 8.5 3.09375 9.75 3.75 
Q 11 4.40625 11 7.59375 
L 11 59.59375 
Q 11 63.296875 9.703125 64.25 
Q 8.40625 65.203125 3.203125 65.203125 
L 3.203125 68.296875 
L 17.59375 69.40625 
L 17.59375 34.59375 
L 17.703125 34.59375 
Q 19.296875 38.203125 22.890625 41.203125 
Q 26.5 44.203125 32.09375 44.203125 
Q 39.59375 44.203125 42.59375 40.5 
Q 44.796875 38 45.25 35.203125 
Q 45.703125 32.40625 45.703125 25.203125 
L 45.703125 6.09375 
Q 45.796875 4 47.390625 3.546875 
Q 49 3.09375 53.5 3.09375 
L 53.5 0 
Q 43.296875 0.296875 42.296875 0.296875 
Q 41.5 0.296875 31 0 
L 31 3.09375 
Q 36.296875 3.09375 37.546875 3.75 
Q 38.796875 4.40625 38.796875 7.59375 
L 38.796875 30.90625 
Q 38.796875 36 37.25 39 
Q 35.703125 42 31.40625 42 
Q 26.203125 42 22.046875 37.640625 
Q 17.90625 33.296875 17.90625 26 
L 17.90625 7.59375 
Q 17.90625 4.40625 19.15625 3.75 
Q 20.40625 3.09375 25.703125 3.09375 
L 25.703125 0 
Q 15.5 0.296875 14.5 0.296875 
Q 13.703125 0.296875 3.203125 0 
z
" id="CMUSerif-Roman-104"/>
      <path d="M 3.40625 21.5 
Q 3.40625 31 10.046875 37.59375 
Q 16.703125 44.203125 25.703125 44.203125 
Q 33.296875 44.203125 38.296875 38 
L 38.296875 59.59375 
Q 38.296875 63.296875 37 64.25 
Q 35.703125 65.203125 30.5 65.203125 
L 30.5 68.296875 
L 44.90625 69.40625 
L 44.90625 8.703125 
Q 44.90625 5 46.203125 4.046875 
Q 47.5 3.09375 52.703125 3.09375 
L 52.703125 0 
L 38 -1.09375 
L 38 5.5 
Q 32.796875 -1.09375 24.59375 -1.09375 
Q 16 -1.09375 9.703125 5.5 
Q 3.40625 12.09375 3.40625 21.5 
z
M 11.703125 21.40625 
Q 11.703125 12.09375 14.59375 7.5 
Q 18.59375 1.09375 25.09375 1.09375 
Q 32.5 1.09375 36.90625 8.09375 
Q 38 9.796875 38 11.796875 
L 38 32.296875 
Q 38 34.296875 36.90625 36 
Q 32.796875 42 26.09375 42 
Q 19.09375 42 14.796875 35.59375 
Q 11.703125 30.796875 11.703125 21.40625 
z
" id="CMUSerif-Roman-100"/>
      <path d="M 3.203125 40 
L 3.203125 43.09375 
L 17.90625 44.203125 
L 17.90625 11 
Q 17.90625 8.59375 18.09375 7.1875 
Q 18.296875 5.796875 19.09375 4.1875 
Q 19.90625 2.59375 21.796875 1.84375 
Q 23.703125 1.09375 26.703125 1.09375 
Q 32.09375 1.09375 35.4375 5.546875 
Q 38.796875 10 38.796875 16.59375 
L 38.796875 34.40625 
Q 38.796875 38.09375 37.5 39.046875 
Q 36.203125 40 31 40 
L 31 43.09375 
L 45.703125 44.203125 
L 45.703125 8.703125 
Q 45.703125 5 47 4.046875 
Q 48.296875 3.09375 53.5 3.09375 
L 53.5 0 
L 39.09375 -1.09375 
L 39.09375 7.90625 
Q 34.90625 -1.09375 26.203125 -1.09375 
Q 21.796875 -1.09375 18.796875 0 
Q 15.796875 1.09375 14.296875 2.5 
Q 12.796875 3.90625 12 6.59375 
Q 11.203125 9.296875 11.09375 10.9375 
Q 11 12.59375 11 15.796875 
L 11 30.796875 
Q 11 37.59375 10 38.796875 
Q 9 40 3.203125 40 
z
" id="CMUSerif-Roman-117"/>
      <path d="M 2.796875 65.203125 
L 2.796875 68.296875 
L 17.203125 69.40625 
L 17.203125 37.703125 
Q 23 44.203125 30.90625 44.203125 
Q 39.5 44.203125 45.796875 37.59375 
Q 52.09375 31 52.09375 21.59375 
Q 52.09375 12.09375 45.5 5.5 
Q 38.90625 -1.09375 29.796875 -1.09375 
Q 21.5 -1.09375 16.703125 6.203125 
Q 13.203125 0.09375 13.09375 0 
L 10.59375 0 
L 10.59375 59.59375 
Q 10.59375 63.296875 9.296875 64.25 
Q 8 65.203125 2.796875 65.203125 
z
M 17.5 11.40625 
Q 17.5 9.296875 18.90625 7.203125 
Q 22.90625 1.09375 29.40625 1.09375 
Q 36.40625 1.09375 40.703125 7.5 
Q 43.796875 12.296875 43.796875 21.703125 
Q 43.796875 31 40.90625 35.59375 
Q 36.90625 42 30.40625 42 
Q 23.09375 42 18.59375 35.59375 
Q 17.5 34 17.5 32 
z
" id="CMUSerif-Roman-98"/>
      <path d="M 7.71875 1.703125 
Q 7.71875 2.296875 7.8125 2.59375 
L 15.28125 32.421875 
Q 16.015625 35.203125 16.015625 37.3125 
Q 16.015625 41.609375 13.09375 41.609375 
Q 9.96875 41.609375 8.453125 37.859375 
Q 6.9375 34.125 5.515625 28.421875 
Q 5.515625 28.125 5.21875 27.953125 
Q 4.9375 27.78125 4.6875 27.78125 
L 3.515625 27.78125 
Q 3.171875 27.78125 2.921875 28.140625 
Q 2.6875 28.515625 2.6875 28.8125 
Q 3.765625 33.15625 4.765625 36.171875 
Q 5.765625 39.203125 7.890625 41.6875 
Q 10.015625 44.1875 13.1875 44.1875 
Q 16.9375 44.1875 19.8125 41.8125 
Q 22.703125 39.453125 22.703125 35.796875 
Q 25.6875 39.703125 29.6875 41.9375 
Q 33.6875 44.1875 38.1875 44.1875 
Q 41.75 44.1875 44.328125 42.96875 
Q 46.921875 41.75 48.359375 39.28125 
Q 49.8125 36.8125 49.8125 33.40625 
Q 49.8125 29.296875 47.96875 23.484375 
Q 46.140625 17.671875 43.40625 10.5 
Q 42 7.234375 42 4.5 
Q 42 1.515625 44.28125 1.515625 
Q 48.1875 1.515625 50.796875 5.703125 
Q 53.421875 9.90625 54.5 14.703125 
Q 54.6875 15.28125 55.328125 15.28125 
L 56.5 15.28125 
Q 56.890625 15.28125 57.15625 15.03125 
Q 57.421875 14.796875 57.421875 14.40625 
Q 57.421875 14.3125 57.328125 14.109375 
Q 55.953125 8.453125 52.5625 3.65625 
Q 49.171875 -1.125 44.09375 -1.125 
Q 40.578125 -1.125 38.078125 1.296875 
Q 35.59375 3.71875 35.59375 7.171875 
Q 35.59375 9.03125 36.375 11.078125 
Q 37.640625 14.359375 39.28125 18.890625 
Q 40.921875 23.4375 41.96875 27.578125 
Q 43.015625 31.734375 43.015625 34.90625 
Q 43.015625 37.703125 41.859375 39.65625 
Q 40.71875 41.609375 37.984375 41.609375 
Q 34.328125 41.609375 31.25 39.984375 
Q 28.171875 38.375 25.875 35.71875 
Q 23.578125 33.0625 21.6875 29.390625 
L 14.890625 2.203125 
Q 14.546875 0.828125 13.34375 -0.140625 
Q 12.15625 -1.125 10.6875 -1.125 
Q 9.46875 -1.125 8.59375 -0.34375 
Q 7.71875 0.4375 7.71875 1.703125 
z
" id="Cmmi10-110"/>
      <path d="M 3.078125 0 
L 3.078125 3.515625 
Q 13.375 3.515625 13.375 6.6875 
L 13.375 61.625 
Q 13.375 64.796875 3.078125 64.796875 
L 3.078125 68.3125 
L 33.015625 68.3125 
L 33.015625 64.796875 
Q 22.703125 64.796875 22.703125 61.625 
L 22.703125 37.3125 
L 52.203125 37.3125 
L 52.203125 61.625 
Q 52.203125 64.796875 41.890625 64.796875 
L 41.890625 68.3125 
L 71.78125 68.3125 
L 71.78125 64.796875 
Q 61.53125 64.796875 61.53125 61.625 
L 61.53125 6.6875 
Q 61.53125 3.515625 71.78125 3.515625 
L 71.78125 0 
L 41.890625 0 
L 41.890625 3.515625 
Q 52.203125 3.515625 52.203125 6.6875 
L 52.203125 33.796875 
L 22.703125 33.796875 
L 22.703125 6.6875 
Q 22.703125 3.515625 33.015625 3.515625 
L 33.015625 0 
z
" id="Cmr10-72"/>
      <path d="M 9.90625 -18.015625 
Q 9.90625 -17.578125 10.296875 -17.1875 
Q 13.921875 -13.71875 15.921875 -9.171875 
Q 17.921875 -4.640625 17.921875 0.390625 
L 17.921875 1.609375 
Q 16.3125 0 13.921875 0 
Q 11.625 0 10.015625 1.609375 
Q 8.40625 3.21875 8.40625 5.515625 
Q 8.40625 7.859375 10.015625 9.421875 
Q 11.625 10.984375 13.921875 10.984375 
Q 17.484375 10.984375 19 7.6875 
Q 20.515625 4.390625 20.515625 0.390625 
Q 20.515625 -5.171875 18.28125 -10.171875 
Q 16.0625 -15.1875 12.015625 -19.1875 
Q 11.625 -19.390625 11.375 -19.390625 
Q 10.890625 -19.390625 10.390625 -18.9375 
Q 9.90625 -18.5 9.90625 -18.015625 
z
" id="Cmmi10-59"/>
      <path d="M 10.203125 12.015625 
L 10.203125 39.59375 
L 1.90625 39.59375 
L 1.90625 42.1875 
Q 8.453125 42.1875 11.515625 48.28125 
Q 14.59375 54.390625 14.59375 61.53125 
L 17.484375 61.53125 
L 17.484375 43.109375 
L 31.59375 43.109375 
L 31.59375 39.59375 
L 17.484375 39.59375 
L 17.484375 12.203125 
Q 17.484375 8.0625 18.875 4.9375 
Q 20.265625 1.8125 23.875 1.8125 
Q 27.296875 1.8125 28.8125 5.109375 
Q 30.328125 8.40625 30.328125 12.203125 
L 30.328125 18.109375 
L 33.203125 18.109375 
L 33.203125 12.015625 
Q 33.203125 8.890625 32.046875 5.828125 
Q 30.90625 2.78125 28.65625 0.828125 
Q 26.421875 -1.125 23.1875 -1.125 
Q 17.1875 -1.125 13.6875 2.46875 
Q 10.203125 6.0625 10.203125 12.015625 
z
" id="Cmr10-116"/>
      <path d="M 2.984375 0 
L 2.984375 3.515625 
Q 6.390625 3.515625 8.59375 4.046875 
Q 10.796875 4.59375 10.796875 6.6875 
L 10.796875 59.1875 
Q 10.796875 61.859375 9.984375 63.0625 
Q 9.1875 64.265625 7.671875 64.53125 
Q 6.15625 64.796875 2.984375 64.796875 
L 2.984375 68.3125 
L 17.828125 69.390625 
L 17.828125 35.015625 
Q 19.921875 39.15625 23.671875 41.671875 
Q 27.4375 44.1875 31.984375 44.1875 
Q 38.921875 44.1875 42.40625 40.859375 
Q 45.90625 37.546875 45.90625 30.71875 
L 45.90625 6.6875 
Q 45.90625 4.59375 48.09375 4.046875 
Q 50.296875 3.515625 53.71875 3.515625 
L 53.71875 0 
L 30.8125 0 
L 30.8125 3.515625 
Q 34.234375 3.515625 36.421875 4.046875 
Q 38.625 4.59375 38.625 6.6875 
L 38.625 30.421875 
Q 38.625 35.296875 37.203125 38.453125 
Q 35.796875 41.609375 31.390625 41.609375 
Q 25.59375 41.609375 21.84375 36.96875 
Q 18.109375 32.328125 18.109375 26.421875 
L 18.109375 6.6875 
Q 18.109375 4.59375 20.3125 4.046875 
Q 22.515625 3.515625 25.875 3.515625 
L 25.875 0 
z
" id="Cmr10-104"/>
      <path d="M 2.59375 0 
L 2.59375 3.515625 
Q 6 3.515625 8.203125 4.046875 
Q 10.40625 4.59375 10.40625 6.6875 
L 10.40625 33.984375 
Q 10.40625 36.671875 9.59375 37.859375 
Q 8.796875 39.0625 7.28125 39.328125 
Q 5.765625 39.59375 2.59375 39.59375 
L 2.59375 43.109375 
L 16.890625 44.1875 
L 16.890625 34.421875 
Q 18.5 38.765625 21.484375 41.46875 
Q 24.46875 44.1875 28.71875 44.1875 
Q 31.6875 44.1875 34.03125 42.421875 
Q 36.375 40.671875 36.375 37.796875 
Q 36.375 35.984375 35.078125 34.640625 
Q 33.796875 33.296875 31.890625 33.296875 
Q 30.03125 33.296875 28.703125 34.609375 
Q 27.390625 35.9375 27.390625 37.796875 
Q 27.390625 40.484375 29.296875 41.609375 
L 28.71875 41.609375 
Q 24.65625 41.609375 22.09375 38.671875 
Q 19.53125 35.75 18.453125 31.390625 
Q 17.390625 27.046875 17.390625 23.09375 
L 17.390625 6.6875 
Q 17.390625 3.515625 27.09375 3.515625 
L 27.09375 0 
z
" id="Cmr10-114"/>
      <path d="M 24.90625 -1.125 
Q 18.796875 -1.125 13.6875 2.078125 
Q 8.59375 5.28125 5.6875 10.625 
Q 2.78125 15.96875 2.78125 21.921875 
Q 2.78125 27.78125 5.4375 33.046875 
Q 8.109375 38.328125 12.859375 41.578125 
Q 17.625 44.828125 23.484375 44.828125 
Q 28.078125 44.828125 31.46875 43.28125 
Q 34.859375 41.75 37.0625 39.015625 
Q 39.265625 36.28125 40.375 32.5625 
Q 41.5 28.859375 41.5 24.421875 
Q 41.5 23.09375 40.484375 23.09375 
L 11.53125 23.09375 
L 11.53125 22.015625 
Q 11.53125 13.71875 14.875 7.765625 
Q 18.21875 1.8125 25.78125 1.8125 
Q 28.859375 1.8125 31.46875 3.171875 
Q 34.078125 4.546875 36 6.984375 
Q 37.9375 9.421875 38.625 12.203125 
Q 38.71875 12.546875 38.984375 12.8125 
Q 39.265625 13.09375 39.59375 13.09375 
L 40.484375 13.09375 
Q 41.5 13.09375 41.5 11.8125 
Q 40.09375 6.15625 35.40625 2.515625 
Q 30.71875 -1.125 24.90625 -1.125 
z
M 11.625 25.59375 
L 34.421875 25.59375 
Q 34.421875 29.34375 33.375 33.203125 
Q 32.328125 37.0625 29.875 39.625 
Q 27.4375 42.1875 23.484375 42.1875 
Q 17.828125 42.1875 14.71875 36.890625 
Q 11.625 31.59375 11.625 25.59375 
z
" id="Cmr10-101"/>
      <path d="M 3.328125 -0.296875 
L 3.328125 16.015625 
Q 3.328125 16.796875 4.203125 16.796875 
L 5.421875 16.796875 
Q 6 16.796875 6.203125 16.015625 
Q 8.984375 1.515625 19.671875 1.515625 
Q 24.421875 1.515625 27.609375 3.65625 
Q 30.8125 5.8125 30.8125 10.296875 
Q 30.8125 13.53125 28.3125 15.796875 
Q 25.828125 18.0625 22.40625 18.890625 
L 15.71875 20.21875 
Q 12.359375 20.953125 9.59375 22.453125 
Q 6.84375 23.96875 5.078125 26.484375 
Q 3.328125 29 3.328125 32.328125 
Q 3.328125 36.71875 5.640625 39.515625 
Q 7.953125 42.328125 11.65625 43.578125 
Q 15.375 44.828125 19.671875 44.828125 
Q 24.8125 44.828125 28.609375 42.09375 
L 31.5 44.578125 
Q 31.5 44.828125 31.984375 44.828125 
L 32.71875 44.828125 
Q 33.015625 44.828125 33.25 44.546875 
Q 33.5 44.28125 33.5 44 
L 33.5 30.90625 
Q 33.5 29.984375 32.71875 29.984375 
L 31.5 29.984375 
Q 30.609375 29.984375 30.609375 30.90625 
Q 30.609375 36.140625 27.703125 39.3125 
Q 24.8125 42.484375 19.578125 42.484375 
Q 15.09375 42.484375 11.796875 40.8125 
Q 8.5 39.15625 8.5 35.109375 
Q 8.5 32.328125 10.859375 30.546875 
Q 13.234375 28.765625 16.40625 27.984375 
L 23.1875 26.703125 
Q 26.609375 25.921875 29.5625 24.0625 
Q 32.515625 22.21875 34.25 19.375 
Q 35.984375 16.546875 35.984375 12.984375 
Q 35.984375 9.375 34.734375 6.703125 
Q 33.5 4.046875 31.265625 2.28125 
Q 29.046875 0.53125 26.015625 -0.296875 
Q 23 -1.125 19.671875 -1.125 
Q 13.421875 -1.125 8.984375 3.078125 
L 5.328125 -0.875 
Q 5.328125 -1.125 4.78125 -1.125 
L 4.203125 -1.125 
Q 3.328125 -1.125 3.328125 -0.296875 
z
" id="Cmr10-115"/>
      <path d="M 10.203125 23 
Q 9.375 23 8.828125 23.625 
Q 8.296875 24.265625 8.296875 25 
Q 8.296875 25.734375 8.828125 26.359375 
Q 9.375 27 10.203125 27 
L 67.578125 27 
Q 68.359375 27 68.875 26.359375 
Q 69.390625 25.734375 69.390625 25 
Q 69.390625 24.265625 68.875 23.625 
Q 68.359375 23 67.578125 23 
z
" id="Cmsy10-161"/>
      <path d="M 9.515625 7.71875 
Q 11.859375 4.296875 15.8125 2.640625 
Q 19.78125 0.984375 24.3125 0.984375 
Q 30.125 0.984375 32.5625 5.9375 
Q 35.015625 10.890625 35.015625 17.1875 
Q 35.015625 20.015625 34.5 22.84375 
Q 33.984375 25.6875 32.765625 28.125 
Q 31.546875 30.5625 29.421875 32.03125 
Q 27.296875 33.5 24.21875 33.5 
L 17.578125 33.5 
Q 16.703125 33.5 16.703125 34.421875 
L 16.703125 35.296875 
Q 16.703125 36.078125 17.578125 36.078125 
L 23.09375 36.53125 
Q 26.609375 36.53125 28.921875 39.15625 
Q 31.25 41.796875 32.328125 45.578125 
Q 33.40625 49.359375 33.40625 52.78125 
Q 33.40625 57.5625 31.15625 60.640625 
Q 28.90625 63.71875 24.3125 63.71875 
Q 20.515625 63.71875 17.046875 62.28125 
Q 13.578125 60.84375 11.53125 57.90625 
Q 11.71875 57.953125 11.859375 57.984375 
Q 12.015625 58.015625 12.203125 58.015625 
Q 14.453125 58.015625 15.96875 56.453125 
Q 17.484375 54.890625 17.484375 52.6875 
Q 17.484375 50.53125 15.96875 48.96875 
Q 14.453125 47.40625 12.203125 47.40625 
Q 10.015625 47.40625 8.453125 48.96875 
Q 6.890625 50.53125 6.890625 52.6875 
Q 6.890625 56.984375 9.46875 60.15625 
Q 12.0625 63.328125 16.140625 64.96875 
Q 20.21875 66.609375 24.3125 66.609375 
Q 27.34375 66.609375 30.703125 65.703125 
Q 34.078125 64.796875 36.8125 63.109375 
Q 39.546875 61.421875 41.28125 58.78125 
Q 43.015625 56.15625 43.015625 52.78125 
Q 43.015625 48.578125 41.140625 45.015625 
Q 39.265625 41.453125 35.984375 38.859375 
Q 32.71875 36.28125 28.8125 35.015625 
Q 33.15625 34.1875 37.0625 31.734375 
Q 40.96875 29.296875 43.328125 25.484375 
Q 45.703125 21.6875 45.703125 17.28125 
Q 45.703125 11.765625 42.671875 7.296875 
Q 39.65625 2.828125 34.71875 0.3125 
Q 29.78125 -2.203125 24.3125 -2.203125 
Q 19.625 -2.203125 14.90625 -0.40625 
Q 10.203125 1.375 7.203125 4.9375 
Q 4.203125 8.5 4.203125 13.484375 
Q 4.203125 15.96875 5.859375 17.625 
Q 7.515625 19.28125 10.015625 19.28125 
Q 11.625 19.28125 12.96875 18.53125 
Q 14.3125 17.78125 15.0625 16.40625 
Q 15.828125 15.046875 15.828125 13.484375 
Q 15.828125 11.03125 14.109375 9.375 
Q 12.40625 7.71875 10.015625 7.71875 
z
" id="Cmr10-51"/>
     </defs>
     <g transform="translate(8.72 198.042)rotate(-90)scale(0.1 -0.1)">
      <use transform="translate(0 0.109375)" xlink:href="#CMUSerif-Roman-83"/>
      <use transform="translate(55.499985 0.109375)" xlink:href="#CMUSerif-Roman-70"/>
      <use transform="translate(120.699982 0.109375)" xlink:href="#CMUSerif-Roman-32"/>
      <use transform="translate(153.999969 0.109375)" xlink:href="#CMUSerif-Roman-116"/>
      <use transform="translate(192.799957 0.109375)" xlink:href="#CMUSerif-Roman-104"/>
      <use transform="translate(248.299942 0.109375)" xlink:href="#CMUSerif-Roman-114"/>
      <use transform="translate(287.399933 0.109375)" xlink:href="#CMUSerif-Roman-101"/>
      <use transform="translate(331.799927 0.109375)" xlink:href="#CMUSerif-Roman-115"/>
      <use transform="translate(371.199921 0.109375)" xlink:href="#CMUSerif-Roman-104"/>
      <use transform="translate(426.699905 0.109375)" xlink:href="#CMUSerif-Roman-111"/>
      <use transform="translate(476.69989 0.109375)" xlink:href="#CMUSerif-Roman-108"/>
      <use transform="translate(504.399887 0.109375)" xlink:href="#CMUSerif-Roman-100"/>
      <use transform="translate(559.899872 0.109375)" xlink:href="#CMUSerif-Roman-32"/>
      <use transform="translate(593.19986 0.109375)" xlink:href="#CMUSerif-Roman-110"/>
      <use transform="translate(648.699844 0.109375)" xlink:href="#CMUSerif-Roman-117"/>
      <use transform="translate(704.199829 0.109375)" xlink:href="#CMUSerif-Roman-109"/>
      <use transform="translate(787.499817 0.109375)" xlink:href="#CMUSerif-Roman-98"/>
      <use transform="translate(842.999802 0.109375)" xlink:href="#CMUSerif-Roman-101"/>
      <use transform="translate(887.399796 0.109375)" xlink:href="#CMUSerif-Roman-114"/>
      <use transform="translate(926.499786 0.109375)" xlink:href="#CMUSerif-Roman-32"/>
      <use transform="translate(959.799774 0.109375)" xlink:href="#CMUSerif-Roman-100"/>
      <use transform="translate(1015.299759 0.109375)" xlink:href="#CMUSerif-Roman-101"/>
      <use transform="translate(1059.699753 0.109375)" xlink:href="#CMUSerif-Roman-110"/>
      <use transform="translate(1115.199738 0.109375)" xlink:href="#CMUSerif-Roman-115"/>
      <use transform="translate(1154.599731 0.109375)" xlink:href="#CMUSerif-Roman-105"/>
      <use transform="translate(1182.299728 0.109375)" xlink:href="#CMUSerif-Roman-116"/>
      <use transform="translate(1221.099716 0.109375)" xlink:href="#CMUSerif-Roman-121"/>
      <use transform="translate(1273.799713 0.109375)" xlink:href="#CMUSerif-Roman-32"/>
      <use transform="translate(1307.099701 0.109375)" xlink:href="#Cmmi10-110"/>
      <use transform="translate(1367.109467 -16.896875)scale(0.7)" xlink:href="#Cmr10-72"/>
      <use transform="translate(1419.609467 -16.896875)scale(0.7)" xlink:href="#Cmmi10-59"/>
      <use transform="translate(1450.651459 -16.896875)scale(0.7)" xlink:href="#Cmr10-116"/>
      <use transform="translate(1477.82431 -16.896875)scale(0.7)" xlink:href="#Cmr10-104"/>
      <use transform="translate(1516.686615 -16.896875)scale(0.7)" xlink:href="#Cmr10-114"/>
      <use transform="translate(1544.064545 -16.896875)scale(0.7)" xlink:href="#Cmr10-101"/>
      <use transform="translate(1575.133881 -16.896875)scale(0.7)" xlink:href="#Cmr10-115"/>
      <use transform="translate(1602.716888 -16.896875)scale(0.7)" xlink:href="#Cmr10-104"/>
      <use transform="translate(1647.956537 0.109375)" xlink:href="#CMUSerif-Roman-32"/>
      <use transform="translate(1681.256525 0.109375)" xlink:href="#CMUSerif-Roman-91"/>
      <use transform="translate(1709.056512 0.109375)" xlink:href="#CMUSerif-Roman-99"/>
      <use transform="translate(1753.456506 0.109375)" xlink:href="#CMUSerif-Roman-109"/>
      <use transform="translate(1841.220635 38.373438)scale(0.7)" xlink:href="#Cmsy10-161"/>
      <use transform="translate(1895.600518 38.373438)scale(0.7)" xlink:href="#Cmr10-51"/>
      <use transform="translate(1936.977861 0.109375)" xlink:href="#CMUSerif-Roman-93"/>
     </g>
    </g>
   </g>
   <g id="line2d_54">
    <path clip-path="url(#p23ab05f3c8)" d="M 6.804 27.524431 
L 66.139784 27.620407 
L 227.8 164.984202 
L 227.8 164.984202 
" style="fill:none;stroke:#000000;stroke-linecap:square;"/>
   </g>
   <g id="line2d_55">
    <path clip-path="url(#p23ab05f3c8)" d="M 128.653332 63.658216 
L 183.085332 109.90946 
" style="fill:none;stroke:#000000;stroke-dasharray:2.22,0.96;stroke-dashoffset:0;stroke-width:0.6;"/>
   </g>
   <g id="line2d_56">
    <path clip-path="url(#p23ab05f3c8)" d="M -1 27.524431 
L 227.8 27.524431 
" style="fill:none;stroke:#000000;stroke-dasharray:0.6,0.99;stroke-dashoffset:0;stroke-width:0.6;"/>
   </g>
   <g id="line2d_57">
    <path clip-path="url(#p23ab05f3c8)" d="M 151.076832 227.8 
L 151.076832 99.792 
" style="fill:none;stroke:#000000;stroke-dasharray:0.6,0.99;stroke-dashoffset:0;stroke-width:0.6;"/>
   </g>
   <g id="line2d_58">
    <path clip-path="url(#p23ab05f3c8)" d="M -1 99.792 
L 151.076832 99.792 
" style="fill:none;stroke:#000000;stroke-dasharray:0.6,0.99;stroke-dashoffset:0;stroke-width:0.6;"/>
   </g>
   <g id="patch_3">
    <path d="M 34.02 197.316 
L 34.02 2.268 
" style="fill:none;stroke:#000000;stroke-linecap:square;stroke-linejoin:miter;stroke-width:0.8;"/>
   </g>
   <g id="patch_4">
    <path d="M 224.532 197.316 
L 224.532 2.268 
" style="fill:none;stroke:#000000;stroke-linecap:square;stroke-linejoin:miter;stroke-width:0.8;"/>
   </g>
   <g id="patch_5">
    <path d="M 34.02 197.316 
L 224.532 197.316 
" style="fill:none;stroke:#000000;stroke-linecap:square;stroke-linejoin:miter;stroke-width:0.8;"/>
   </g>
   <g id="patch_6">
    <path d="M 34.02 2.268 
L 224.532 2.268 
" style="fill:none;stroke:#000000;stroke-linecap:square;stroke-linejoin:miter;stroke-width:0.8;"/>
   </g>
   <g id="patch_7">
    <path d="M 174.027021 190.953156 
Q 174.027021 184.004135 174.027021 177.055114 
L 172.577021 177.055114 
Q 173.327021 174.557342 174.077021 172.059569 
Q 174.827021 174.557342 175.577021 177.055114 
L 174.127021 177.055114 
Q 174.127021 184.004135 174.127021 190.953156 
L 174.027021 190.953156 
z
" style="stroke:#000000;stroke-linecap:round;"/>
   </g>
   <g id="text_12">
    <!-- ${Z_\odot}$ -->
    <defs>
     <path d="M 38.921875 -8.296875 
Q 32.078125 -8.296875 26.0625 -5.703125 
Q 20.0625 -3.125 15.40625 1.484375 
Q 10.75 6.109375 8.171875 12.1875 
Q 5.609375 18.265625 5.609375 25 
Q 5.609375 31.84375 8.140625 37.84375 
Q 10.6875 43.84375 15.375 48.53125 
Q 20.0625 53.21875 26.0625 55.75 
Q 32.078125 58.296875 38.921875 58.296875 
Q 45.703125 58.296875 51.75 55.703125 
Q 57.8125 53.125 62.40625 48.5 
Q 67 43.890625 69.5625 37.828125 
Q 72.125 31.78125 72.125 25 
Q 72.125 18.3125 69.53125 12.1875 
Q 66.9375 6.0625 62.375 1.484375 
Q 57.8125 -3.078125 51.75 -5.6875 
Q 45.703125 -8.296875 38.921875 -8.296875 
z
M 38.921875 -5.421875 
Q 44.96875 -5.421875 50.53125 -3.046875 
Q 56.109375 -0.6875 60.296875 3.515625 
Q 64.5 7.71875 66.84375 13.25 
Q 69.1875 18.796875 69.1875 25 
Q 69.1875 31.203125 66.8125 36.796875 
Q 64.453125 42.390625 60.34375 46.515625 
Q 56.25 50.640625 50.703125 53.03125 
Q 45.171875 55.421875 38.921875 55.421875 
Q 32.671875 55.421875 27.09375 53.03125 
Q 21.53125 50.640625 17.421875 46.53125 
Q 13.328125 42.4375 10.90625 36.71875 
Q 8.5 31 8.5 25 
Q 8.5 19 10.859375 13.359375 
Q 13.234375 7.71875 17.453125 3.515625 
Q 21.6875 -0.6875 27.265625 -3.046875 
Q 32.859375 -5.421875 38.921875 -5.421875 
z
M 38.921875 17.828125 
Q 36.03125 17.828125 33.859375 19.953125 
Q 31.6875 22.078125 31.6875 25 
Q 31.6875 27 32.65625 28.609375 
Q 33.640625 30.21875 35.296875 31.1875 
Q 36.96875 32.171875 38.921875 32.171875 
Q 40.765625 32.171875 42.40625 31.1875 
Q 44.046875 30.21875 45.015625 28.609375 
Q 46 27 46 25 
Q 46 22.078125 43.875 19.953125 
Q 41.75 17.828125 38.921875 17.828125 
z
" id="Cmsy10-175"/>
    </defs>
    <g transform="translate(175.655329 188.534116)scale(0.09 -0.09)">
     <use transform="translate(0 0.6875)" xlink:href="#Cmmi10-90"/>
     <use transform="translate(80.503906 -16.31875)scale(0.7)" xlink:href="#Cmsy10-175"/>
    </g>
   </g>
   <g id="text_13">
    <!-- Z^threshold_slope -->
    <defs>
     <path d="M 8.6875 72.90625 
L 56 72.90625 
L 56 65.375 
L 17.921875 8.296875 
L 57.078125 8.296875 
L 57.078125 0 
L 7.625 0 
L 7.625 7.515625 
L 44.671875 64.59375 
L 8.6875 64.59375 
z
" id="DejaVuSansMono-90"/>
     <path d="M 34.421875 72.90625 
L 56.6875 45.703125 
L 48 45.703125 
L 30.078125 64.984375 
L 12.203125 45.703125 
L 3.515625 45.703125 
L 25.78125 72.90625 
z
" id="DejaVuSansMono-94"/>
     <path d="M 29.984375 70.21875 
L 29.984375 54.6875 
L 50.390625 54.6875 
L 50.390625 47.703125 
L 29.984375 47.703125 
L 29.984375 18.015625 
Q 29.984375 11.96875 32.28125 9.5625 
Q 34.578125 7.171875 40.28125 7.171875 
L 50.390625 7.171875 
L 50.390625 0 
L 39.40625 0 
Q 29.296875 0 25.140625 4.046875 
Q 21 8.109375 21 18.015625 
L 21 47.703125 
L 6.390625 47.703125 
L 6.390625 54.6875 
L 21 54.6875 
L 21 70.21875 
z
" id="DejaVuSansMono-116"/>
     <path d="M 51.3125 33.890625 
L 51.3125 0 
L 42.28125 0 
L 42.28125 33.890625 
Q 42.28125 41.265625 39.6875 44.71875 
Q 37.109375 48.1875 31.59375 48.1875 
Q 25.296875 48.1875 21.890625 43.71875 
Q 18.5 39.265625 18.5 30.90625 
L 18.5 0 
L 9.515625 0 
L 9.515625 75.984375 
L 18.5 75.984375 
L 18.5 46.484375 
Q 20.90625 51.171875 25 53.578125 
Q 29.109375 56 34.71875 56 
Q 43.0625 56 47.1875 50.5 
Q 51.3125 45.015625 51.3125 33.890625 
z
" id="DejaVuSansMono-104"/>
     <path d="M 56.390625 43.40625 
Q 53.515625 45.65625 50.53125 46.671875 
Q 47.5625 47.703125 44 47.703125 
Q 35.59375 47.703125 31.140625 42.421875 
Q 26.703125 37.15625 26.703125 27.203125 
L 26.703125 0 
L 17.671875 0 
L 17.671875 54.6875 
L 26.703125 54.6875 
L 26.703125 44 
Q 28.953125 49.8125 33.609375 52.90625 
Q 38.28125 56 44.671875 56 
Q 48 56 50.875 55.171875 
Q 53.765625 54.34375 56.390625 52.59375 
z
" id="DejaVuSansMono-114"/>
     <path d="M 54.296875 29.59375 
L 54.296875 25.203125 
L 15.375 25.203125 
L 15.375 24.90625 
Q 15.375 15.96875 20.03125 11.078125 
Q 24.703125 6.203125 33.203125 6.203125 
Q 37.5 6.203125 42.1875 7.5625 
Q 46.875 8.9375 52.203125 11.71875 
L 52.203125 2.78125 
Q 47.078125 0.6875 42.3125 -0.359375 
Q 37.546875 -1.421875 33.109375 -1.421875 
Q 20.359375 -1.421875 13.171875 6.21875 
Q 6 13.875 6 27.296875 
Q 6 40.375 13.03125 48.1875 
Q 20.0625 56 31.78125 56 
Q 42.234375 56 48.265625 48.921875 
Q 54.296875 41.84375 54.296875 29.59375 
z
M 45.3125 32.234375 
Q 45.125 40.140625 41.578125 44.265625 
Q 38.03125 48.390625 31.390625 48.390625 
Q 24.90625 48.390625 20.703125 44.09375 
Q 16.5 39.796875 15.71875 32.171875 
z
" id="DejaVuSansMono-101"/>
     <path d="M 47.515625 52.78125 
L 47.515625 44 
Q 43.65625 46.234375 39.75 47.359375 
Q 35.84375 48.484375 31.78125 48.484375 
Q 25.6875 48.484375 22.671875 46.5 
Q 19.671875 44.53125 19.671875 40.484375 
Q 19.671875 36.8125 21.921875 35 
Q 24.171875 33.203125 33.109375 31.5 
L 36.71875 30.8125 
Q 43.40625 29.546875 46.84375 25.734375 
Q 50.296875 21.921875 50.296875 15.828125 
Q 50.296875 7.71875 44.53125 3.140625 
Q 38.765625 -1.421875 28.515625 -1.421875 
Q 24.46875 -1.421875 20.015625 -0.5625 
Q 15.578125 0.296875 10.40625 2 
L 10.40625 11.28125 
Q 15.4375 8.6875 20.015625 7.390625 
Q 24.609375 6.109375 28.71875 6.109375 
Q 34.671875 6.109375 37.9375 8.515625 
Q 41.21875 10.9375 41.21875 15.28125 
Q 41.21875 21.53125 29.25 23.921875 
L 28.859375 24.03125 
L 25.484375 24.703125 
Q 17.71875 26.21875 14.15625 29.8125 
Q 10.59375 33.40625 10.59375 39.59375 
Q 10.59375 47.46875 15.90625 51.734375 
Q 21.234375 56 31.109375 56 
Q 35.5 56 39.546875 55.1875 
Q 43.609375 54.390625 47.515625 52.78125 
z
" id="DejaVuSansMono-115"/>
     <path d="M 30.078125 48.390625 
Q 23.25 48.390625 19.734375 43.0625 
Q 16.21875 37.75 16.21875 27.296875 
Q 16.21875 16.890625 19.734375 11.546875 
Q 23.25 6.203125 30.078125 6.203125 
Q 36.96875 6.203125 40.484375 11.546875 
Q 44 16.890625 44 27.296875 
Q 44 37.75 40.484375 43.0625 
Q 36.96875 48.390625 30.078125 48.390625 
z
M 30.078125 56 
Q 41.453125 56 47.484375 48.625 
Q 53.515625 41.265625 53.515625 27.296875 
Q 53.515625 13.28125 47.5 5.921875 
Q 41.5 -1.421875 30.078125 -1.421875 
Q 18.703125 -1.421875 12.6875 5.921875 
Q 6.6875 13.28125 6.6875 27.296875 
Q 6.6875 41.265625 12.6875 48.625 
Q 18.703125 56 30.078125 56 
z
" id="DejaVuSansMono-111"/>
     <path d="M 31.203125 19.828125 
Q 31.203125 13.765625 33.421875 10.6875 
Q 35.640625 7.625 39.984375 7.625 
L 50.484375 7.625 
L 50.484375 0 
L 39.109375 0 
Q 31.0625 0 26.640625 5.171875 
Q 22.21875 10.359375 22.21875 19.828125 
L 22.21875 69.484375 
L 7.8125 69.484375 
L 7.8125 76.515625 
L 31.203125 76.515625 
z
" id="DejaVuSansMono-108"/>
     <path d="M 41.890625 47.703125 
L 41.890625 75.984375 
L 50.875 75.984375 
L 50.875 0 
L 41.890625 0 
L 41.890625 6.890625 
Q 39.65625 2.828125 35.90625 0.703125 
Q 32.171875 -1.421875 27.296875 -1.421875 
Q 17.390625 -1.421875 11.6875 6.265625 
Q 6 13.96875 6 27.484375 
Q 6 40.828125 11.71875 48.40625 
Q 17.4375 56 27.296875 56 
Q 32.234375 56 35.984375 53.875 
Q 39.75 51.765625 41.890625 47.703125 
z
M 15.484375 27.296875 
Q 15.484375 16.84375 18.796875 11.515625 
Q 22.125 6.203125 28.609375 6.203125 
Q 35.109375 6.203125 38.5 11.5625 
Q 41.890625 16.9375 41.890625 27.296875 
Q 41.890625 37.703125 38.5 43.046875 
Q 35.109375 48.390625 28.609375 48.390625 
Q 22.125 48.390625 18.796875 43.0625 
Q 15.484375 37.75 15.484375 27.296875 
z
" id="DejaVuSansMono-100"/>
     <path d="M 60.203125 -19.671875 
L 60.203125 -23.578125 
L 0 -23.578125 
L 0 -19.671875 
z
" id="DejaVuSansMono-95"/>
     <path d="M 18.3125 6.890625 
L 18.3125 -20.796875 
L 9.28125 -20.796875 
L 9.28125 54.6875 
L 18.3125 54.6875 
L 18.3125 47.703125 
Q 20.5625 51.765625 24.296875 53.875 
Q 28.03125 56 32.90625 56 
Q 42.828125 56 48.46875 48.328125 
Q 54.109375 40.671875 54.109375 27.09375 
Q 54.109375 13.765625 48.4375 6.171875 
Q 42.78125 -1.421875 32.90625 -1.421875 
Q 27.9375 -1.421875 24.1875 0.703125 
Q 20.453125 2.828125 18.3125 6.890625 
z
M 44.671875 27.296875 
Q 44.671875 37.75 41.375 43.0625 
Q 38.09375 48.390625 31.59375 48.390625 
Q 25.046875 48.390625 21.671875 43.046875 
Q 18.3125 37.703125 18.3125 27.296875 
Q 18.3125 16.9375 21.671875 11.5625 
Q 25.046875 6.203125 31.59375 6.203125 
Q 38.09375 6.203125 41.375 11.515625 
Q 44.671875 16.84375 44.671875 27.296875 
z
" id="DejaVuSansMono-112"/>
    </defs>
    <g transform="translate(129.714233 61.930385)rotate(-320)scale(0.07 -0.07)">
     <use xlink:href="#DejaVuSansMono-90"/>
     <use x="60.205078" xlink:href="#DejaVuSansMono-94"/>
     <use x="120.410156" xlink:href="#DejaVuSansMono-116"/>
     <use x="180.615234" xlink:href="#DejaVuSansMono-104"/>
     <use x="240.820312" xlink:href="#DejaVuSansMono-114"/>
     <use x="301.025391" xlink:href="#DejaVuSansMono-101"/>
     <use x="361.230469" xlink:href="#DejaVuSansMono-115"/>
     <use x="421.435547" xlink:href="#DejaVuSansMono-104"/>
     <use x="481.640625" xlink:href="#DejaVuSansMono-111"/>
     <use x="541.845703" xlink:href="#DejaVuSansMono-108"/>
     <use x="602.050781" xlink:href="#DejaVuSansMono-100"/>
     <use x="662.255859" xlink:href="#DejaVuSansMono-95"/>
     <use x="722.460938" xlink:href="#DejaVuSansMono-115"/>
     <use x="782.666016" xlink:href="#DejaVuSansMono-108"/>
     <use x="842.871094" xlink:href="#DejaVuSansMono-111"/>
     <use x="903.076172" xlink:href="#DejaVuSansMono-112"/>
     <use x="963.28125" xlink:href="#DejaVuSansMono-101"/>
    </g>
   </g>
   <g id="text_14">
    <!-- threshold_max_density_H_p_cm3 -->
    <defs>
     <path d="M 33.015625 49.125 
Q 34.671875 52.640625 37.234375 54.3125 
Q 39.796875 56 43.40625 56 
Q 50 56 52.703125 50.890625 
Q 55.421875 45.796875 55.421875 31.6875 
L 55.421875 0 
L 47.21875 0 
L 47.21875 31.296875 
Q 47.21875 42.875 45.921875 45.671875 
Q 44.625 48.484375 41.21875 48.484375 
Q 37.3125 48.484375 35.859375 45.484375 
Q 34.421875 42.484375 34.421875 31.296875 
L 34.421875 0 
L 26.21875 0 
L 26.21875 31.296875 
Q 26.21875 43.015625 24.828125 45.75 
Q 23.4375 48.484375 19.828125 48.484375 
Q 16.265625 48.484375 14.875 45.484375 
Q 13.484375 42.484375 13.484375 31.296875 
L 13.484375 0 
L 5.328125 0 
L 5.328125 54.6875 
L 13.484375 54.6875 
L 13.484375 50 
Q 15.09375 52.9375 17.5 54.46875 
Q 19.921875 56 23 56 
Q 26.703125 56 29.171875 54.296875 
Q 31.640625 52.59375 33.015625 49.125 
z
" id="DejaVuSansMono-109"/>
     <path d="M 34.28125 27.484375 
L 31.296875 27.484375 
Q 23.4375 27.484375 19.453125 24.71875 
Q 15.484375 21.96875 15.484375 16.5 
Q 15.484375 11.578125 18.453125 8.84375 
Q 21.4375 6.109375 26.703125 6.109375 
Q 34.125 6.109375 38.375 11.25 
Q 42.625 16.40625 42.671875 25.484375 
L 42.671875 27.484375 
z
M 51.703125 31.203125 
L 51.703125 0 
L 42.671875 0 
L 42.671875 8.109375 
Q 39.796875 3.21875 35.421875 0.890625 
Q 31.0625 -1.421875 24.8125 -1.421875 
Q 16.453125 -1.421875 11.46875 3.296875 
Q 6.5 8.015625 6.5 15.921875 
Q 6.5 25.046875 12.625 29.78125 
Q 18.75 34.515625 30.609375 34.515625 
L 42.671875 34.515625 
L 42.671875 35.9375 
Q 42.625 42.484375 39.34375 45.4375 
Q 36.078125 48.390625 28.90625 48.390625 
Q 24.3125 48.390625 19.625 47.0625 
Q 14.9375 45.75 10.5 43.21875 
L 10.5 52.203125 
Q 15.484375 54.109375 20.046875 55.046875 
Q 24.609375 56 28.90625 56 
Q 35.6875 56 40.5 54 
Q 45.3125 52 48.296875 48 
Q 50.140625 45.5625 50.921875 41.96875 
Q 51.703125 38.375 51.703125 31.203125 
z
" id="DejaVuSansMono-97"/>
     <path d="M 54.59375 54.6875 
L 35.015625 28.515625 
L 56.5 0 
L 46.09375 0 
L 30.078125 21.921875 
L 14.109375 0 
L 3.71875 0 
L 25.203125 28.515625 
L 5.609375 54.6875 
L 15.578125 54.6875 
L 30.078125 34.90625 
L 44.484375 54.6875 
z
" id="DejaVuSansMono-120"/>
     <path d="M 51.3125 33.890625 
L 51.3125 0 
L 42.28125 0 
L 42.28125 33.890625 
Q 42.28125 41.265625 39.6875 44.71875 
Q 37.109375 48.1875 31.59375 48.1875 
Q 25.296875 48.1875 21.890625 43.71875 
Q 18.5 39.265625 18.5 30.90625 
L 18.5 0 
L 9.515625 0 
L 9.515625 54.6875 
L 18.5 54.6875 
L 18.5 46.484375 
Q 20.90625 51.171875 25 53.578125 
Q 29.109375 56 34.71875 56 
Q 43.0625 56 47.1875 50.5 
Q 51.3125 45.015625 51.3125 33.890625 
z
" id="DejaVuSansMono-110"/>
     <path d="M 12.5 54.6875 
L 35.5 54.6875 
L 35.5 6.984375 
L 53.328125 6.984375 
L 53.328125 0 
L 8.6875 0 
L 8.6875 6.984375 
L 26.515625 6.984375 
L 26.515625 47.703125 
L 12.5 47.703125 
z
M 26.515625 75.984375 
L 35.5 75.984375 
L 35.5 64.59375 
L 26.515625 64.59375 
z
" id="DejaVuSansMono-105"/>
     <path d="M 41.890625 17.578125 
Q 39.65625 11.859375 36.1875 2.546875 
Q 31.34375 -10.359375 29.6875 -13.1875 
Q 27.4375 -17 24.0625 -18.890625 
Q 20.703125 -20.796875 16.21875 -20.796875 
L 8.984375 -20.796875 
L 8.984375 -13.28125 
L 14.3125 -13.28125 
Q 18.265625 -13.28125 20.5 -10.984375 
Q 22.75 -8.6875 26.21875 0.875 
L 5.078125 54.6875 
L 14.59375 54.6875 
L 30.8125 11.921875 
L 46.78125 54.6875 
L 56.296875 54.6875 
z
" id="DejaVuSansMono-121"/>
     <path d="M 6.6875 72.90625 
L 16.609375 72.90625 
L 16.609375 43.015625 
L 43.609375 43.015625 
L 43.609375 72.90625 
L 53.515625 72.90625 
L 53.515625 0 
L 43.609375 0 
L 43.609375 34.71875 
L 16.609375 34.71875 
L 16.609375 0 
L 6.6875 0 
z
" id="DejaVuSansMono-72"/>
     <path d="M 51.8125 2.78125 
Q 48.1875 0.6875 44.359375 -0.359375 
Q 40.53125 -1.421875 36.53125 -1.421875 
Q 23.828125 -1.421875 16.671875 6.1875 
Q 9.515625 13.8125 9.515625 27.296875 
Q 9.515625 40.765625 16.671875 48.375 
Q 23.828125 56 36.53125 56 
Q 40.484375 56 44.234375 54.96875 
Q 48 53.953125 51.8125 51.8125 
L 51.8125 42.390625 
Q 48.25 45.5625 44.65625 46.96875 
Q 41.0625 48.390625 36.53125 48.390625 
Q 28.078125 48.390625 23.53125 42.921875 
Q 19 37.453125 19 27.296875 
Q 19 17.1875 23.5625 11.6875 
Q 28.125 6.203125 36.53125 6.203125 
Q 41.21875 6.203125 44.921875 7.640625 
Q 48.640625 9.078125 51.8125 12.109375 
z
" id="DejaVuSansMono-99"/>
     <path d="M 37.890625 39.015625 
Q 45.0625 37.109375 48.875 32.25 
Q 52.6875 27.390625 52.6875 20.125 
Q 52.6875 10.0625 45.921875 4.3125 
Q 39.15625 -1.421875 27.203125 -1.421875 
Q 22.171875 -1.421875 16.9375 -0.484375 
Q 11.71875 0.4375 6.6875 2.203125 
L 6.6875 12.015625 
Q 11.671875 9.421875 16.5 8.15625 
Q 21.34375 6.890625 26.125 6.890625 
Q 34.234375 6.890625 38.578125 10.546875 
Q 42.921875 14.203125 42.921875 21.09375 
Q 42.921875 27.4375 38.578125 31.171875 
Q 34.234375 34.90625 26.8125 34.90625 
L 19.28125 34.90625 
L 19.28125 43.015625 
L 26.8125 43.015625 
Q 33.59375 43.015625 37.40625 45.984375 
Q 41.21875 48.96875 41.21875 54.296875 
Q 41.21875 59.90625 37.671875 62.90625 
Q 34.125 65.921875 27.59375 65.921875 
Q 23.25 65.921875 18.609375 64.9375 
Q 13.96875 63.96875 8.890625 62.015625 
L 8.890625 71.09375 
Q 14.796875 72.65625 19.40625 73.4375 
Q 24.03125 74.21875 27.59375 74.21875 
Q 38.234375 74.21875 44.609375 68.875 
Q 50.984375 63.53125 50.984375 54.6875 
Q 50.984375 48.6875 47.625 44.671875 
Q 44.28125 40.671875 37.890625 39.015625 
z
" id="DejaVuSansMono-51"/>
    </defs>
    <g transform="translate(101.437332 24.663313)scale(0.07 -0.07)">
     <use xlink:href="#DejaVuSansMono-116"/>
     <use x="60.205078" xlink:href="#DejaVuSansMono-104"/>
     <use x="120.410156" xlink:href="#DejaVuSansMono-114"/>
     <use x="180.615234" xlink:href="#DejaVuSansMono-101"/>
     <use x="240.820312" xlink:href="#DejaVuSansMono-115"/>
     <use x="301.025391" xlink:href="#DejaVuSansMono-104"/>
     <use x="361.230469" xlink:href="#DejaVuSansMono-111"/>
     <use x="421.435547" xlink:href="#DejaVuSansMono-108"/>
     <use x="481.640625" xlink:href="#DejaVuSansMono-100"/>
     <use x="541.845703" xlink:href="#DejaVuSansMono-95"/>
     <use x="602.050781" xlink:href="#DejaVuSansMono-109"/>
     <use x="662.255859" xlink:href="#DejaVuSansMono-97"/>
     <use x="722.460938" xlink:href="#DejaVuSansMono-120"/>
     <use x="782.666016" xlink:href="#DejaVuSansMono-95"/>
     <use x="842.871094" xlink:href="#DejaVuSansMono-100"/>
     <use x="903.076172" xlink:href="#DejaVuSansMono-101"/>
     <use x="963.28125" xlink:href="#DejaVuSansMono-110"/>
     <use x="1023.486328" xlink:href="#DejaVuSansMono-115"/>
     <use x="1083.691406" xlink:href="#DejaVuSansMono-105"/>
     <use x="1143.896484" xlink:href="#DejaVuSansMono-116"/>
     <use x="1204.101562" xlink:href="#DejaVuSansMono-121"/>
     <use x="1264.306641" xlink:href="#DejaVuSansMono-95"/>
     <use x="1324.511719" xlink:href="#DejaVuSansMono-72"/>
     <use x="1384.716797" xlink:href="#DejaVuSansMono-95"/>
     <use x="1444.921875" xlink:href="#DejaVuSansMono-112"/>
     <use x="1505.126953" xlink:href="#DejaVuSansMono-95"/>
     <use x="1565.332031" xlink:href="#DejaVuSansMono-99"/>
     <use x="1625.537109" xlink:href="#DejaVuSansMono-109"/>
     <use x="1685.742188" xlink:href="#DejaVuSansMono-51"/>
    </g>
   </g>
   <g id="text_15">
    <!-- threshold_norm_H_p_cm3 -->
    <g transform="translate(47.005332 96.930882)scale(0.07 -0.07)">
     <use xlink:href="#DejaVuSansMono-116"/>
     <use x="60.205078" xlink:href="#DejaVuSansMono-104"/>
     <use x="120.410156" xlink:href="#DejaVuSansMono-114"/>
     <use x="180.615234" xlink:href="#DejaVuSansMono-101"/>
     <use x="240.820312" xlink:href="#DejaVuSansMono-115"/>
     <use x="301.025391" xlink:href="#DejaVuSansMono-104"/>
     <use x="361.230469" xlink:href="#DejaVuSansMono-111"/>
     <use x="421.435547" xlink:href="#DejaVuSansMono-108"/>
     <use x="481.640625" xlink:href="#DejaVuSansMono-100"/>
     <use x="541.845703" xlink:href="#DejaVuSansMono-95"/>
     <use x="602.050781" xlink:href="#DejaVuSansMono-110"/>
     <use x="662.255859" xlink:href="#DejaVuSansMono-111"/>
     <use x="722.460938" xlink:href="#DejaVuSansMono-114"/>
     <use x="782.666016" xlink:href="#DejaVuSansMono-109"/>
     <use x="842.871094" xlink:href="#DejaVuSansMono-95"/>
     <use x="903.076172" xlink:href="#DejaVuSansMono-72"/>
     <use x="963.28125" xlink:href="#DejaVuSansMono-95"/>
     <use x="1023.486328" xlink:href="#DejaVuSansMono-112"/>
     <use x="1083.691406" xlink:href="#DejaVuSansMono-95"/>
     <use x="1143.896484" xlink:href="#DejaVuSansMono-99"/>
     <use x="1204.101562" xlink:href="#DejaVuSansMono-109"/>
     <use x="1264.306641" xlink:href="#DejaVuSansMono-51"/>
    </g>
   </g>
   <g id="text_16">
    <!-- threshold_Z0 -->
    <defs>
     <path d="M 23.578125 36.625 
Q 23.578125 39.3125 25.453125 41.265625 
Q 27.34375 43.21875 29.984375 43.21875 
Q 32.71875 43.21875 34.671875 41.265625 
Q 36.625 39.3125 36.625 36.625 
Q 36.625 33.890625 34.6875 31.984375 
Q 32.765625 30.078125 29.984375 30.078125 
Q 27.25 30.078125 25.40625 31.9375 
Q 23.578125 33.796875 23.578125 36.625 
z
M 30.078125 66.40625 
Q 23.1875 66.40625 19.796875 58.984375 
Q 16.40625 51.5625 16.40625 36.375 
Q 16.40625 21.234375 19.796875 13.8125 
Q 23.1875 6.390625 30.078125 6.390625 
Q 37.015625 6.390625 40.40625 13.8125 
Q 43.796875 21.234375 43.796875 36.375 
Q 43.796875 51.5625 40.40625 58.984375 
Q 37.015625 66.40625 30.078125 66.40625 
z
M 30.078125 74.21875 
Q 41.75 74.21875 47.734375 64.640625 
Q 53.71875 55.078125 53.71875 36.375 
Q 53.71875 17.71875 47.734375 8.140625 
Q 41.75 -1.421875 30.078125 -1.421875 
Q 18.40625 -1.421875 12.453125 8.140625 
Q 6.5 17.71875 6.5 36.375 
Q 6.5 55.078125 12.453125 64.640625 
Q 18.40625 74.21875 30.078125 74.21875 
z
" id="DejaVuSansMono-48"/>
    </defs>
    <g transform="translate(148.181028 186.438647)rotate(-90)scale(0.07 -0.07)">
     <use xlink:href="#DejaVuSansMono-116"/>
     <use x="60.205078" xlink:href="#DejaVuSansMono-104"/>
     <use x="120.410156" xlink:href="#DejaVuSansMono-114"/>
     <use x="180.615234" xlink:href="#DejaVuSansMono-101"/>
     <use x="240.820312" xlink:href="#DejaVuSansMono-115"/>
     <use x="301.025391" xlink:href="#DejaVuSansMono-104"/>
     <use x="361.230469" xlink:href="#DejaVuSansMono-111"/>
     <use x="421.435547" xlink:href="#DejaVuSansMono-108"/>
     <use x="481.640625" xlink:href="#DejaVuSansMono-100"/>
     <use x="541.845703" xlink:href="#DejaVuSansMono-95"/>
     <use x="602.050781" xlink:href="#DejaVuSansMono-90"/>
     <use x="662.255859" xlink:href="#DejaVuSansMono-48"/>
    </g>
   </g>
  </g>
 </g>
 <defs>
  <clipPath id="p23ab05f3c8">
   <rect height="195.048" width="190.512" x="34.02" y="2.268"/>
  </clipPath>
 </defs>
</svg>
