<?xml version="1.0" encoding="utf-8" standalone="no"?>
<!DOCTYPE svg PUBLIC "-//W3C//DTD SVG 1.1//EN"
  "http://www.w3.org/Graphics/SVG/1.1/DTD/svg11.dtd">
<!-- Created with matplotlib (http://matplotlib.org/) -->
<svg height="226pt" version="1.1" viewBox="0 0 226 226" width="226pt" xmlns="http://www.w3.org/2000/svg" xmlns:xlink="http://www.w3.org/1999/xlink">
 <defs>
  <style type="text/css">
*{stroke-linecap:butt;stroke-linejoin:round;}
  </style>
 </defs>
 <g id="figure_1">
  <g id="patch_1">
   <path d="M 0 226.8 
L 226.8 226.8 
L 226.8 0 
L 0 0 
z
" style="fill:#ffffff;"/>
  </g>
  <g id="axes_1">
   <g id="patch_2">
    <path d="M 34.02 197.316 
L 224.532 197.316 
L 224.532 2.268 
L 34.02 2.268 
z
" style="fill:#ffffff;"/>
   </g>
   <g id="PolyCollection_1">
    <defs>
     <path d="M 77.714425 -156.365649 
L 77.714425 -14.805175 
L 250.907152 -14.805175 
L 250.907152 -156.365649 
L 250.907152 -156.365649 
L 77.714425 -156.365649 
z
" id="m8f9d87720a" style="stroke:#e6e6e6;"/>
    </defs>
    <g clip-path="url(#p107a2e5a22)">
     <use style="fill:#e6e6e6;stroke:#e6e6e6;" x="0" xlink:href="#m8f9d87720a" y="226.8"/>
    </g>
   </g>
   <g id="PolyCollection_2">
    <path clip-path="url(#p107a2e5a22)" d="M 146.991516 49022.756825 
L 146.991516 85.113175 
L 250.907152 -12.410825 
L 250.907152 49022.756825 
L 250.907152 49022.756825 
L 146.991516 49022.756825 
z
" style="fill:#e6e6e6;stroke:#e6e6e6;"/>
   </g>
   <g id="PathCollection_1">
    <defs>
     <path d="M 0 1 
C 0.265203 1 0.51958 0.894634 0.707107 0.707107 
C 0.894634 0.51958 1 0.265203 1 0 
C 1 -0.265203 0.894634 -0.51958 0.707107 -0.707107 
C 0.51958 -0.894634 0.265203 -1 0 -1 
C -0.265203 -1 -0.51958 -0.894634 -0.707107 -0.707107 
C -0.894634 -0.51958 -1 -0.265203 -1 0 
C -1 0.265203 -0.894634 0.51958 -0.707107 0.707107 
C -0.51958 0.894634 -0.265203 1 0 1 
z
" id="me37d9803e9" style="stroke:#000000;"/>
    </defs>
    <g clip-path="url(#p107a2e5a22)">
     <use style="stroke:#000000;" x="77.714425" xlink:href="#me37d9803e9" y="70.434351"/>
    </g>
   </g>
   <g id="PathCollection_2">
    <g clip-path="url(#p107a2e5a22)">
     <use style="stroke:#000000;" x="146.991516" xlink:href="#me37d9803e9" y="85.113175"/>
    </g>
   </g>
   <g id="matplotlib.axis_1">
    <g id="xtick_1">
     <g id="line2d_1">
      <defs>
       <path d="M 0 0 
L 0 3.5 
" id="mddab006ef2" style="stroke:#000000;stroke-width:0.8;"/>
      </defs>
      <g>
       <use style="stroke:#000000;stroke-width:0.8;" x="60.395152" xlink:href="#mddab006ef2" y="197.316"/>
      </g>
     </g>
     <g id="text_1">
      <!-- $10^{-6}$ -->
      <defs>
       <path d="M 29.09375 67.796875 
L 11.09375 58.703125 
L 11.09375 57.296875 
C 12.296875 57.796875 13.40625 58.203125 13.796875 58.40625 
C 15.59375 59.109375 17.296875 59.5 18.296875 59.5 
C 20.40625 59.5 21.296875 57.984375 21.296875 54.765625 
L 21.296875 9.25 
C 21.296875 5.921875 20.5 3.625 18.90625 2.703125 
C 17.40625 1.8125 16 1.5 11.796875 1.5 
L 11.796875 0 
L 39.40625 0 
L 39.40625 1.5 
C 31.5 1.5 29.90625 2.5 29.90625 7.34375 
L 29.90625 67.609375 
z
" id="Nimbus_Roman_No9_L_Regular-49"/>
       <path d="M 25.40625 68 
C 19.90625 68 15.703125 66.3125 12 62.8125 
C 6.203125 57.203125 2.40625 45.703125 2.40625 34 
C 2.40625 23.109375 5.703125 11.40625 10.40625 5.8125 
C 14.09375 1.40625 19.203125 -1 25 -1 
C 30.09375 -1 34.40625 0.703125 38 4.203125 
C 43.796875 9.703125 47.59375 21.3125 47.59375 33.40625 
C 47.59375 53.90625 38.5 68 25.40625 68 
z
M 25.09375 65.40625 
C 33.5 65.40625 38 54.109375 38 33.203125 
C 38 12.3125 33.59375 1.609375 25 1.609375 
C 16.40625 1.609375 12 12.3125 12 33.109375 
C 12 54.3125 16.5 65.40625 25.09375 65.40625 
z
" id="Nimbus_Roman_No9_L_Regular-48"/>
       <path d="M 65.90625 23 
C 67.59375 23 69.40625 23 69.40625 25 
C 69.40625 27 67.59375 27 65.90625 27 
L 11.796875 27 
C 10.09375 27 8.296875 27 8.296875 25 
C 8.296875 23 10.09375 23 11.796875 23 
z
" id="CMSY10-0"/>
       <path d="M 44.59375 68.609375 
C 33.203125 67.609375 27.40625 65.703125 20.09375 60.609375 
C 9.296875 52.90625 3.40625 41.5 3.40625 28.15625 
C 3.40625 19.5 6.09375 10.75 10.40625 5.78125 
C 14.203125 1.390625 19.59375 -1 25.796875 -1 
C 38.203125 -1 46.796875 8.453125 46.796875 22.203125 
C 46.796875 34.9375 39.5 43 28 43 
C 23.59375 43 21.5 42.296875 15.203125 38.5 
C 17.90625 53.609375 29.09375 64.40625 44.796875 67 
z
M 24.203125 38.40625 
C 32.796875 38.40625 37.796875 31.25 37.796875 18.8125 
C 37.796875 7.875 33.90625 1.8125 26.90625 1.8125 
C 18.09375 1.8125 12.703125 11.15625 12.703125 26.5625 
C 12.703125 31.640625 13.5 34.421875 15.5 35.921875 
C 17.59375 37.5 20.703125 38.40625 24.203125 38.40625 
z
" id="Nimbus_Roman_No9_L_Regular-54"/>
      </defs>
      <g transform="translate(50.706631 211.234498)scale(0.1 -0.1)">
       <use transform="scale(0.996264)" xlink:href="#Nimbus_Roman_No9_L_Regular-49"/>
       <use transform="translate(49.8132 0)scale(0.996264)" xlink:href="#Nimbus_Roman_No9_L_Regular-48"/>
       <use transform="translate(99.626401 36.163231)scale(0.737241)" xlink:href="#CMSY10-0"/>
       <use transform="translate(156.909271 36.163231)scale(0.737241)" xlink:href="#Nimbus_Roman_No9_L_Regular-54"/>
      </g>
     </g>
    </g>
    <g id="xtick_2">
     <g id="line2d_2">
      <g>
       <use style="stroke:#000000;stroke-width:0.8;" x="95.033698" xlink:href="#mddab006ef2" y="197.316"/>
      </g>
     </g>
     <g id="text_2">
      <!-- $10^{-4}$ -->
      <defs>
       <path d="M 47.203125 23.390625 
L 37 23.390625 
L 37 68 
L 32.59375 68 
L 1.203125 23.390625 
L 1.203125 17 
L 29.296875 17 
L 29.296875 0.5 
L 37 0.5 
L 37 17 
L 47.203125 17 
z
M 29.203125 23.390625 
L 5.203125 23.390625 
L 29.203125 57.78125 
z
" id="Nimbus_Roman_No9_L_Regular-52"/>
      </defs>
      <g transform="translate(85.345176 211.234498)scale(0.1 -0.1)">
       <use transform="scale(0.996264)" xlink:href="#Nimbus_Roman_No9_L_Regular-49"/>
       <use transform="translate(49.8132 0)scale(0.996264)" xlink:href="#Nimbus_Roman_No9_L_Regular-48"/>
       <use transform="translate(99.626401 36.163231)scale(0.737241)" xlink:href="#CMSY10-0"/>
       <use transform="translate(156.909271 36.163231)scale(0.737241)" xlink:href="#Nimbus_Roman_No9_L_Regular-52"/>
      </g>
     </g>
    </g>
    <g id="xtick_3">
     <g id="line2d_3">
      <g>
       <use style="stroke:#000000;stroke-width:0.8;" x="129.672243" xlink:href="#mddab006ef2" y="197.316"/>
      </g>
     </g>
     <g id="text_3">
      <!-- $10^{-2}$ -->
      <defs>
       <path d="M 47.5 13.671875 
L 46.203125 14.171875 
C 42.5 8.5 41.203125 7.59375 36.703125 7.59375 
L 12.796875 7.59375 
L 29.59375 25.140625 
C 38.5 34.40625 42.40625 41.984375 42.40625 49.765625 
C 42.40625 59.734375 34.296875 67.390625 23.90625 67.390625 
C 18.40625 67.390625 13.203125 65.203125 9.5 61.21875 
C 6.296875 57.8125 4.796875 54.625 3.09375 47.546875 
L 5.203125 47.046875 
C 9.203125 56.8125 12.796875 60 19.703125 60 
C 28.09375 60 33.796875 54.3125 33.796875 45.9375 
C 33.796875 38.171875 29.203125 28.90625 20.796875 20.03125 
L 3 1.203125 
L 3 0 
L 42 0 
z
" id="Nimbus_Roman_No9_L_Regular-50"/>
      </defs>
      <g transform="translate(119.983722 211.234498)scale(0.1 -0.1)">
       <use transform="scale(0.996264)" xlink:href="#Nimbus_Roman_No9_L_Regular-49"/>
       <use transform="translate(49.8132 0)scale(0.996264)" xlink:href="#Nimbus_Roman_No9_L_Regular-48"/>
       <use transform="translate(99.626401 36.163231)scale(0.737241)" xlink:href="#CMSY10-0"/>
       <use transform="translate(156.909271 36.163231)scale(0.737241)" xlink:href="#Nimbus_Roman_No9_L_Regular-50"/>
      </g>
     </g>
    </g>
    <g id="xtick_4">
     <g id="line2d_4">
      <g>
       <use style="stroke:#000000;stroke-width:0.8;" x="164.310789" xlink:href="#mddab006ef2" y="197.316"/>
      </g>
     </g>
     <g id="text_4">
      <!-- $10^{0}$ -->
      <g transform="translate(157.486382 211.234498)scale(0.1 -0.1)">
       <use transform="scale(0.996264)" xlink:href="#Nimbus_Roman_No9_L_Regular-49"/>
       <use transform="translate(49.8132 0)scale(0.996264)" xlink:href="#Nimbus_Roman_No9_L_Regular-48"/>
       <use transform="translate(99.626401 36.163231)scale(0.737241)" xlink:href="#Nimbus_Roman_No9_L_Regular-48"/>
      </g>
     </g>
    </g>
    <g id="xtick_5">
     <g id="line2d_5">
      <g>
       <use style="stroke:#000000;stroke-width:0.8;" x="198.949334" xlink:href="#mddab006ef2" y="197.316"/>
      </g>
     </g>
     <g id="text_5">
      <!-- $10^{2}$ -->
      <g transform="translate(192.124927 211.234498)scale(0.1 -0.1)">
       <use transform="scale(0.996264)" xlink:href="#Nimbus_Roman_No9_L_Regular-49"/>
       <use transform="translate(49.8132 0)scale(0.996264)" xlink:href="#Nimbus_Roman_No9_L_Regular-48"/>
       <use transform="translate(99.626401 36.163231)scale(0.737241)" xlink:href="#Nimbus_Roman_No9_L_Regular-50"/>
      </g>
     </g>
    </g>
    <g id="text_6">
     <!-- ${\rm Density}~n_{\rm H}~[{\rm cm^{-3}}]$ -->
     <defs>
      <path d="M 10.40625 10.609375 
C 10.40625 3.390625 9.203125 2.09375 1.59375 2.09375 
L 1.59375 0 
L 30 0 
C 41.59375 0 52.09375 3.28125 58.296875 8.875 
C 64.796875 14.75 68.5 23.625 68.5 33.296875 
C 68.5 42.28125 65.5 50.046875 60 55.53125 
C 53.203125 62.40625 42.296875 66 28.59375 66 
L 1.59375 66 
L 1.59375 64.09375 
C 9.5 63.390625 10.40625 62.5 10.40625 55.078125 
z
M 20.59375 58.40625 
C 20.59375 61.5 21.703125 62.296875 25.796875 62.296875 
C 34.40625 62.296875 40.90625 60.703125 45.703125 57.3125 
C 53.5 51.921875 57.59375 43.359375 57.59375 32.609375 
C 57.59375 20.84375 53.5 12.46875 45.40625 7.78125 
C 40.296875 4.90625 34.5 3.703125 25.796875 3.703125 
C 21.796875 3.703125 20.59375 4.59375 20.59375 7.78125 
z
" id="Nimbus_Roman_No9_L_Regular-68"/>
      <path d="M 40.796875 16.453125 
C 36 8.8125 31.703125 5.90625 25.296875 5.90625 
C 19.59375 5.90625 15.296875 8.8125 12.40625 14.53125 
C 10.59375 18.34375 9.90625 21.65625 9.703125 27.796875 
L 40.5 27.796875 
C 39.703125 34.265625 38.703125 37.140625 36.203125 40.328125 
C 33.203125 43.921875 28.59375 46 23.40625 46 
C 18.40625 46 13.703125 44.203125 9.90625 40.796875 
C 5.203125 36.703125 2.5 29.59375 2.5 21.40625 
C 2.5 7.59375 9.703125 -1 21.203125 -1 
C 30.703125 -1 38.203125 4.921875 42.40625 15.75 
z
M 9.90625 31 
C 11 38.734375 14.40625 42.40625 20.5 42.40625 
C 26.59375 42.40625 29 39.609375 30.296875 31 
z
" id="Nimbus_Roman_No9_L_Regular-101"/>
      <path d="M 1.59375 40.296875 
C 2.203125 40.59375 3.203125 40.703125 4.296875 40.703125 
C 7.09375 40.703125 8 39.203125 8 34.296875 
L 8 9.5 
C 8 3.796875 6.90625 2.40625 1.796875 2 
L 1.796875 0.5 
L 23 0.5 
L 23 2 
C 17.90625 2.40625 16.40625 3.59375 16.40625 7.203125 
L 16.40625 35.296875 
C 21.203125 39.796875 23.40625 41 26.703125 41 
C 31.59375 41 34 37.90625 34 31.296875 
L 34 10.40625 
C 34 4.09375 32.703125 2.40625 27.703125 2 
L 27.703125 0.5 
L 48.5 0.5 
L 48.5 2 
C 43.59375 2.5 42.40625 3.703125 42.40625 8.59375 
L 42.40625 31.5 
C 42.40625 40.90625 38 46.5 30.59375 46.5 
C 26 46.5 22.90625 44.796875 16.09375 38.40625 
L 16.09375 46.296875 
L 15.40625 46.5 
C 10.5 44.703125 7.09375 43.59375 1.59375 42 
z
" id="Nimbus_Roman_No9_L_Regular-110"/>
      <path d="M 31.5 31.40625 
L 31.09375 45 
L 30 45 
L 29.796875 44.796875 
C 28.90625 44.09375 28.796875 44 28.40625 44 
C 27.796875 44 26.796875 44.203125 25.703125 44.703125 
C 23.5 45.546875 21.296875 46 18.703125 46 
C 10.796875 46 5.09375 40.875 5.09375 33.65625 
C 5.09375 28.0625 8.296875 24.046875 16.796875 19.234375 
L 22.59375 15.9375 
C 26.09375 13.9375 27.796875 11.515625 27.796875 8.421875 
C 27.796875 4 24.59375 1.203125 19.5 1.203125 
C 16.09375 1.203125 13 2.484375 11.09375 4.65625 
C 9 7.109375 8.09375 9.375 6.796875 15 
L 5.203125 15 
L 5.203125 -0.609375 
L 6.5 -0.609375 
C 7.203125 0.515625 7.59375 0.75 8.796875 0.75 
C 9.703125 0.75 11.09375 0.546875 13.40625 -0.03125 
C 16.203125 -0.609375 18.90625 -1 20.703125 -1 
C 28.40625 -1 34.796875 4.8125 34.796875 11.828125 
C 34.796875 16.828125 32.40625 20.140625 26.40625 23.75 
L 15.59375 30.15625 
C 12.796875 31.765625 11.296875 34.28125 11.296875 36.984375 
C 11.296875 41 14.40625 43.796875 19 43.796875 
C 24.703125 43.796875 27.703125 40.359375 30 31.40625 
z
" id="Nimbus_Roman_No9_L_Regular-115"/>
      <path d="M 17.5 45.765625 
L 2 40.296875 
L 2 38.8125 
L 2.796875 38.90625 
C 4 39.09375 5.296875 39.203125 6.203125 39.203125 
C 8.59375 39.203125 9.5 37.59375 9.5 33.203125 
L 9.5 10 
C 9.5 2.796875 8.5 1.703125 1.59375 1.703125 
L 1.59375 0 
L 25.296875 0 
L 25.296875 1.5 
C 18.703125 2 17.90625 2.984375 17.90625 10.15625 
L 17.90625 45.46875 
z
M 12.796875 68 
C 10.09375 68 7.796875 65.703125 7.796875 62.90625 
C 7.796875 60.109375 10 57.796875 12.796875 57.796875 
C 15.703125 57.796875 18 60 18 62.90625 
C 18 65.703125 15.703125 68 12.796875 68 
z
" id="Nimbus_Roman_No9_L_Regular-105"/>
      <path d="M 25.5 45 
L 15.40625 45 
L 15.40625 56.59375 
C 15.40625 57.59375 15.296875 57.90625 14.703125 57.90625 
C 14 57 13.40625 56.09375 12.703125 55.09375 
C 8.90625 49.59375 4.59375 44.796875 3 44.390625 
C 1.90625 43.65625 1.296875 42.9375 1.296875 42.421875 
C 1.296875 42.109375 1.40625 41.90625 1.703125 41.90625 
L 7 41.90625 
L 7 11.734375 
C 7 3.3125 10 -1 15.90625 -1 
C 20.796875 -1 24.59375 1.40625 27.90625 6.609375 
L 26.59375 7.703125 
C 24.5 5.203125 22.796875 4.203125 20.59375 4.203125 
C 16.90625 4.203125 15.40625 6.921875 15.40625 13.234375 
L 15.40625 41.90625 
L 25.5 41.90625 
z
" id="Nimbus_Roman_No9_L_Regular-116"/>
      <path d="M 47.5 45 
L 34 45 
L 34 43.5 
C 37.203125 43.5 38.796875 42.59375 38.796875 40.984375 
C 38.796875 40.578125 38.703125 39.984375 38.40625 39.28125 
L 28.703125 11.59375 
L 17.203125 37.140625 
C 16.59375 38.5625 16.203125 39.875 16.203125 40.96875 
C 16.203125 42.796875 17.703125 43.5 22 43.5 
L 22 45 
L 1.40625 45 
L 1.40625 43.59375 
C 4 43.203125 5.703125 42.09375 6.5 40.390625 
L 17.90625 15.703125 
L 18.203125 14.890625 
L 19.703125 11.890625 
C 22.5 6.875 24.09375 3.265625 24.09375 1.75 
C 24.09375 0.25 21.796875 -6.078125 20.09375 -9.09375 
C 18.703125 -11.703125 16.5 -13.609375 15.09375 -13.609375 
C 14.5 -13.609375 13.59375 -13.40625 12.59375 -12.90625 
C 10.703125 -12.203125 9 -11.796875 7.296875 -11.796875 
C 5 -11.796875 3 -13.796875 3 -16.203125 
C 3 -19.5 6.203125 -22 10.40625 -22 
C 17.09375 -22 21.90625 -16.390625 27.296875 -1.9375 
L 42.703125 38.984375 
C 44 42.203125 45.09375 43.203125 47.5 43.5 
z
" id="Nimbus_Roman_No9_L_Regular-121"/>
      <path d="M 46 11.546875 
L 43.90625 8.9375 
C 41 5.234375 39.203125 3.625 37.796875 3.625 
C 37 3.625 36.203125 4.421875 36.203125 5.21875 
C 36.203125 5.9375 36.203125 5.9375 37.59375 11.53125 
L 43.296875 32.1875 
C 43.796875 34.28125 44.203125 36.484375 44.203125 37.890625 
C 44.203125 41.5 41.5 44 37.59375 44 
C 31.203125 44 24.90625 38 14.59375 21.96875 
L 21.296875 43.796875 
L 21 43.984375 
C 15.59375 42.890625 13.5 42.5 4.796875 40.90625 
L 4.796875 39.21875 
C 9.90625 39.21875 11.203125 38.625 11.203125 36.609375 
C 11.203125 36 11.09375 35.40625 11 34.90625 
L 1.40625 -0.1875 
L 8.90625 -0.1875 
C 13.59375 15.65625 14.5 17.875 18.90625 24.6875 
C 24.90625 33.890625 30 38.921875 33.703125 38.921875 
C 35.203125 38.921875 36.09375 37.8125 36.09375 36 
C 36.09375 34.8125 35.5 31.5 34.703125 28.390625 
L 30.296875 11.84375 
C 29 6.734375 28.703125 5.328125 28.703125 4.328125 
C 28.703125 0.515625 30.09375 -1.078125 33.40625 -1.078125 
C 37.90625 -1.078125 40.5 1.03125 47.40625 10.25 
z
" id="Nimbus_Roman_No9_L_Regular_Italic-110"/>
      <path d="M 20.90625 36 
L 20.90625 55.203125 
C 20.90625 62.34375 22 63.421875 29.703125 64.125 
L 29.703125 66 
L 1.90625 66 
L 1.90625 64.125 
C 9.59375 63.421875 10.703125 62.328125 10.703125 55.109375 
L 10.703125 11.703125 
C 10.703125 3.28125 9.703125 2.09375 1.90625 2.09375 
L 1.90625 0 
L 29.703125 0 
L 29.703125 1.890625 
C 22.203125 2.484375 20.90625 3.78125 20.90625 10.921875 
L 20.90625 31.59375 
L 51.203125 31.59375 
L 51.203125 11.828125 
C 51.203125 3.296875 50.203125 2.09375 42.40625 2.09375 
L 42.40625 0 
L 70.203125 0 
L 70.203125 1.890625 
C 62.703125 2.484375 61.40625 3.78125 61.40625 10.875 
L 61.40625 55.140625 
C 61.40625 62.328125 62.5 63.421875 70.203125 64.125 
L 70.203125 66 
L 42.40625 66 
L 42.40625 64.125 
C 50.09375 63.421875 51.203125 62.34375 51.203125 55.203125 
L 51.203125 36 
z
" id="Nimbus_Roman_No9_L_Regular-72"/>
      <path d="M 25.5 -25 
L 25.5 -20.984375 
L 15.796875 -20.984375 
L 15.796875 71 
L 25.5 71 
L 25.5 75.015625 
L 11.796875 75.015625 
L 11.796875 -25 
z
" id="CMR10-91"/>
      <path d="M 39.796875 15.59375 
C 35 8.59375 31.40625 6.203125 25.703125 6.203125 
C 16.59375 6.203125 10.203125 14.203125 10.203125 25.703125 
C 10.203125 36 15.703125 43.09375 23.796875 43.09375 
C 27.40625 43.09375 28.703125 42 29.703125 38.296875 
L 30.296875 36.09375 
C 31.09375 33.296875 32.90625 31.5 35 31.5 
C 37.59375 31.5 39.796875 33.40625 39.796875 35.703125 
C 39.796875 41.296875 32.796875 46 24.40625 46 
C 19.5 46 14.40625 44 10.296875 40.40625 
C 5.296875 36 2.5 29.203125 2.5 21.296875 
C 2.5 8.296875 10.40625 -1 21.5 -1 
C 26 -1 30 0.59375 33.59375 3.703125 
C 36.296875 6.09375 38.203125 8.796875 41.203125 14.703125 
z
" id="Nimbus_Roman_No9_L_Regular-99"/>
      <path d="M 1.90625 39.796875 
C 3.203125 40.09375 4 40.203125 5.09375 40.203125 
C 7.703125 40.203125 8.59375 38.59375 8.59375 33.78125 
L 8.59375 8.421875 
C 8.59375 3 7.203125 1.5 1.59375 1.5 
L 1.59375 0 
L 23.796875 0 
L 23.796875 1.5 
C 18.5 1.5 17 2.59375 17 6.53125 
L 17 34.90625 
C 17 35.09375 17.796875 36.09375 18.5 36.796875 
C 21 39.09375 25.296875 40.796875 28.796875 40.796875 
C 33.203125 40.796875 35.40625 37.265625 35.40625 30.1875 
L 35.40625 8.25 
C 35.40625 2.609375 34.296875 1.5 28.59375 1.5 
L 28.59375 0 
L 51 0 
L 51 1.5 
C 45.296875 1.5 43.796875 3.203125 43.796875 9.421875 
L 43.796875 34.703125 
C 46.796875 39 50.09375 40.796875 54.703125 40.796875 
C 60.40625 40.796875 62.203125 38.09375 62.203125 29.796875 
L 62.203125 8.703125 
C 62.203125 3 61.40625 2.203125 55.59375 1.5 
L 55.59375 0 
L 77.5 0 
L 77.5 1.5 
L 74.90625 1.796875 
C 71.90625 1.796875 70.59375 3.59375 70.59375 7.5 
L 70.59375 28.15625 
C 70.59375 39.984375 66.703125 46 59 46 
C 53.203125 46 48.09375 43.40625 42.703125 37.609375 
C 40.90625 43.296875 37.5 46 32.09375 46 
C 27.703125 46 24.90625 44.59375 16.59375 38.296875 
L 16.59375 45.796875 
L 15.90625 46 
C 10.796875 44.09375 7.40625 43 1.90625 41.5 
z
" id="Nimbus_Roman_No9_L_Regular-109"/>
      <path d="M 15.296875 33.40625 
C 21.203125 33.40625 23.5 33.203125 25.90625 32.3125 
C 32.09375 30.109375 36 24.40625 36 17.5 
C 36 9.109375 30.296875 2.609375 22.90625 2.609375 
C 20.203125 2.609375 18.203125 3.3125 14.5 5.703125 
C 11.5 7.5 9.796875 8.203125 8.09375 8.203125 
C 5.796875 8.203125 4.296875 6.8125 4.296875 4.703125 
C 4.296875 1.203125 8.59375 -1 15.59375 -1 
C 23.296875 -1 31.203125 1.609375 35.90625 5.703125 
C 40.59375 9.8125 43.203125 15.609375 43.203125 22.3125 
C 43.203125 27.40625 41.59375 32.109375 38.703125 35.203125 
C 36.703125 37.40625 34.796875 38.609375 30.40625 40.5 
C 37.296875 45.203125 39.796875 48.90625 39.796875 54.3125 
C 39.796875 62.40625 33.40625 68 24.203125 68 
C 19.203125 68 14.796875 66.3125 11.203125 63.109375 
C 8.203125 60.40625 6.703125 57.796875 4.5 51.796875 
L 6 51.40625 
C 10.09375 58.703125 14.59375 62 20.90625 62 
C 27.40625 62 31.90625 57.609375 31.90625 51.3125 
C 31.90625 47.703125 30.40625 44.109375 27.90625 41.609375 
C 24.90625 38.609375 22.09375 37.109375 15.296875 34.703125 
z
" id="Nimbus_Roman_No9_L_Regular-51"/>
      <path d="M 15.90625 75.015625 
L 2.203125 75.015625 
L 2.203125 71 
L 11.90625 71 
L 11.90625 -20.984375 
L 2.203125 -20.984375 
L 2.203125 -25 
L 15.90625 -25 
z
" id="CMR10-93"/>
     </defs>
     <g transform="translate(91.250474 222.339856)scale(0.1 -0.1)">
      <use transform="translate(0 15.050129)scale(0.996264)" xlink:href="#Nimbus_Roman_No9_L_Regular-68"/>
      <use transform="translate(71.929985 15.050129)scale(0.996264)" xlink:href="#Nimbus_Roman_No9_L_Regular-101"/>
      <use transform="translate(116.163554 15.050129)scale(0.996264)" xlink:href="#Nimbus_Roman_No9_L_Regular-110"/>
      <use transform="translate(165.976754 15.050129)scale(0.996264)" xlink:href="#Nimbus_Roman_No9_L_Regular-115"/>
      <use transform="translate(204.73046 15.050129)scale(0.996264)" xlink:href="#Nimbus_Roman_No9_L_Regular-105"/>
      <use transform="translate(232.42563 15.050129)scale(0.996264)" xlink:href="#Nimbus_Roman_No9_L_Regular-116"/>
      <use transform="translate(260.120799 15.050129)scale(0.996264)" xlink:href="#Nimbus_Roman_No9_L_Regular-121"/>
      <use transform="translate(341.163113 15.050129)scale(0.996264)" xlink:href="#Nimbus_Roman_No9_L_Regular_Italic-110"/>
      <use transform="translate(390.976313 0)scale(0.737241)" xlink:href="#Nimbus_Roman_No9_L_Regular-72"/>
      <use transform="translate(475.932143 15.050129)scale(0.996264)" xlink:href="#CMR10-91"/>
      <use transform="translate(503.52765 15.050129)scale(0.996264)" xlink:href="#Nimbus_Roman_No9_L_Regular-99"/>
      <use transform="translate(547.761218 15.050129)scale(0.996264)" xlink:href="#Nimbus_Roman_No9_L_Regular-109"/>
      <use transform="translate(625.269588 51.213361)scale(0.737241)" xlink:href="#CMSY10-0"/>
      <use transform="translate(682.552458 51.213361)scale(0.737241)" xlink:href="#Nimbus_Roman_No9_L_Regular-51"/>
      <use transform="translate(719.912632 15.050129)scale(0.996264)" xlink:href="#CMR10-93"/>
     </g>
    </g>
   </g>
   <g id="matplotlib.axis_2">
    <g id="ytick_1">
     <g id="line2d_6">
      <defs>
       <path d="M 0 0 
L -3.5 0 
" id="mec8c027021" style="stroke:#000000;stroke-width:0.8;"/>
      </defs>
      <g>
       <use style="stroke:#000000;stroke-width:0.8;" x="34.02" xlink:href="#mec8c027021" y="163.232825"/>
      </g>
     </g>
     <g id="text_7">
      <!-- $10^{2}$ -->
      <g transform="translate(13.371186 166.692074)scale(0.1 -0.1)">
       <use transform="scale(0.996264)" xlink:href="#Nimbus_Roman_No9_L_Regular-49"/>
       <use transform="translate(49.8132 0)scale(0.996264)" xlink:href="#Nimbus_Roman_No9_L_Regular-48"/>
       <use transform="translate(99.626401 36.163231)scale(0.737241)" xlink:href="#Nimbus_Roman_No9_L_Regular-50"/>
      </g>
     </g>
    </g>
    <g id="ytick_2">
     <g id="line2d_7">
      <g>
       <use style="stroke:#000000;stroke-width:0.8;" x="34.02" xlink:href="#mec8c027021" y="114.470825"/>
      </g>
     </g>
     <g id="text_8">
      <!-- $10^{3}$ -->
      <g transform="translate(13.371186 117.930074)scale(0.1 -0.1)">
       <use transform="scale(0.996264)" xlink:href="#Nimbus_Roman_No9_L_Regular-49"/>
       <use transform="translate(49.8132 0)scale(0.996264)" xlink:href="#Nimbus_Roman_No9_L_Regular-48"/>
       <use transform="translate(99.626401 36.163231)scale(0.737241)" xlink:href="#Nimbus_Roman_No9_L_Regular-51"/>
      </g>
     </g>
    </g>
    <g id="ytick_3">
     <g id="line2d_8">
      <g>
       <use style="stroke:#000000;stroke-width:0.8;" x="34.02" xlink:href="#mec8c027021" y="65.708825"/>
      </g>
     </g>
     <g id="text_9">
      <!-- $10^{4}$ -->
      <g transform="translate(13.371186 69.168074)scale(0.1 -0.1)">
       <use transform="scale(0.996264)" xlink:href="#Nimbus_Roman_No9_L_Regular-49"/>
       <use transform="translate(49.8132 0)scale(0.996264)" xlink:href="#Nimbus_Roman_No9_L_Regular-48"/>
       <use transform="translate(99.626401 36.163231)scale(0.737241)" xlink:href="#Nimbus_Roman_No9_L_Regular-52"/>
      </g>
     </g>
    </g>
    <g id="ytick_4">
     <g id="line2d_9">
      <g>
       <use style="stroke:#000000;stroke-width:0.8;" x="34.02" xlink:href="#mec8c027021" y="16.946825"/>
      </g>
     </g>
     <g id="text_10">
      <!-- $10^{5}$ -->
      <defs>
       <path d="M 18.09375 59 
L 37.703125 59 
C 39.296875 59 39.703125 59.203125 40 59.90625 
L 43.796875 68.796875 
L 42.90625 69.5 
C 41.40625 67.40625 40.40625 66.90625 38.296875 66.90625 
L 17.40625 66.90625 
L 6.5 43.109375 
C 6.40625 42.90625 6.40625 42.8125 6.40625 42.609375 
C 6.40625 42.109375 6.796875 41.8125 7.59375 41.8125 
C 10.796875 41.8125 14.796875 41.109375 18.90625 39.796875 
C 30.40625 36.078125 35.703125 29.84375 35.703125 19.90625 
C 35.703125 10.25 29.59375 2.703125 21.796875 2.703125 
C 19.796875 2.703125 18.09375 3.40625 15.09375 5.625 
C 11.90625 7.9375 9.59375 8.9375 7.5 8.9375 
C 4.59375 8.9375 3.203125 7.734375 3.203125 5.21875 
C 3.203125 1.40625 7.90625 -1 15.40625 -1 
C 23.796875 -1 31 1.71875 36 6.84375 
C 40.59375 11.375 42.703125 17.09375 42.703125 24.734375 
C 42.703125 31.96875 40.796875 36.59375 35.796875 41.609375 
C 31.40625 46.046875 25.703125 48.34375 13.90625 50.453125 
z
" id="Nimbus_Roman_No9_L_Regular-53"/>
      </defs>
      <g transform="translate(13.371186 20.406074)scale(0.1 -0.1)">
       <use transform="scale(0.996264)" xlink:href="#Nimbus_Roman_No9_L_Regular-49"/>
       <use transform="translate(49.8132 0)scale(0.996264)" xlink:href="#Nimbus_Roman_No9_L_Regular-48"/>
       <use transform="translate(99.626401 36.163231)scale(0.737241)" xlink:href="#Nimbus_Roman_No9_L_Regular-53"/>
      </g>
     </g>
    </g>
    <g id="ytick_5">
     <g id="line2d_10">
      <defs>
       <path d="M 0 0 
L -2 0 
" id="mc0ad7d39b4" style="stroke:#000000;stroke-width:0.6;"/>
      </defs>
      <g>
       <use style="stroke:#000000;stroke-width:0.6;" x="34.02" xlink:href="#mc0ad7d39b4" y="197.316"/>
      </g>
     </g>
    </g>
    <g id="ytick_6">
     <g id="line2d_11">
      <g>
       <use style="stroke:#000000;stroke-width:0.6;" x="34.02" xlink:href="#mc0ad7d39b4" y="188.729438"/>
      </g>
     </g>
    </g>
    <g id="ytick_7">
     <g id="line2d_12">
      <g>
       <use style="stroke:#000000;stroke-width:0.6;" x="34.02" xlink:href="#mc0ad7d39b4" y="182.637175"/>
      </g>
     </g>
    </g>
    <g id="ytick_8">
     <g id="line2d_13">
      <g>
       <use style="stroke:#000000;stroke-width:0.6;" x="34.02" xlink:href="#mc0ad7d39b4" y="177.911649"/>
      </g>
     </g>
    </g>
    <g id="ytick_9">
     <g id="line2d_14">
      <g>
       <use style="stroke:#000000;stroke-width:0.6;" x="34.02" xlink:href="#mc0ad7d39b4" y="174.050613"/>
      </g>
     </g>
    </g>
    <g id="ytick_10">
     <g id="line2d_15">
      <g>
       <use style="stroke:#000000;stroke-width:0.6;" x="34.02" xlink:href="#mc0ad7d39b4" y="170.786154"/>
      </g>
     </g>
    </g>
    <g id="ytick_11">
     <g id="line2d_16">
      <g>
       <use style="stroke:#000000;stroke-width:0.6;" x="34.02" xlink:href="#mc0ad7d39b4" y="167.958351"/>
      </g>
     </g>
    </g>
    <g id="ytick_12">
     <g id="line2d_17">
      <g>
       <use style="stroke:#000000;stroke-width:0.6;" x="34.02" xlink:href="#mc0ad7d39b4" y="165.464051"/>
      </g>
     </g>
    </g>
    <g id="ytick_13">
     <g id="line2d_18">
      <g>
       <use style="stroke:#000000;stroke-width:0.6;" x="34.02" xlink:href="#mc0ad7d39b4" y="148.554"/>
      </g>
     </g>
    </g>
    <g id="ytick_14">
     <g id="line2d_19">
      <g>
       <use style="stroke:#000000;stroke-width:0.6;" x="34.02" xlink:href="#mc0ad7d39b4" y="139.967438"/>
      </g>
     </g>
    </g>
    <g id="ytick_15">
     <g id="line2d_20">
      <g>
       <use style="stroke:#000000;stroke-width:0.6;" x="34.02" xlink:href="#mc0ad7d39b4" y="133.875175"/>
      </g>
     </g>
    </g>
    <g id="ytick_16">
     <g id="line2d_21">
      <g>
       <use style="stroke:#000000;stroke-width:0.6;" x="34.02" xlink:href="#mc0ad7d39b4" y="129.149649"/>
      </g>
     </g>
    </g>
    <g id="ytick_17">
     <g id="line2d_22">
      <g>
       <use style="stroke:#000000;stroke-width:0.6;" x="34.02" xlink:href="#mc0ad7d39b4" y="125.288613"/>
      </g>
     </g>
    </g>
    <g id="ytick_18">
     <g id="line2d_23">
      <g>
       <use style="stroke:#000000;stroke-width:0.6;" x="34.02" xlink:href="#mc0ad7d39b4" y="122.024154"/>
      </g>
     </g>
    </g>
    <g id="ytick_19">
     <g id="line2d_24">
      <g>
       <use style="stroke:#000000;stroke-width:0.6;" x="34.02" xlink:href="#mc0ad7d39b4" y="119.196351"/>
      </g>
     </g>
    </g>
    <g id="ytick_20">
     <g id="line2d_25">
      <g>
       <use style="stroke:#000000;stroke-width:0.6;" x="34.02" xlink:href="#mc0ad7d39b4" y="116.702051"/>
      </g>
     </g>
    </g>
    <g id="ytick_21">
     <g id="line2d_26">
      <g>
       <use style="stroke:#000000;stroke-width:0.6;" x="34.02" xlink:href="#mc0ad7d39b4" y="99.792"/>
      </g>
     </g>
    </g>
    <g id="ytick_22">
     <g id="line2d_27">
      <g>
       <use style="stroke:#000000;stroke-width:0.6;" x="34.02" xlink:href="#mc0ad7d39b4" y="91.205438"/>
      </g>
     </g>
    </g>
    <g id="ytick_23">
     <g id="line2d_28">
      <g>
       <use style="stroke:#000000;stroke-width:0.6;" x="34.02" xlink:href="#mc0ad7d39b4" y="85.113175"/>
      </g>
     </g>
    </g>
    <g id="ytick_24">
     <g id="line2d_29">
      <g>
       <use style="stroke:#000000;stroke-width:0.6;" x="34.02" xlink:href="#mc0ad7d39b4" y="80.387649"/>
      </g>
     </g>
    </g>
    <g id="ytick_25">
     <g id="line2d_30">
      <g>
       <use style="stroke:#000000;stroke-width:0.6;" x="34.02" xlink:href="#mc0ad7d39b4" y="76.526613"/>
      </g>
     </g>
    </g>
    <g id="ytick_26">
     <g id="line2d_31">
      <g>
       <use style="stroke:#000000;stroke-width:0.6;" x="34.02" xlink:href="#mc0ad7d39b4" y="73.262154"/>
      </g>
     </g>
    </g>
    <g id="ytick_27">
     <g id="line2d_32">
      <g>
       <use style="stroke:#000000;stroke-width:0.6;" x="34.02" xlink:href="#mc0ad7d39b4" y="70.434351"/>
      </g>
     </g>
    </g>
    <g id="ytick_28">
     <g id="line2d_33">
      <g>
       <use style="stroke:#000000;stroke-width:0.6;" x="34.02" xlink:href="#mc0ad7d39b4" y="67.940051"/>
      </g>
     </g>
    </g>
    <g id="ytick_29">
     <g id="line2d_34">
      <g>
       <use style="stroke:#000000;stroke-width:0.6;" x="34.02" xlink:href="#mc0ad7d39b4" y="51.03"/>
      </g>
     </g>
    </g>
    <g id="ytick_30">
     <g id="line2d_35">
      <g>
       <use style="stroke:#000000;stroke-width:0.6;" x="34.02" xlink:href="#mc0ad7d39b4" y="42.443438"/>
      </g>
     </g>
    </g>
    <g id="ytick_31">
     <g id="line2d_36">
      <g>
       <use style="stroke:#000000;stroke-width:0.6;" x="34.02" xlink:href="#mc0ad7d39b4" y="36.351175"/>
      </g>
     </g>
    </g>
    <g id="ytick_32">
     <g id="line2d_37">
      <g>
       <use style="stroke:#000000;stroke-width:0.6;" x="34.02" xlink:href="#mc0ad7d39b4" y="31.625649"/>
      </g>
     </g>
    </g>
    <g id="ytick_33">
     <g id="line2d_38">
      <g>
       <use style="stroke:#000000;stroke-width:0.6;" x="34.02" xlink:href="#mc0ad7d39b4" y="27.764613"/>
      </g>
     </g>
    </g>
    <g id="ytick_34">
     <g id="line2d_39">
      <g>
       <use style="stroke:#000000;stroke-width:0.6;" x="34.02" xlink:href="#mc0ad7d39b4" y="24.500154"/>
      </g>
     </g>
    </g>
    <g id="ytick_35">
     <g id="line2d_40">
      <g>
       <use style="stroke:#000000;stroke-width:0.6;" x="34.02" xlink:href="#mc0ad7d39b4" y="21.672351"/>
      </g>
     </g>
    </g>
    <g id="ytick_36">
     <g id="line2d_41">
      <g>
       <use style="stroke:#000000;stroke-width:0.6;" x="34.02" xlink:href="#mc0ad7d39b4" y="19.178051"/>
      </g>
     </g>
    </g>
    <g id="ytick_37">
     <g id="line2d_42">
      <g>
       <use style="stroke:#000000;stroke-width:0.6;" x="34.02" xlink:href="#mc0ad7d39b4" y="2.268"/>
      </g>
     </g>
    </g>
    <g id="text_11">
     <!-- ${\rm Temperature}~T~[{\rm K}]$ -->
     <defs>
      <path d="M 25.40625 62 
L 25.40625 11.734375 
C 25.40625 3.1875 24.296875 2.09375 16 2.09375 
L 16 0 
L 45.203125 0 
L 45.203125 2.09375 
C 37 2.09375 35.59375 3.390625 35.59375 10.734375 
L 35.59375 62 
L 41 62 
C 52.40625 62 54.59375 60.203125 56.90625 49.203125 
L 59.296875 49.203125 
L 58.703125 66.203125 
L 2.296875 66.203125 
L 1.703125 49.203125 
L 4.09375 49.203125 
C 6.5 60.09375 8.796875 62 20 62 
z
" id="Nimbus_Roman_No9_L_Regular-84"/>
      <path d="M 0.90625 39.3125 
C 1.796875 39.40625 2.5 39.40625 3.40625 39.40625 
C 6.796875 39.40625 7.5 38.40625 7.5 33.671875 
L 7.5 -13.359375 
C 7.5 -18.578125 6.40625 -19.703125 0.5 -20.296875 
L 0.5 -22 
L 24.703125 -22 
L 24.703125 -20.203125 
C 17.203125 -20.203125 15.90625 -19.09375 15.90625 -12.75 
L 15.90625 3.109375 
C 19.40625 -0.203125 21.796875 -1.203125 26 -1.203125 
C 37.796875 -1.203125 47 10.046875 47 24.609375 
C 47 37.0625 40 46 30.296875 46 
C 24.703125 46 20.296875 43.5 15.90625 38.09375 
L 15.90625 45.796875 
L 15.296875 46 
C 9.90625 43.90625 6.40625 42.59375 0.90625 40.90625 
z
M 15.90625 33.375 
C 15.90625 36.390625 21.5 40 26.09375 40 
C 33.5 40 38.40625 32.359375 38.40625 20.6875 
C 38.40625 9.546875 33.5 2 26.296875 2 
C 21.59375 2 15.90625 5.609375 15.90625 8.625 
z
" id="Nimbus_Roman_No9_L_Regular-112"/>
      <path d="M 0.703125 39 
C 2.09375 39.296875 3 39.40625 4.203125 39.40625 
C 6.703125 39.40625 7.59375 37.796875 7.59375 33.40625 
L 7.59375 8.40625 
C 7.59375 3.40625 6.90625 2.703125 0.5 1.5 
L 0.5 0 
L 24.5 0 
L 24.5 1.59375 
C 17.703125 1.59375 16 3.109375 16 8.828125 
L 16 31.453125 
C 16 34.671875 20.296875 39.703125 23 39.703125 
C 23.59375 39.703125 24.5 39.203125 25.59375 38.203125 
C 27.203125 36.796875 28.296875 36.203125 29.59375 36.203125 
C 32 36.203125 33.5 37.90625 33.5 40.703125 
C 33.5 44 31.40625 46 28 46 
C 23.796875 46 20.90625 43.703125 16 36.609375 
L 16 45.796875 
L 15.5 46 
C 10.203125 43.796875 6.59375 42.515625 0.703125 40.609375 
z
" id="Nimbus_Roman_No9_L_Regular-114"/>
      <path d="M 44.203125 6.609375 
C 42.5 5.203125 41.296875 4.703125 39.796875 4.703125 
C 37.5 4.703125 36.796875 6.09375 36.796875 10.5 
L 36.796875 30 
C 36.796875 35.203125 36.296875 38.09375 34.796875 40.5 
C 32.59375 44.09375 28.296875 46 22.40625 46 
C 13 46 5.59375 41.09375 5.59375 34.796875 
C 5.59375 32.5 7.59375 30.5 9.90625 30.5 
C 12.296875 30.5 14.40625 32.5 14.40625 34.703125 
C 14.40625 35.09375 14.296875 35.59375 14.203125 36.296875 
C 14 37.203125 13.90625 38 13.90625 38.703125 
C 13.90625 41.40625 17.09375 43.59375 21.09375 43.59375 
C 26 43.59375 28.703125 40.703125 28.703125 35.296875 
L 28.703125 29.203125 
C 13.296875 23 11.59375 22.203125 7.296875 18.40625 
C 5.09375 16.40625 3.703125 13 3.703125 9.703125 
C 3.703125 3.40625 8.09375 -1 14.203125 -1 
C 18.59375 -1 22.703125 1.09375 28.796875 6.296875 
C 29.296875 1.09375 31.09375 -1 35.203125 -1 
C 38.59375 -1 40.703125 0.203125 44.203125 4 
z
M 28.703125 12.234375 
C 28.703125 9.125 28.203125 8.21875 26.09375 7.015625 
C 23.703125 5.609375 20.90625 4.703125 18.796875 4.703125 
C 15.296875 4.703125 12.5 8.125 12.5 12.4375 
L 12.5 12.84375 
C 12.5 18.765625 16.59375 22.390625 28.703125 26.796875 
z
" id="Nimbus_Roman_No9_L_Regular-97"/>
      <path d="M 47.90625 5 
L 47.40625 5 
C 42.796875 5 41.703125 6.09375 41.703125 10.703125 
L 41.703125 45 
L 25.90625 45 
L 25.90625 43.09375 
C 32.09375 43.09375 33.296875 42.09375 33.296875 37.109375 
L 33.296875 13.671875 
C 33.296875 10.890625 32.796875 9.484375 31.40625 8.390625 
C 28.703125 6.203125 25.59375 5 22.59375 5 
C 18.703125 5 15.5 8.390625 15.5 12.578125 
L 15.5 45 
L 0.90625 45 
L 0.90625 43.40625 
C 5.703125 43.40625 7.09375 41.90625 7.09375 37.296875 
L 7.09375 12.03125 
C 7.09375 4.109375 11.90625 -1 19.203125 -1 
C 22.90625 -1 26.796875 0.59375 29.5 3.296875 
L 33.796875 7.59375 
L 33.796875 -0.703125 
L 34.203125 -0.90625 
C 39.203125 1.09375 42.796875 2.203125 47.90625 3.59375 
z
" id="Nimbus_Roman_No9_L_Regular-117"/>
      <path d="M 63.296875 65 
L 10.09375 65 
L 5.90625 49.671875 
L 7.703125 49.265625 
C 13 59.921875 16.203125 61.609375 31.5 61.609375 
L 17.09375 8.984375 
C 15.5 3.6875 13.09375 2.09375 6.5 1.59375 
L 6.5 0 
L 35.5 0 
L 35.5 1.59375 
C 33.796875 1.59375 32.296875 2 31.703125 2 
C 27.703125 2 26.5 2.890625 26.5 5.90625 
C 26.5 7.203125 26.796875 8.390625 27.703125 11.78125 
L 41.59375 61.609375 
L 47.09375 61.609375 
C 54.296875 61.609375 57.5 59.09375 57.5 53.46875 
C 57.5 52.171875 57.40625 50.6875 57.203125 48.96875 
L 58.90625 48.765625 
z
" id="Nimbus_Roman_No9_L_Regular_Italic-84"/>
      <path d="M 41.296875 64.203125 
C 42.5 64 43.5 64 43.90625 64 
C 46.90625 64 48.09375 63.203125 48.09375 61.203125 
C 48.09375 58.984375 45.796875 55.984375 40.296875 50.890625 
L 22.59375 34.75 
L 22.59375 55.21875 
C 22.59375 62.5 23.703125 63.609375 31.796875 64.203125 
L 31.796875 66.109375 
L 3.40625 66.109375 
L 3.40625 64.203125 
C 11.203125 63.609375 12.40625 62.3125 12.40625 55.171875 
L 12.40625 11.71875 
C 12.40625 3.390625 11.296875 2.09375 3.40625 2.09375 
L 3.40625 0 
L 31.59375 0 
L 31.59375 2.09375 
C 23.796875 2.09375 22.59375 3.296875 22.59375 10.671875 
L 22.59375 29.546875 
L 25.203125 31.65625 
L 35.796875 21.171875 
C 43.40625 13.6875 48.796875 6.59375 48.796875 4.203125 
C 48.796875 2.796875 47.40625 2.09375 44.59375 2.09375 
C 44.09375 2.09375 43 2.09375 41.796875 1.890625 
L 41.796875 0 
L 72.296875 0 
L 72.296875 2.09375 
C 67.09375 2.09375 65.703125 3.09375 56.59375 12.75 
L 33.296875 37.640625 
L 52.296875 56.421875 
C 59.09375 62.90625 60.703125 63.703125 67.5 64.203125 
L 67.5 66.109375 
L 41.296875 66.109375 
z
" id="Nimbus_Roman_No9_L_Regular-75"/>
     </defs>
     <g transform="translate(8.880526 137.975632)rotate(-90)scale(0.1 -0.1)">
      <use transform="scale(0.996264)" xlink:href="#Nimbus_Roman_No9_L_Regular-84"/>
      <use transform="translate(53.898284 0)scale(0.996264)" xlink:href="#Nimbus_Roman_No9_L_Regular-101"/>
      <use transform="translate(98.131853 0)scale(0.996264)" xlink:href="#Nimbus_Roman_No9_L_Regular-109"/>
      <use transform="translate(175.640223 0)scale(0.996264)" xlink:href="#Nimbus_Roman_No9_L_Regular-112"/>
      <use transform="translate(225.453424 0)scale(0.996264)" xlink:href="#Nimbus_Roman_No9_L_Regular-101"/>
      <use transform="translate(269.686992 0)scale(0.996264)" xlink:href="#Nimbus_Roman_No9_L_Regular-114"/>
      <use transform="translate(302.862222 0)scale(0.996264)" xlink:href="#Nimbus_Roman_No9_L_Regular-97"/>
      <use transform="translate(347.095791 0)scale(0.996264)" xlink:href="#Nimbus_Roman_No9_L_Regular-116"/>
      <use transform="translate(374.79096 0)scale(0.996264)" xlink:href="#Nimbus_Roman_No9_L_Regular-117"/>
      <use transform="translate(424.604161 0)scale(0.996264)" xlink:href="#Nimbus_Roman_No9_L_Regular-114"/>
      <use transform="translate(457.779391 0)scale(0.996264)" xlink:href="#Nimbus_Roman_No9_L_Regular-101"/>
      <use transform="translate(533.242072 0)scale(0.996264)" xlink:href="#Nimbus_Roman_No9_L_Regular_Italic-84"/>
      <use transform="translate(632.514439 0)scale(0.996264)" xlink:href="#CMR10-91"/>
      <use transform="translate(660.109945 0)scale(0.996264)" xlink:href="#Nimbus_Roman_No9_L_Regular-75"/>
      <use transform="translate(732.03993 0)scale(0.996264)" xlink:href="#CMR10-93"/>
     </g>
    </g>
   </g>
   <g id="line2d_43">
    <path clip-path="url(#p107a2e5a22)" d="M 77.714425 70.434351 
L 227.8 70.434351 
L 227.8 70.434351 
" style="fill:none;stroke:#000000;stroke-linecap:square;"/>
   </g>
   <g id="line2d_44">
    <path clip-path="url(#p107a2e5a22)" d="M 146.991516 85.113175 
L 227.8 9.275054 
L 227.8 9.275054 
" style="fill:none;stroke:#000000;stroke-linecap:square;"/>
   </g>
   <g id="line2d_45">
    <path clip-path="url(#p107a2e5a22)" d="M -1 70.434351 
L 77.714425 70.434351 
" style="fill:none;stroke:#000000;stroke-dasharray:0.6,0.99;stroke-dashoffset:0;stroke-width:0.6;"/>
   </g>
   <g id="line2d_46">
    <path clip-path="url(#p107a2e5a22)" d="M -1 85.113175 
L 146.991516 85.113175 
" style="fill:none;stroke:#000000;stroke-dasharray:0.6,0.99;stroke-dashoffset:0;stroke-width:0.6;"/>
   </g>
   <g id="line2d_47">
    <path clip-path="url(#p107a2e5a22)" d="M 77.714425 197.316 
L 77.714425 70.434351 
" style="fill:none;stroke:#000000;stroke-dasharray:0.6,0.99;stroke-dashoffset:0;stroke-width:0.6;"/>
   </g>
   <g id="line2d_48">
    <path clip-path="url(#p107a2e5a22)" d="M 146.991516 197.316 
L 146.991516 85.113175 
" style="fill:none;stroke:#000000;stroke-dasharray:0.6,0.99;stroke-dashoffset:0;stroke-width:0.6;"/>
   </g>
   <g id="line2d_49">
    <path clip-path="url(#p107a2e5a22)" d="M 68.658545 43.904505 
L 103.297091 43.904505 
" style="fill:none;stroke:#000000;stroke-dasharray:2.22,0.96;stroke-dashoffset:0;stroke-width:0.6;"/>
   </g>
   <g id="line2d_50">
    <path clip-path="url(#p107a2e5a22)" d="M 155.254909 57.122263 
L 189.893455 24.614263 
" style="fill:none;stroke:#000000;stroke-dasharray:2.22,0.96;stroke-dashoffset:0;stroke-width:0.6;"/>
   </g>
   <g id="patch_3">
    <path d="M 34.02 197.316 
L 34.02 2.268 
" style="fill:none;stroke:#000000;stroke-linecap:square;stroke-linejoin:miter;stroke-width:0.8;"/>
   </g>
   <g id="patch_4">
    <path d="M 224.532 197.316 
L 224.532 2.268 
" style="fill:none;stroke:#000000;stroke-linecap:square;stroke-linejoin:miter;stroke-width:0.8;"/>
   </g>
   <g id="patch_5">
    <path d="M 34.02 197.316 
L 224.532 197.316 
" style="fill:none;stroke:#000000;stroke-linecap:square;stroke-linejoin:miter;stroke-width:0.8;"/>
   </g>
   <g id="patch_6">
    <path d="M 34.02 2.268 
L 224.532 2.268 
" style="fill:none;stroke:#000000;stroke-linecap:square;stroke-linejoin:miter;stroke-width:0.8;"/>
   </g>
   <g id="text_12">
    <!-- $n_{\rm H}~\widehat{}~{\tt Cool\_gamma\_effective}$ -->
    <defs>
     <path d="M 27.703125 68.5 
L 54.90625 56.203125 
L 56.09375 58.40625 
L 27.796875 74.40625 
L -0.5 58.40625 
L 0.59375 56.203125 
z
" id="CMEX10-98"/>
     <path d="M 47.40625 58.296875 
C 47.40625 59.890625 47.40625 62.09375 44.59375 62.09375 
C 42.796875 62.09375 42.296875 61 41.90625 60.296875 
C 41.59375 59.5 40.796875 57.703125 40.5 57 
C 36.40625 60.59375 31.796875 62.09375 27.59375 62.09375 
C 14.703125 62.09375 4 48.390625 4 30.59375 
C 4 12.40625 15 -1 27.59375 -1 
C 39.296875 -1 47.40625 8.21875 47.40625 16.96875 
C 47.40625 20.03125 45.296875 20.03125 44.09375 20.03125 
C 42.703125 20.03125 41.09375 19.53125 40.90625 17.859375 
C 40.09375 5.109375 30 5.109375 28.296875 5.109375 
C 19 5.109375 10.5 15.859375 10.5 30.75 
C 10.5 45.65625 19.09375 56.296875 28.203125 56.296875 
C 33.59375 56.296875 39.5 52 40.90625 42.796875 
C 41.203125 40.59375 42.09375 40 44.09375 40 
C 47.40625 40 47.40625 41.796875 47.40625 43.796875 
z
" id="CMTT12-67"/>
     <path d="M 45.59375 21.640625 
C 45.59375 34.109375 36.5 44 25.703125 44 
C 14.90625 44 5.796875 34.109375 5.796875 21.640625 
C 5.796875 9.078125 15 -0.5 25.703125 -0.5 
C 36.40625 -0.5 45.59375 9.078125 45.59375 21.640625 
z
M 25.703125 5.296875 
C 18.5 5.296875 12.296875 12.875 12.296875 22.34375 
C 12.296875 31.609375 18.703125 38.203125 25.703125 38.203125 
C 32.703125 38.203125 39.09375 31.609375 39.09375 22.34375 
C 39.09375 12.78125 32.90625 5.296875 25.703125 5.296875 
z
" id="CMTT12-111"/>
     <path d="M 29 56.90625 
C 29 60 28.40625 61 25 61 
L 10.296875 61 
C 8.90625 61 6.296875 61 6.296875 58.109375 
C 6.296875 55.203125 8.90625 55.203125 10.296875 55.203125 
L 22.5 55.203125 
L 22.5 5.796875 
L 10.296875 5.796875 
C 8.90625 5.796875 6.296875 5.796875 6.296875 2.90625 
C 6.296875 0 8.90625 0 10.296875 0 
L 41.203125 0 
C 42.59375 0 45.203125 0 45.203125 2.90625 
C 45.203125 5.796875 42.59375 5.796875 41.203125 5.796875 
L 29 5.796875 
z
" id="CMTT12-108"/>
     <path d="M 19 6.59375 
C 17.796875 6.59375 13.203125 6.59375 13.203125 12.015625 
C 13.203125 13.921875 13.5 14.3125 13.90625 15.109375 
C 15.90625 13.703125 19.203125 12.40625 22.796875 12.40625 
C 31.90625 12.40625 38.90625 19.703125 38.90625 28.28125 
C 38.90625 30.78125 38.296875 33.890625 36.203125 37.1875 
C 38.796875 38.421875 41.203125 38.703125 42.703125 38.703125 
C 43.296875 36 46.203125 36 46.296875 36 
C 47.5 36 50 36.796875 50 39.796875 
C 50 41.703125 48.5 45 42.90625 45 
C 41.09375 45 36.59375 44.5625 32.40625 40.90625 
C 29.09375 43.203125 25.703125 44 22.90625 44 
C 13.796875 44 6.796875 36.765625 6.796875 28.21875 
C 6.796875 26.03125 7.296875 22.265625 10.09375 18.703125 
C 8.203125 15.90625 7.90625 12.90625 7.90625 11.703125 
C 7.90625 8.203125 9.59375 5.40625 10.40625 4.5 
C 4.90625 1.484375 2.90625 -3.9375 2.90625 -7.84375 
C 2.90625 -16.171875 13 -22.5 25.703125 -22.5 
C 38.40625 -22.5 48.5 -16.28125 48.5 -7.84375 
C 48.5 6.59375 30.796875 6.59375 27.5 6.59375 
z
M 22.796875 18 
C 17.796875 18 13.296875 22.359375 13.296875 28.203125 
C 13.296875 34.046875 17.90625 38.390625 22.796875 38.390625 
C 28.09375 38.390625 32.40625 33.84375 32.40625 28.203125 
C 32.40625 22.546875 28.09375 18 22.796875 18 
z
M 25.703125 -16.890625 
C 15.90625 -16.890625 8.59375 -12.484375 8.59375 -7.84375 
C 8.59375 -6.328125 9.09375 -2.8125 12.796875 -0.515625 
C 15.09375 1 16.09375 1 23 1 
C 31.796875 1 42.796875 1 42.796875 -7.84375 
C 42.796875 -12.484375 35.5 -16.890625 25.703125 -16.890625 
z
" id="CMTT12-103"/>
     <path d="M 41.40625 28.375 
C 41.40625 35.984375 35.703125 44 22.203125 44 
C 18 44 8.296875 44 8.296875 37.1875 
C 8.296875 34.53125 10.203125 33.046875 12.40625 33.046875 
C 13 33.046875 16.296875 33.046875 16.40625 37.3125 
C 16.40625 37.796875 16.5 37.90625 18.59375 38.09375 
C 19.796875 38.203125 21.09375 38.203125 22.296875 38.203125 
C 24.59375 38.203125 28 38.203125 31.296875 35.65625 
C 34.90625 32.8125 34.90625 29.9375 34.90625 27 
C 29 27 23.203125 27 17 24.984375 
C 12 23.265625 5.59375 19.625 5.59375 12.75 
C 5.59375 5.5625 11.90625 -0.5 21.203125 -0.5 
C 24.40625 -0.5 30.59375 0 35.796875 3.53125 
C 37.796875 0 42.796875 0 46.59375 0 
C 49 0 51.40625 0 51.40625 2.859375 
C 51.40625 5.703125 48.796875 5.703125 47.40625 5.703125 
C 44.796875 5.703125 42.796875 5.90625 41.40625 6.515625 
z
M 34.90625 13.296875 
C 34.90625 11 34.90625 8.890625 30.796875 7 
C 27.296875 5.296875 22.59375 5.296875 22.296875 5.296875 
C 16.40625 5.296875 12.09375 8.5 12.09375 12.59375 
C 12.09375 18.5 22.796875 21.890625 34.90625 21.890625 
z
" id="CMTT12-97"/>
     <path d="M 45.296875 30.359375 
C 45.296875 32.5625 45.296875 43.796875 36.5 43.796875 
C 33 43.796875 29.59375 42.1875 26.90625 38.484375 
C 26.296875 39.984375 24.09375 43.796875 19.296875 43.796875 
C 14.796875 43.796875 11.703125 40.828125 10.90625 39.921875 
C 10.796875 43 8.703125 43 6.90625 43 
L 3.90625 43 
C 2.5 43 -0.09375 43 -0.09375 40.109375 
C -0.09375 37.203125 2.203125 37.203125 5.296875 37.203125 
L 5.296875 5.796875 
C 2.09375 5.796875 -0.09375 5.796875 -0.09375 2.90625 
C -0.09375 0 2.5 0 3.90625 0 
L 12.296875 0 
C 13.703125 0 16.296875 0 16.296875 2.90625 
C 16.296875 5.796875 14 5.796875 10.90625 5.796875 
L 10.90625 24.25 
C 10.90625 32.671875 14.5 38 18.90625 38 
C 21.703125 38 22.5 34.484375 22.5 29.765625 
L 22.5 5.796875 
C 20.796875 5.796875 18.09375 5.796875 18.09375 2.90625 
C 18.09375 0 20.796875 0 22.203125 0 
L 29.5 0 
C 30.90625 0 33.5 0 33.5 2.90625 
C 33.5 5.796875 31.203125 5.796875 28.09375 5.796875 
L 28.09375 24.25 
C 28.09375 32.671875 31.703125 38 36.09375 38 
C 38.90625 38 39.703125 34.484375 39.703125 29.765625 
L 39.703125 5.796875 
C 38 5.796875 35.296875 5.796875 35.296875 2.90625 
C 35.296875 0 38 0 39.40625 0 
L 46.703125 0 
C 48.09375 0 50.703125 0 50.703125 2.90625 
C 50.703125 5.796875 48.40625 5.796875 45.296875 5.796875 
z
" id="CMTT12-109"/>
     <path d="M 41.59375 19.5 
C 43.703125 19.5 45.59375 19.5 45.59375 23.15625 
C 45.59375 34.703125 39 44 26.5 44 
C 14.90625 44 5.59375 34.015625 5.59375 21.84375 
C 5.59375 9.28125 15.703125 -0.5 28 -0.5 
C 40.90625 -0.5 45.59375 8.453125 45.59375 11.078125 
C 45.59375 11.6875 45.40625 13.921875 42.296875 13.921875 
C 40.40625 13.921875 39.796875 13.203125 39.203125 11.6875 
C 36.703125 5.796875 30.203125 5.296875 28.296875 5.296875 
C 20 5.296875 13.40625 11.6875 12.296875 19.5 
z
M 12.40625 25 
C 13.703125 33.3125 20.203125 38.203125 26.5 38.203125 
C 36.5 38.203125 38.59375 29.890625 39 25 
z
" id="CMTT12-101"/>
     <path d="M 24.703125 37.203125 
L 36.796875 37.203125 
C 38.203125 37.203125 40.796875 37.203125 40.796875 40.109375 
C 40.796875 43 38.203125 43 36.796875 43 
L 24.703125 43 
L 24.703125 48.078125 
C 24.703125 56 31.703125 56 34.90625 56 
C 34.90625 55.796875 35.703125 52.03125 39 52.03125 
C 40.59375 52.03125 42.90625 53.234375 42.90625 56.0625 
C 42.90625 61.796875 35.296875 61.796875 33.796875 61.796875 
C 26.203125 61.796875 18.203125 57.453125 18.203125 48.453125 
L 18.203125 43 
L 8.296875 43 
C 6.90625 43 4.203125 43 4.203125 40.109375 
C 4.203125 37.203125 6.796875 37.203125 8.203125 37.203125 
L 18.203125 37.203125 
L 18.203125 5.796875 
L 8.703125 5.796875 
C 7.296875 5.796875 4.703125 5.796875 4.703125 2.90625 
C 4.703125 0 7.296875 0 8.703125 0 
L 34.203125 0 
C 35.59375 0 38.203125 0 38.203125 2.90625 
C 38.203125 5.796875 35.59375 5.796875 34.203125 5.796875 
L 24.703125 5.796875 
z
" id="CMTT12-102"/>
     <path d="M 45.59375 10.96875 
C 45.59375 13.5625 43.09375 13.5625 42.296875 13.5625 
C 40 13.5625 39.59375 12.765625 39.09375 11.375 
C 36.90625 5.890625 32 5.296875 29.59375 5.296875 
C 21.09375 5.296875 13.90625 12.375 13.90625 21.640625 
C 13.90625 26.734375 16.796875 38.203125 29.90625 38.203125 
C 32.59375 38.203125 34.703125 38 35.59375 37.90625 
C 36.296875 37.703125 36.40625 37.578125 36.40625 37.078125 
C 36.703125 32.921875 39.796875 32.921875 40.40625 32.921875 
C 42.59375 32.921875 44.5 34.421875 44.5 37.109375 
C 44.5 44 34.40625 44 30 44 
C 12.90625 44 7.40625 30.03125 7.40625 21.640625 
C 7.40625 9.484375 16.703125 -0.5 28.703125 -0.5 
C 42.09375 -0.5 45.59375 9.375 45.59375 10.96875 
z
" id="CMTT12-99"/>
     <path d="M 21.59375 37.203125 
L 37.796875 37.203125 
C 39.203125 37.203125 41.796875 37.203125 41.796875 40.109375 
C 41.796875 43 39.203125 43 37.796875 43 
L 21.59375 43 
L 21.59375 51.328125 
C 21.59375 53.15625 21.59375 55.5 18.40625 55.5 
C 15.09375 55.5 15.09375 53.15625 15.09375 51.328125 
L 15.09375 43 
L 6.59375 43 
C 5.203125 43 2.5 43 2.5 40.109375 
C 2.5 37.203125 5.09375 37.203125 6.5 37.203125 
L 15.09375 37.203125 
L 15.09375 12.125 
C 15.09375 2.875 21.5 -0.5 28.703125 -0.5 
C 34.09375 -0.5 44 2.171875 44 12.34375 
C 44 14.34375 44 16.53125 40.703125 16.53125 
C 37.5 16.53125 37.5 14.34375 37.5 12.265625 
C 37.40625 6.296875 31.703125 5.296875 29.40625 5.296875 
C 21.59375 5.296875 21.59375 10.265625 21.59375 12.640625 
z
" id="CMTT12-116"/>
     <path d="M 30.203125 56.5 
C 30.203125 59 28.203125 61 25.703125 61 
C 23.203125 61 21.203125 59 21.203125 56.5 
C 21.203125 54 23.203125 52 25.703125 52 
C 28.203125 52 30.203125 54 30.203125 56.5 
z
M 13 43 
C 11.59375 43 9 43 9 40.109375 
C 9 37.203125 11.59375 37.203125 13 37.203125 
L 23.703125 37.203125 
L 23.703125 5.796875 
L 12.296875 5.796875 
C 10.90625 5.796875 8.203125 5.796875 8.203125 2.90625 
C 8.203125 0 10.90625 0 12.296875 0 
L 40.09375 0 
C 41.5 0 44.09375 0 44.09375 2.90625 
C 44.09375 5.796875 41.5 5.796875 40.09375 5.796875 
L 30.203125 5.796875 
L 30.203125 38.921875 
C 30.203125 42 29.59375 43 26.203125 43 
z
" id="CMTT12-105"/>
     <path d="M 42.40625 37.203125 
L 45 37.203125 
C 46.40625 37.203125 49.09375 37.203125 49.09375 40.109375 
C 49.09375 43 46.40625 43 45 43 
L 34 43 
C 32.59375 43 29.90625 43 29.90625 40.109375 
C 29.90625 37.203125 32.59375 37.203125 34 37.203125 
L 36.5 37.203125 
L 25.703125 5.078125 
L 14.90625 37.203125 
L 17.40625 37.203125 
C 18.796875 37.203125 21.5 37.203125 21.5 40.109375 
C 21.5 43 18.796875 43 17.40625 43 
L 6.40625 43 
C 5 43 2.296875 43 2.296875 40.109375 
C 2.296875 37.203125 5 37.203125 6.40625 37.203125 
L 9 37.203125 
L 20.5 2.890625 
C 21.59375 -0.5 23.796875 -0.5 25.703125 -0.5 
C 27.59375 -0.5 29.796875 -0.5 30.90625 2.890625 
z
" id="CMTT12-118"/>
    </defs>
    <g transform="translate(68.658545 53.766087)scale(0.07 -0.07)">
     <use transform="translate(0 15.050129)scale(0.996264)" xlink:href="#Nimbus_Roman_No9_L_Regular_Italic-110"/>
     <use transform="translate(49.8132 0)scale(0.737241)" xlink:href="#Nimbus_Roman_No9_L_Regular-72"/>
     <use transform="translate(107.123069 15.050129)scale(0.996264)" xlink:href="#CMEX10-98"/>
     <use transform="translate(165.998143 15.050129)scale(0.996264)" xlink:href="#CMTT12-67"/>
     <use transform="translate(217.264254 15.050129)scale(0.996264)" xlink:href="#CMTT12-111"/>
     <use transform="translate(268.530365 15.050129)scale(0.996264)" xlink:href="#CMTT12-111"/>
     <use transform="translate(319.796475 15.050129)scale(0.996264)" xlink:href="#CMTT12-108"/>
     <use transform="translate(404.790082 15.050129)scale(0.996264)" xlink:href="#CMTT12-103"/>
     <use transform="translate(456.056192 15.050129)scale(0.996264)" xlink:href="#CMTT12-97"/>
     <use transform="translate(507.322303 15.050129)scale(0.996264)" xlink:href="#CMTT12-109"/>
     <use transform="translate(558.588414 15.050129)scale(0.996264)" xlink:href="#CMTT12-109"/>
     <use transform="translate(609.854525 15.050129)scale(0.996264)" xlink:href="#CMTT12-97"/>
     <use transform="translate(694.848131 15.050129)scale(0.996264)" xlink:href="#CMTT12-101"/>
     <use transform="translate(746.114242 15.050129)scale(0.996264)" xlink:href="#CMTT12-102"/>
     <use transform="translate(797.380353 15.050129)scale(0.996264)" xlink:href="#CMTT12-102"/>
     <use transform="translate(848.646464 15.050129)scale(0.996264)" xlink:href="#CMTT12-101"/>
     <use transform="translate(899.912575 15.050129)scale(0.996264)" xlink:href="#CMTT12-99"/>
     <use transform="translate(951.178685 15.050129)scale(0.996264)" xlink:href="#CMTT12-116"/>
     <use transform="translate(1002.444796 15.050129)scale(0.996264)" xlink:href="#CMTT12-105"/>
     <use transform="translate(1053.710907 15.050129)scale(0.996264)" xlink:href="#CMTT12-118"/>
     <use transform="translate(1104.977018 15.050129)scale(0.996264)" xlink:href="#CMTT12-101"/>
     <path d="M 376.683597 15.050129 
L 404.790082 15.050129 
L 404.790082 15.448629 
L 376.683597 15.448629 
L 376.683597 15.050129 
z
"/>
     <path d="M 666.741647 15.050129 
L 694.848131 15.050129 
L 694.848131 15.448629 
L 666.741647 15.448629 
L 666.741647 15.050129 
z
"/>
    </g>
   </g>
   <g id="text_13">
    <!-- $n_{\rm H}~\widehat{}~{\tt Jeans\_gamma\_effective}$ -->
    <defs>
     <path d="M 40 55.203125 
L 42.703125 55.203125 
C 44.09375 55.203125 46.796875 55.203125 46.796875 58.109375 
C 46.796875 61 44.09375 61 42.703125 61 
L 25.796875 61 
C 24.40625 61 21.796875 61 21.796875 58.109375 
C 21.796875 55.203125 24.40625 55.203125 25.796875 55.203125 
L 33.5 55.203125 
L 33.5 14.234375 
C 33.5 5.515625 25.40625 4.90625 23.703125 4.90625 
C 22.5 4.90625 17.5 4.90625 14.90625 7.984375 
C 15.40625 8.59375 15.703125 9.46875 15.703125 10.375 
C 15.703125 12.453125 14.09375 14.34375 11.703125 14.34375 
C 9.40625 14.34375 7.59375 12.84375 7.59375 10.0625 
C 7.59375 3.6875 14.40625 -1 23.59375 -1 
C 32 -1 40 4.265625 40 13.53125 
z
" id="CMTT12-74"/>
     <path d="M 41.796875 29.359375 
C 41.796875 39.171875 37.203125 43.796875 29 43.796875 
C 22.203125 43.796875 17.796875 40 16.09375 38.09375 
C 16.09375 41.65625 16.09375 43 12.09375 43 
L 5.5 43 
C 4.09375 43 1.5 43 1.5 40.109375 
C 1.5 37.203125 4.09375 37.203125 5.5 37.203125 
L 9.59375 37.203125 
L 9.59375 5.796875 
L 5.5 5.796875 
C 4.09375 5.796875 1.5 5.796875 1.5 2.90625 
C 1.5 0 4.09375 0 5.5 0 
L 20.203125 0 
C 21.59375 0 24.203125 0 24.203125 2.90625 
C 24.203125 5.796875 21.59375 5.796875 20.203125 5.796875 
L 16.09375 5.796875 
L 16.09375 23.953125 
C 16.09375 33.671875 22.90625 38 28.296875 38 
C 34.09375 38 35.296875 34.671875 35.296875 28.96875 
L 35.296875 5.796875 
L 31.203125 5.796875 
C 29.796875 5.796875 27.203125 5.796875 27.203125 2.90625 
C 27.203125 0 29.796875 0 31.203125 0 
L 45.90625 0 
C 47.296875 0 49.90625 0 49.90625 2.90625 
C 49.90625 5.796875 47.296875 5.796875 45.90625 5.796875 
L 41.796875 5.796875 
z
" id="CMTT12-110"/>
     <path d="M 42 40.203125 
C 42 41.796875 42 44 39.203125 44 
C 36.796875 44 36.203125 41.703125 36.203125 41.59375 
C 32.203125 44 27.59375 44 25.59375 44 
C 9.296875 44 7.09375 35.71875 7.09375 32.328125 
C 7.09375 28.234375 9.5 25.453125 12.90625 23.546875 
C 16.09375 21.75 19 21.265625 27.203125 19.96875 
C 31.09375 19.265625 39.09375 17.96875 39.09375 12.484375 
C 39.09375 8.78125 35.703125 5.296875 26.40625 5.296875 
C 20 5.296875 15.796875 7.796875 13.703125 15 
C 13.203125 16.390625 12.90625 17.5 10.40625 17.5 
C 7.09375 17.5 7.09375 15.59375 7.09375 13.59375 
L 7.09375 3.296875 
C 7.09375 1.6875 7.09375 -0.5 9.90625 -0.5 
C 11.09375 -0.5 12 -0.5 13.5 3.59375 
C 18.09375 -0.5 23.296875 -0.5 26.40625 -0.5 
C 44.90625 -0.5 44.90625 11.46875 44.90625 12.46875 
C 44.90625 22.828125 32.5 24.9375 27.703125 25.625 
C 18.90625 27.125 12.90625 28.125 12.90625 32.3125 
C 12.90625 35.015625 16 38.203125 25.40625 38.203125 
C 34.90625 38.203125 35.296875 33.703125 35.5 31.09375 
C 35.703125 29.09375 37.5 28.796875 38.703125 28.796875 
C 42 28.796875 42 30.59375 42 32.59375 
z
" id="CMTT12-115"/>
    </defs>
    <g transform="translate(158.822024 66.279355)rotate(-43)scale(0.07 -0.07)">
     <use transform="translate(0 15.050129)scale(0.996264)" xlink:href="#Nimbus_Roman_No9_L_Regular_Italic-110"/>
     <use transform="translate(49.8132 0)scale(0.737241)" xlink:href="#Nimbus_Roman_No9_L_Regular-72"/>
     <use transform="translate(107.123069 15.050129)scale(0.996264)" xlink:href="#CMEX10-98"/>
     <use transform="translate(165.998143 15.050129)scale(0.996264)" xlink:href="#CMTT12-74"/>
     <use transform="translate(217.264254 15.050129)scale(0.996264)" xlink:href="#CMTT12-101"/>
     <use transform="translate(268.530365 15.050129)scale(0.996264)" xlink:href="#CMTT12-97"/>
     <use transform="translate(319.796475 15.050129)scale(0.996264)" xlink:href="#CMTT12-110"/>
     <use transform="translate(371.062586 15.050129)scale(0.996264)" xlink:href="#CMTT12-115"/>
     <use transform="translate(456.056192 15.050129)scale(0.996264)" xlink:href="#CMTT12-103"/>
     <use transform="translate(507.322303 15.050129)scale(0.996264)" xlink:href="#CMTT12-97"/>
     <use transform="translate(558.588414 15.050129)scale(0.996264)" xlink:href="#CMTT12-109"/>
     <use transform="translate(609.854525 15.050129)scale(0.996264)" xlink:href="#CMTT12-109"/>
     <use transform="translate(661.120636 15.050129)scale(0.996264)" xlink:href="#CMTT12-97"/>
     <use transform="translate(746.114242 15.050129)scale(0.996264)" xlink:href="#CMTT12-101"/>
     <use transform="translate(797.380353 15.050129)scale(0.996264)" xlink:href="#CMTT12-102"/>
     <use transform="translate(848.646464 15.050129)scale(0.996264)" xlink:href="#CMTT12-102"/>
     <use transform="translate(899.912575 15.050129)scale(0.996264)" xlink:href="#CMTT12-101"/>
     <use transform="translate(951.178685 15.050129)scale(0.996264)" xlink:href="#CMTT12-99"/>
     <use transform="translate(1002.444796 15.050129)scale(0.996264)" xlink:href="#CMTT12-116"/>
     <use transform="translate(1053.710907 15.050129)scale(0.996264)" xlink:href="#CMTT12-105"/>
     <use transform="translate(1104.977018 15.050129)scale(0.996264)" xlink:href="#CMTT12-118"/>
     <use transform="translate(1156.243129 15.050129)scale(0.996264)" xlink:href="#CMTT12-101"/>
     <path d="M 427.949708 15.050129 
L 456.056192 15.050129 
L 456.056192 15.448629 
L 427.949708 15.448629 
L 427.949708 15.050129 
z
"/>
     <path d="M 718.007758 15.050129 
L 746.114242 15.050129 
L 746.114242 15.448629 
L 718.007758 15.448629 
L 718.007758 15.050129 
z
"/>
    </g>
   </g>
   <g id="text_14">
    <!-- ${\tt Cool\_density\_threshold\_H\_p\_cm3}$ -->
    <defs>
     <path d="M 41.796875 56.90625 
C 41.796875 60 41.203125 61 37.796875 61 
L 31.203125 61 
C 29.796875 61 27.203125 61 27.203125 58.109375 
C 27.203125 55.203125 29.796875 55.203125 31.203125 55.203125 
L 35.296875 55.203125 
L 35.296875 38.796875 
C 33.703125 40.390625 29.59375 43.796875 23.5 43.796875 
C 12.90625 43.796875 3.703125 34.1875 3.703125 21.59375 
C 3.703125 9.296875 12.296875 -0.5 22.59375 -0.5 
C 29.09375 -0.5 33.40625 3.359375 35.296875 5.546875 
C 35.296875 1.3125 35.296875 0 39.296875 0 
L 45.90625 0 
C 47.296875 0 49.90625 0 49.90625 2.90625 
C 49.90625 5.796875 47.296875 5.796875 45.90625 5.796875 
L 41.796875 5.796875 
z
M 35.296875 19.09375 
C 35.296875 13.5 30.703125 5.296875 23.203125 5.296875 
C 16 5.296875 10.203125 12.59375 10.203125 21.59375 
C 10.203125 31.1875 17 38 24.09375 38 
C 30.59375 38 35.296875 32.09375 35.296875 26.890625 
z
" id="CMTT12-100"/>
     <path d="M 42.40625 37.203125 
L 45 37.203125 
C 46.40625 37.203125 49.09375 37.203125 49.09375 40.109375 
C 49.09375 43 46.40625 43 45 43 
L 34 43 
C 32.59375 43 29.90625 43 29.90625 40.109375 
C 29.90625 37.203125 32.59375 37.203125 34 37.203125 
L 36.5 37.203125 
C 33.703125 29.0625 28 12.515625 26.59375 6.859375 
L 26.5 6.859375 
C 26 9.046875 25.59375 10.125 24.59375 12.8125 
L 15.296875 37.203125 
L 17.59375 37.203125 
C 19 37.203125 21.703125 37.203125 21.703125 40.109375 
C 21.703125 43 19 43 17.59375 43 
L 6.59375 43 
C 5.203125 43 2.5 43 2.5 40.109375 
C 2.5 37.203125 5.203125 37.203125 6.59375 37.203125 
L 9.296875 37.203125 
L 23.296875 1.46875 
C 23.703125 0.46875 23.703125 0.265625 23.703125 0.171875 
C 23.703125 -0.03125 21.09375 -8.671875 19.59375 -11.4375 
C 19 -12.4375 16.5 -17.109375 11.703125 -16.609375 
C 11.796875 -16.296875 12.09375 -15.703125 12.09375 -14.609375 
C 12.09375 -12.296875 10.5 -10.703125 8.203125 -10.703125 
C 5.703125 -10.703125 4.203125 -12.40625 4.203125 -14.703125 
C 4.203125 -18.5 7.40625 -22.5 12.40625 -22.5 
C 22.09375 -22.5 26.40625 -9.6875 26.703125 -8.890625 
z
" id="CMTT12-121"/>
     <path d="M 41.796875 29.359375 
C 41.796875 39.171875 37.203125 43.796875 29 43.796875 
C 22.203125 43.796875 17.796875 40 16.09375 38.09375 
L 16.09375 56.9375 
C 16.09375 60.015625 15.5 61 12.09375 61 
L 5.5 61 
C 4.09375 61 1.5 61 1.5 58.109375 
C 1.5 55.203125 4.09375 55.203125 5.5 55.203125 
L 9.59375 55.203125 
L 9.59375 5.796875 
L 5.5 5.796875 
C 4.09375 5.796875 1.5 5.796875 1.5 2.90625 
C 1.5 0 4.09375 0 5.5 0 
L 20.203125 0 
C 21.59375 0 24.203125 0 24.203125 2.90625 
C 24.203125 5.796875 21.59375 5.796875 20.203125 5.796875 
L 16.09375 5.796875 
L 16.09375 23.953125 
C 16.09375 33.671875 22.90625 38 28.296875 38 
C 34.09375 38 35.296875 34.671875 35.296875 28.96875 
L 35.296875 5.796875 
L 31.203125 5.796875 
C 29.796875 5.796875 27.203125 5.796875 27.203125 2.90625 
C 27.203125 0 29.796875 0 31.203125 0 
L 45.90625 0 
C 47.296875 0 49.90625 0 49.90625 2.90625 
C 49.90625 5.796875 47.296875 5.796875 45.90625 5.796875 
L 41.796875 5.796875 
z
" id="CMTT12-104"/>
     <path d="M 21.59375 18.9375 
C 21.59375 30.875 30 38 38.5 38 
C 39 38 39.59375 38 40.09375 37.890625 
C 40.40625 34.140625 43.203125 33.828125 43.90625 33.828125 
C 46.203125 33.828125 47.796875 35.546875 47.796875 37.78125 
C 47.796875 42.15625 43.59375 43.796875 38.59375 43.796875 
C 31.90625 43.796875 26.203125 40.734375 21.59375 35.015625 
L 21.59375 38.921875 
C 21.59375 42 21 43 17.59375 43 
L 7.5 43 
C 6.09375 43 3.5 43 3.5 40.109375 
C 3.5 37.203125 6.09375 37.203125 7.5 37.203125 
L 15.09375 37.203125 
L 15.09375 5.796875 
L 7.5 5.796875 
C 6.09375 5.796875 3.5 5.796875 3.5 2.90625 
C 3.5 0 6.09375 0 7.5 0 
L 32.09375 0 
C 33.5 0 36.09375 0 36.09375 2.90625 
C 36.09375 5.796875 33.5 5.796875 32.09375 5.796875 
L 21.59375 5.796875 
z
" id="CMTT12-114"/>
     <path d="M 42.796875 55.203125 
L 45 55.203125 
C 46.40625 55.203125 49 55.203125 49 58.109375 
C 49 61 46.5 61 45 61 
L 34.09375 61 
C 32.703125 61 30 61 30 58.109375 
C 30 55.203125 32.703125 55.203125 34.09375 55.203125 
L 36.296875 55.203125 
L 36.296875 34.796875 
L 15.09375 34.796875 
L 15.09375 55.203125 
L 17.296875 55.203125 
C 18.703125 55.203125 21.40625 55.203125 21.40625 58.109375 
C 21.40625 61 18.703125 61 17.296875 61 
L 6.40625 61 
C 4.90625 61 2.40625 61 2.40625 58.109375 
C 2.40625 55.203125 5 55.203125 6.40625 55.203125 
L 8.59375 55.203125 
L 8.59375 5.796875 
L 6.40625 5.796875 
C 5 5.796875 2.40625 5.796875 2.40625 2.90625 
C 2.40625 0 4.90625 0 6.40625 0 
L 17.296875 0 
C 18.703125 0 21.40625 0 21.40625 2.90625 
C 21.40625 5.796875 18.703125 5.796875 17.296875 5.796875 
L 15.09375 5.796875 
L 15.09375 29 
L 36.296875 29 
L 36.296875 5.796875 
L 34.09375 5.796875 
C 32.703125 5.796875 30 5.796875 30 2.90625 
C 30 0 32.703125 0 34.09375 0 
L 45 0 
C 46.5 0 49 0 49 2.90625 
C 49 5.796875 46.40625 5.796875 45 5.796875 
L 42.796875 5.796875 
z
" id="CMTT12-72"/>
     <path d="M 20.203125 -22 
C 21.59375 -22 24.203125 -22 24.203125 -19.09375 
C 24.203125 -16.203125 21.59375 -16.203125 20.203125 -16.203125 
L 16.09375 -16.203125 
L 16.09375 5.09375 
C 18.5 2.390625 22.203125 -0.5 27.796875 -0.5 
C 38.40625 -0.5 47.703125 9.046875 47.703125 21.796875 
C 47.703125 34.15625 39.296875 44 28.90625 44 
C 21.59375 44 17 39.578125 16.09375 38.578125 
C 16.09375 41.625 16.09375 43 12.09375 43 
L 5.5 43 
C 4.09375 43 1.5 43 1.5 40.109375 
C 1.5 37.203125 4.09375 37.203125 5.5 37.203125 
L 9.59375 37.203125 
L 9.59375 -16.203125 
L 5.5 -16.203125 
C 4.09375 -16.203125 1.5 -16.203125 1.5 -19.09375 
C 1.5 -22 4.09375 -22 5.5 -22 
z
M 16.09375 26.828125 
C 16.09375 32.5625 21.703125 38.203125 28.203125 38.203125 
C 35.40625 38.203125 41.203125 30.84375 41.203125 21.796875 
C 41.203125 12.140625 34.40625 5.296875 27.296875 5.296875 
C 19.796875 5.296875 16.09375 13.84375 16.09375 18.875 
z
" id="CMTT12-112"/>
     <path d="M 25.59375 30.59375 
C 36 30.59375 40.59375 23.21875 40.59375 17.765625 
C 40.59375 11.078125 34.796875 4.796875 26 4.796875 
C 16 4.796875 11.5 10.25 11.5 11.671875 
C 11.5 11.859375 11.59375 12.0625 11.703125 12.171875 
C 12.09375 12.875 12.40625 13.703125 12.40625 14.609375 
C 12.40625 16.734375 10.796875 18.65625 8.40625 18.65625 
C 6.296875 18.65625 4.296875 17.34375 4.296875 14.234375 
C 4.296875 5.453125 13.796875 -1 26 -1 
C 38.59375 -1 47.09375 8.078125 47.09375 17.65625 
C 47.09375 22.8125 44.296875 29.96875 35.5 33.796875 
C 41.59375 37.609375 44.296875 43.625 44.296875 48.84375 
C 44.296875 56.375 36.796875 62.890625 26 62.890625 
C 14.90625 62.890625 7.09375 58.078125 7.09375 50.65625 
C 7.09375 47.34375 9.59375 46.34375 11.203125 46.34375 
C 13 46.34375 15.203125 47.765625 15.203125 50.515625 
C 15.203125 52.125 14.40625 53.046875 14.40625 53.140625 
C 17.40625 57 24.296875 57 26 57 
C 32.796875 57 37.796875 53.3125 37.796875 48.484375 
C 37.796875 45.515625 35.90625 37 25.40625 37 
C 21.703125 37 20.09375 36.796875 19.703125 36.796875 
C 17.703125 36.578125 17.203125 35.203125 17.203125 33.703125 
C 17.203125 30.59375 19.296875 30.59375 21 30.59375 
z
" id="CMTT12-51"/>
    </defs>
    <g transform="translate(75.778884 192.590474)rotate(-90)scale(0.07 -0.07)">
     <use transform="scale(0.996264)" xlink:href="#CMTT12-67"/>
     <use transform="translate(51.266111 0)scale(0.996264)" xlink:href="#CMTT12-111"/>
     <use transform="translate(102.532222 0)scale(0.996264)" xlink:href="#CMTT12-111"/>
     <use transform="translate(153.798333 0)scale(0.996264)" xlink:href="#CMTT12-108"/>
     <use transform="translate(238.791939 0)scale(0.996264)" xlink:href="#CMTT12-100"/>
     <use transform="translate(290.05805 0)scale(0.996264)" xlink:href="#CMTT12-101"/>
     <use transform="translate(341.32416 0)scale(0.996264)" xlink:href="#CMTT12-110"/>
     <use transform="translate(392.590271 0)scale(0.996264)" xlink:href="#CMTT12-115"/>
     <use transform="translate(443.856382 0)scale(0.996264)" xlink:href="#CMTT12-105"/>
     <use transform="translate(495.122493 0)scale(0.996264)" xlink:href="#CMTT12-116"/>
     <use transform="translate(546.388604 0)scale(0.996264)" xlink:href="#CMTT12-121"/>
     <use transform="translate(631.38221 0)scale(0.996264)" xlink:href="#CMTT12-116"/>
     <use transform="translate(682.648321 0)scale(0.996264)" xlink:href="#CMTT12-104"/>
     <use transform="translate(733.914432 0)scale(0.996264)" xlink:href="#CMTT12-114"/>
     <use transform="translate(785.180542 0)scale(0.996264)" xlink:href="#CMTT12-101"/>
     <use transform="translate(836.446653 0)scale(0.996264)" xlink:href="#CMTT12-115"/>
     <use transform="translate(887.712764 0)scale(0.996264)" xlink:href="#CMTT12-104"/>
     <use transform="translate(938.978875 0)scale(0.996264)" xlink:href="#CMTT12-111"/>
     <use transform="translate(990.244986 0)scale(0.996264)" xlink:href="#CMTT12-108"/>
     <use transform="translate(1041.511097 0)scale(0.996264)" xlink:href="#CMTT12-100"/>
     <use transform="translate(1126.504703 0)scale(0.996264)" xlink:href="#CMTT12-72"/>
     <use transform="translate(1211.498309 0)scale(0.996264)" xlink:href="#CMTT12-112"/>
     <use transform="translate(1296.491915 0)scale(0.996264)" xlink:href="#CMTT12-99"/>
     <use transform="translate(1347.758026 0)scale(0.996264)" xlink:href="#CMTT12-109"/>
     <use transform="translate(1399.024137 0)scale(0.996264)" xlink:href="#CMTT12-51"/>
     <path d="M 210.685454 0 
L 238.791939 0 
L 238.791939 0.3985 
L 210.685454 0.3985 
L 210.685454 0 
z
"/>
     <path d="M 603.275726 0 
L 631.38221 0 
L 631.38221 0.3985 
L 603.275726 0.3985 
L 603.275726 0 
z
"/>
     <path d="M 1098.398219 0 
L 1126.504703 0 
L 1126.504703 0.3985 
L 1098.398219 0.3985 
L 1098.398219 0 
z
"/>
     <path d="M 1183.391825 0 
L 1211.498309 0 
L 1211.498309 0.3985 
L 1183.391825 0.3985 
L 1183.391825 0 
z
"/>
     <path d="M 1268.385431 0 
L 1296.491915 0 
L 1296.491915 0.3985 
L 1268.385431 0.3985 
L 1268.385431 0 
z
"/>
    </g>
   </g>
   <g id="text_15">
    <!-- ${\tt Jeans\_density\_threshold\_H\_p\_cm3}$ -->
    <g transform="translate(145.055974 192.590474)rotate(-90)scale(0.07 -0.07)">
     <use transform="scale(0.996264)" xlink:href="#CMTT12-74"/>
     <use transform="translate(51.266111 0)scale(0.996264)" xlink:href="#CMTT12-101"/>
     <use transform="translate(102.532222 0)scale(0.996264)" xlink:href="#CMTT12-97"/>
     <use transform="translate(153.798333 0)scale(0.996264)" xlink:href="#CMTT12-110"/>
     <use transform="translate(205.064443 0)scale(0.996264)" xlink:href="#CMTT12-115"/>
     <use transform="translate(290.05805 0)scale(0.996264)" xlink:href="#CMTT12-100"/>
     <use transform="translate(341.32416 0)scale(0.996264)" xlink:href="#CMTT12-101"/>
     <use transform="translate(392.590271 0)scale(0.996264)" xlink:href="#CMTT12-110"/>
     <use transform="translate(443.856382 0)scale(0.996264)" xlink:href="#CMTT12-115"/>
     <use transform="translate(495.122493 0)scale(0.996264)" xlink:href="#CMTT12-105"/>
     <use transform="translate(546.388604 0)scale(0.996264)" xlink:href="#CMTT12-116"/>
     <use transform="translate(597.654715 0)scale(0.996264)" xlink:href="#CMTT12-121"/>
     <use transform="translate(682.648321 0)scale(0.996264)" xlink:href="#CMTT12-116"/>
     <use transform="translate(733.914432 0)scale(0.996264)" xlink:href="#CMTT12-104"/>
     <use transform="translate(785.180542 0)scale(0.996264)" xlink:href="#CMTT12-114"/>
     <use transform="translate(836.446653 0)scale(0.996264)" xlink:href="#CMTT12-101"/>
     <use transform="translate(887.712764 0)scale(0.996264)" xlink:href="#CMTT12-115"/>
     <use transform="translate(938.978875 0)scale(0.996264)" xlink:href="#CMTT12-104"/>
     <use transform="translate(990.244986 0)scale(0.996264)" xlink:href="#CMTT12-111"/>
     <use transform="translate(1041.511097 0)scale(0.996264)" xlink:href="#CMTT12-108"/>
     <use transform="translate(1092.777208 0)scale(0.996264)" xlink:href="#CMTT12-100"/>
     <use transform="translate(1177.770814 0)scale(0.996264)" xlink:href="#CMTT12-72"/>
     <use transform="translate(1262.76442 0)scale(0.996264)" xlink:href="#CMTT12-112"/>
     <use transform="translate(1347.758026 0)scale(0.996264)" xlink:href="#CMTT12-99"/>
     <use transform="translate(1399.024137 0)scale(0.996264)" xlink:href="#CMTT12-109"/>
     <use transform="translate(1450.290248 0)scale(0.996264)" xlink:href="#CMTT12-51"/>
     <path d="M 261.951565 0 
L 290.05805 0 
L 290.05805 0.3985 
L 261.951565 0.3985 
L 261.951565 0 
z
"/>
     <path d="M 654.541837 0 
L 682.648321 0 
L 682.648321 0.3985 
L 654.541837 0.3985 
L 654.541837 0 
z
"/>
     <path d="M 1149.664329 0 
L 1177.770814 0 
L 1177.770814 0.3985 
L 1149.664329 0.3985 
L 1149.664329 0 
z
"/>
     <path d="M 1234.657936 0 
L 1262.76442 0 
L 1262.76442 0.3985 
L 1234.657936 0.3985 
L 1234.657936 0 
z
"/>
     <path d="M 1319.651542 0 
L 1347.758026 0 
L 1347.758026 0.3985 
L 1319.651542 0.3985 
L 1319.651542 0 
z
"/>
    </g>
   </g>
   <g id="text_16">
    <!-- ${\tt Cool\_temperature\_norm\_K}$ -->
    <defs>
     <path d="M 41.796875 38.921875 
C 41.796875 42 41.203125 43 37.796875 43 
L 31.203125 43 
C 29.796875 43 27.203125 43 27.203125 40.109375 
C 27.203125 37.203125 29.796875 37.203125 31.203125 37.203125 
L 35.296875 37.203125 
L 35.296875 15.625 
C 35.296875 7.484375 28.5 5.296875 24 5.296875 
C 16.09375 5.296875 16.09375 8.875 16.09375 11.96875 
L 16.09375 38.921875 
C 16.09375 42 15.5 43 12.09375 43 
L 5.5 43 
C 4.09375 43 1.5 43 1.5 40.109375 
C 1.5 37.203125 4.09375 37.203125 5.5 37.203125 
L 9.59375 37.203125 
L 9.59375 11.4375 
C 9.59375 2.28125 15.59375 -0.5 23.296875 -0.5 
C 29.40625 -0.5 33.203125 1.984375 35.203125 3.671875 
C 35.203125 0 37.59375 0 39.296875 0 
L 45.90625 0 
C 47.296875 0 49.90625 0 49.90625 2.90625 
C 49.90625 5.796875 47.296875 5.796875 45.90625 5.796875 
L 41.796875 5.796875 
z
" id="CMTT12-117"/>
     <path d="M 27.09375 35.734375 
L 42.40625 55.203125 
C 45.296875 55.203125 47.59375 55.203125 47.59375 58.109375 
C 47.59375 61 45 61 43.59375 61 
L 35.203125 61 
C 33.796875 61 31.203125 61 31.203125 58.109375 
C 31.203125 55.203125 33.796875 55.203125 35.203125 55.203125 
L 14.203125 28.453125 
L 14.203125 55.203125 
L 16.203125 55.203125 
C 17.59375 55.203125 20.203125 55.203125 20.203125 58.109375 
C 20.203125 61 17.59375 61 16.203125 61 
L 6.59375 61 
C 5.203125 61 2.59375 61 2.59375 58.109375 
C 2.59375 55.203125 5.203125 55.203125 6.59375 55.203125 
L 8.59375 55.203125 
L 8.59375 5.796875 
L 6.59375 5.796875 
C 5.203125 5.796875 2.59375 5.796875 2.59375 2.90625 
C 2.59375 0 5.203125 0 6.59375 0 
L 16.203125 0 
C 17.59375 0 20.203125 0 20.203125 2.90625 
C 20.203125 5.796875 17.59375 5.796875 16.203125 5.796875 
L 14.203125 5.796875 
L 14.203125 19.375 
L 23.296875 30.953125 
L 37.203125 5.796875 
C 35.90625 5.796875 33.296875 5.796875 33.296875 2.90625 
C 33.296875 0 35.90625 0 37.296875 0 
L 44.5 0 
C 45.90625 0 48.5 0 48.5 2.90625 
C 48.5 5.796875 46.09375 5.796875 43.59375 5.796875 
z
" id="CMTT12-75"/>
    </defs>
    <g transform="translate(37.862259 66.86623)scale(0.07 -0.07)">
     <use transform="scale(0.996264)" xlink:href="#CMTT12-67"/>
     <use transform="translate(51.266111 0)scale(0.996264)" xlink:href="#CMTT12-111"/>
     <use transform="translate(102.532222 0)scale(0.996264)" xlink:href="#CMTT12-111"/>
     <use transform="translate(153.798333 0)scale(0.996264)" xlink:href="#CMTT12-108"/>
     <use transform="translate(238.791939 0)scale(0.996264)" xlink:href="#CMTT12-116"/>
     <use transform="translate(290.05805 0)scale(0.996264)" xlink:href="#CMTT12-101"/>
     <use transform="translate(341.32416 0)scale(0.996264)" xlink:href="#CMTT12-109"/>
     <use transform="translate(392.590271 0)scale(0.996264)" xlink:href="#CMTT12-112"/>
     <use transform="translate(443.856382 0)scale(0.996264)" xlink:href="#CMTT12-101"/>
     <use transform="translate(495.122493 0)scale(0.996264)" xlink:href="#CMTT12-114"/>
     <use transform="translate(546.388604 0)scale(0.996264)" xlink:href="#CMTT12-97"/>
     <use transform="translate(597.654715 0)scale(0.996264)" xlink:href="#CMTT12-116"/>
     <use transform="translate(648.920825 0)scale(0.996264)" xlink:href="#CMTT12-117"/>
     <use transform="translate(700.186936 0)scale(0.996264)" xlink:href="#CMTT12-114"/>
     <use transform="translate(751.453047 0)scale(0.996264)" xlink:href="#CMTT12-101"/>
     <use transform="translate(836.446653 0)scale(0.996264)" xlink:href="#CMTT12-110"/>
     <use transform="translate(887.712764 0)scale(0.996264)" xlink:href="#CMTT12-111"/>
     <use transform="translate(938.978875 0)scale(0.996264)" xlink:href="#CMTT12-114"/>
     <use transform="translate(990.244986 0)scale(0.996264)" xlink:href="#CMTT12-109"/>
     <use transform="translate(1075.238592 0)scale(0.996264)" xlink:href="#CMTT12-75"/>
     <path d="M 210.685454 0 
L 238.791939 0 
L 238.791939 0.3985 
L 210.685454 0.3985 
L 210.685454 0 
z
"/>
     <path d="M 808.340169 0 
L 836.446653 0 
L 836.446653 0.3985 
L 808.340169 0.3985 
L 808.340169 0 
z
"/>
     <path d="M 1047.132108 0 
L 1075.238592 0 
L 1075.238592 0.3985 
L 1047.132108 0.3985 
L 1047.132108 0 
z
"/>
    </g>
   </g>
   <g id="text_17">
    <!-- ${\tt Jeans\_temperature\_norm\_K}$ -->
    <g transform="translate(37.862259 81.545055)scale(0.07 -0.07)">
     <use transform="scale(0.996264)" xlink:href="#CMTT12-74"/>
     <use transform="translate(51.266111 0)scale(0.996264)" xlink:href="#CMTT12-101"/>
     <use transform="translate(102.532222 0)scale(0.996264)" xlink:href="#CMTT12-97"/>
     <use transform="translate(153.798333 0)scale(0.996264)" xlink:href="#CMTT12-110"/>
     <use transform="translate(205.064443 0)scale(0.996264)" xlink:href="#CMTT12-115"/>
     <use transform="translate(290.05805 0)scale(0.996264)" xlink:href="#CMTT12-116"/>
     <use transform="translate(341.32416 0)scale(0.996264)" xlink:href="#CMTT12-101"/>
     <use transform="translate(392.590271 0)scale(0.996264)" xlink:href="#CMTT12-109"/>
     <use transform="translate(443.856382 0)scale(0.996264)" xlink:href="#CMTT12-112"/>
     <use transform="translate(495.122493 0)scale(0.996264)" xlink:href="#CMTT12-101"/>
     <use transform="translate(546.388604 0)scale(0.996264)" xlink:href="#CMTT12-114"/>
     <use transform="translate(597.654715 0)scale(0.996264)" xlink:href="#CMTT12-97"/>
     <use transform="translate(648.920825 0)scale(0.996264)" xlink:href="#CMTT12-116"/>
     <use transform="translate(700.186936 0)scale(0.996264)" xlink:href="#CMTT12-117"/>
     <use transform="translate(751.453047 0)scale(0.996264)" xlink:href="#CMTT12-114"/>
     <use transform="translate(802.719158 0)scale(0.996264)" xlink:href="#CMTT12-101"/>
     <use transform="translate(887.712764 0)scale(0.996264)" xlink:href="#CMTT12-110"/>
     <use transform="translate(938.978875 0)scale(0.996264)" xlink:href="#CMTT12-111"/>
     <use transform="translate(990.244986 0)scale(0.996264)" xlink:href="#CMTT12-114"/>
     <use transform="translate(1041.511097 0)scale(0.996264)" xlink:href="#CMTT12-109"/>
     <use transform="translate(1126.504703 0)scale(0.996264)" xlink:href="#CMTT12-75"/>
     <path d="M 261.951565 0 
L 290.05805 0 
L 290.05805 0.3985 
L 261.951565 0.3985 
L 261.951565 0 
z
"/>
     <path d="M 859.60628 0 
L 887.712764 0 
L 887.712764 0.3985 
L 859.60628 0.3985 
L 859.60628 0 
z
"/>
     <path d="M 1098.398219 0 
L 1126.504703 0 
L 1126.504703 0.3985 
L 1098.398219 0.3985 
L 1098.398219 0 
z
"/>
    </g>
   </g>
  </g>
 </g>
 <defs>
  <clipPath id="p107a2e5a22">
   <rect height="195.048" width="190.512" x="34.02" y="2.268"/>
  </clipPath>
 </defs>
</svg>
