<?xml version="1.0" encoding="UTF-8" standalone="no"?>
<!-- Created with Inkscape (http://www.inkscape.org/) -->

<svg
   xmlns:dc="http://purl.org/dc/elements/1.1/"
   xmlns:cc="http://creativecommons.org/ns#"
   xmlns:rdf="http://www.w3.org/1999/02/22-rdf-syntax-ns#"
   xmlns:svg="http://www.w3.org/2000/svg"
   xmlns="http://www.w3.org/2000/svg"
   xmlns:sodipodi="http://sodipodi.sourceforge.net/DTD/sodipodi-0.dtd"
   xmlns:inkscape="http://www.inkscape.org/namespaces/inkscape"
   width="1052.3622"
   height="744.09448"
   id="svg2"
   version="1.1"
   inkscape:version="0.48.3.1 r9886"
   sodipodi:docname="SortedInteractions.svg">
  <sodipodi:namedview
     id="base"
     pagecolor="#ffffff"
     bordercolor="#666666"
     borderopacity="1.0"
     inkscape:pageopacity="0.0"
     inkscape:pageshadow="2"
     inkscape:zoom="1"
     inkscape:cx="327.86295"
     inkscape:cy="563.67137"
     inkscape:document-units="px"
     inkscape:current-layer="layer1"
     showgrid="true"
     inkscape:window-width="1920"
     inkscape:window-height="1033"
     inkscape:window-x="0"
     inkscape:window-y="0"
     inkscape:window-maximized="1">
    <inkscape:grid
       snapvisiblegridlinesonly="true"
       enabled="true"
       visible="true"
       empspacing="5"
       id="grid2985"
       type="xygrid" />
  </sodipodi:namedview>
  <defs
     id="defs4">
    <marker
       style="overflow:visible"
       id="Arrow2Mstart"
       refX="0.0"
       refY="0.0"
       orient="auto"
       inkscape:stockid="Arrow2Mstart">
      <path
         transform="scale(0.6) translate(0,0)"
         d="M 8.7185878,4.0337352 L -2.2072895,0.016013256 L 8.7185884,-4.0017078 C 6.9730900,-1.6296469 6.9831476,1.6157441 8.7185878,4.0337352 z "
         style="fill-rule:evenodd;stroke-width:0.62500000;stroke-linejoin:round"
         id="path7080" />
    </marker>
    <marker
       style="overflow:visible;"
       id="Arrow2Mend"
       refX="0.0"
       refY="0.0"
       orient="auto"
       inkscape:stockid="Arrow2Mend">
      <path
         transform="scale(0.6) rotate(180) translate(0,0)"
         d="M 8.7185878,4.0337352 L -2.2072895,0.016013256 L 8.7185884,-4.0017078 C 6.9730900,-1.6296469 6.9831476,1.6157441 8.7185878,4.0337352 z "
         style="fill-rule:evenodd;stroke-width:0.62500000;stroke-linejoin:round;"
         id="path4067" />
    </marker>
    <marker
       style="overflow:visible"
       id="Arrow2Sstart"
       refX="0.0"
       refY="0.0"
       orient="auto"
       inkscape:stockid="Arrow2Sstart">
      <path
         transform="scale(0.3) translate(-2.3,0)"
         d="M 8.7185878,4.0337352 L -2.2072895,0.016013256 L 8.7185884,-4.0017078 C 6.9730900,-1.6296469 6.9831476,1.6157441 8.7185878,4.0337352 z "
         style="fill-rule:evenodd;stroke-width:0.62500000;stroke-linejoin:round"
         id="path4070" />
    </marker>
    <marker
       style="overflow:visible;"
       id="Arrow2Send"
       refX="0.0"
       refY="0.0"
       orient="auto"
       inkscape:stockid="Arrow2Send">
      <path
         transform="scale(0.3) rotate(180) translate(-2.3,0)"
         d="M 8.7185878,4.0337352 L -2.2072895,0.016013256 L 8.7185884,-4.0017078 C 6.9730900,-1.6296469 6.9831476,1.6157441 8.7185878,4.0337352 z "
         style="fill-rule:evenodd;stroke-width:0.62500000;stroke-linejoin:round;"
         id="path4073" />
    </marker>
    <marker
       style="overflow:visible;"
       id="Arrow1Mend"
       refX="0.0"
       refY="0.0"
       orient="auto"
       inkscape:stockid="Arrow1Mend">
      <path
         transform="scale(0.4) rotate(180) translate(10,0)"
         style="fill-rule:evenodd;stroke:#000000;stroke-width:1.0pt;"
         d="M 0.0,0.0 L 5.0,-5.0 L -12.5,0.0 L 5.0,5.0 L 0.0,0.0 z "
         id="path4049" />
    </marker>
    <marker
       style="overflow:visible;"
       id="Arrow2MendQ"
       refX="0.0"
       refY="0.0"
       orient="auto"
       inkscape:stockid="Arrow2MendQ">
      <path
         transform="scale(0.6) rotate(180) translate(0,0)"
         d="M 8.7185878,4.0337352 L -2.2072895,0.016013256 L 8.7185884,-4.0017078 C 6.9730900,-1.6296469 6.9831476,1.6157441 8.7185878,4.0337352 z "
         style="stroke-linejoin:round;stroke:#ff0000;stroke-width:0.62500000;fill:#ff0000;fill-rule:evenodd"
         id="path8749" />
    </marker>
    <marker
       style="overflow:visible;"
       id="Arrow2Mendr"
       refX="0.0"
       refY="0.0"
       orient="auto"
       inkscape:stockid="Arrow2Mendr">
      <path
         transform="scale(0.6) rotate(180) translate(0,0)"
         d="M 8.7185878,4.0337352 L -2.2072895,0.016013256 L 8.7185884,-4.0017078 C 6.9730900,-1.6296469 6.9831476,1.6157441 8.7185878,4.0337352 z "
         style="stroke-linejoin:round;stroke:#ff0000;stroke-width:0.62500000;fill:#ff0000;fill-rule:evenodd"
         id="path8752" />
    </marker>
    <marker
       style="overflow:visible;"
       id="Arrow2Mendg"
       refX="0.0"
       refY="0.0"
       orient="auto"
       inkscape:stockid="Arrow2Mendg">
      <path
         transform="scale(0.6) rotate(180) translate(0,0)"
         d="M 8.7185878,4.0337352 L -2.2072895,0.016013256 L 8.7185884,-4.0017078 C 6.9730900,-1.6296469 6.9831476,1.6157441 8.7185878,4.0337352 z "
         style="stroke-linejoin:round;stroke:#ff0000;stroke-width:0.62500000;fill:#ff0000;fill-rule:evenodd"
         id="path8755" />
    </marker>
    <marker
       style="overflow:visible"
       id="Arrow2Mstarti"
       refX="0.0"
       refY="0.0"
       orient="auto"
       inkscape:stockid="Arrow2Mstarti">
      <path
         transform="scale(0.6) translate(0,0)"
         d="M 8.7185878,4.0337352 L -2.2072895,0.016013256 L 8.7185884,-4.0017078 C 6.9730900,-1.6296469 6.9831476,1.6157441 8.7185878,4.0337352 z "
         style="stroke-linejoin:round;stroke:#ff0000;stroke-width:0.62500000;fill:#ff0000;fill-rule:evenodd"
         id="path8758" />
    </marker>
    <marker
       style="overflow:visible;"
       id="Arrow2Mend4"
       refX="0.0"
       refY="0.0"
       orient="auto"
       inkscape:stockid="Arrow2Mend4">
      <path
         transform="scale(0.6) rotate(180) translate(0,0)"
         d="M 8.7185878,4.0337352 L -2.2072895,0.016013256 L 8.7185884,-4.0017078 C 6.9730900,-1.6296469 6.9831476,1.6157441 8.7185878,4.0337352 z "
         style="stroke-linejoin:round;stroke:#ff0000;stroke-width:0.62500000;fill:#ff0000;fill-rule:evenodd"
         id="path8761" />
    </marker>
    <marker
       style="overflow:visible;"
       id="Arrow2MendE"
       refX="0.0"
       refY="0.0"
       orient="auto"
       inkscape:stockid="Arrow2MendE">
      <path
         transform="scale(0.6) rotate(180) translate(0,0)"
         d="M 8.7185878,4.0337352 L -2.2072895,0.016013256 L 8.7185884,-4.0017078 C 6.9730900,-1.6296469 6.9831476,1.6157441 8.7185878,4.0337352 z "
         style="stroke-linejoin:round;stroke:#ff0000;stroke-width:0.62500000;fill:#ff0000;fill-rule:evenodd"
         id="path8764" />
    </marker>
  </defs>
  <metadata
     id="metadata7">
    <rdf:RDF>
      <cc:Work
         rdf:about="">
        <dc:format>image/svg+xml</dc:format>
        <dc:type
           rdf:resource="http://purl.org/dc/dcmitype/StillImage" />
        <dc:title />
      </cc:Work>
    </rdf:RDF>
  </metadata>
  <g
     transform="translate(0,-308.2677)"
     id="layer1"
     inkscape:groupmode="layer"
     inkscape:label="Layer 1">
    <path
       inkscape:connector-curvature="0"
       id="path5920"
       d="m 390,452.36218 240,0"
       style="fill:none;stroke:#000000;stroke-width:2;stroke-linecap:butt;stroke-linejoin:miter;stroke-miterlimit:4;stroke-opacity:1;stroke-dasharray:4, 2;stroke-dashoffset:0;marker-end:url(#Arrow2Send)" />
    <path
       transform="translate(-75,308.2677)"
       d="m 240,189.09448 c 0,2.76143 -2.23858,5 -5,5 -2.76142,0 -5,-2.23857 -5,-5 0,-2.76142 2.23858,-5 5,-5 2.76142,0 5,2.23858 5,5 z"
       sodipodi:ry="5"
       sodipodi:rx="5"
       sodipodi:cy="189.09448"
       sodipodi:cx="235"
       id="path3958"
       style="fill:#42b0cb;fill-opacity:1;stroke:#000000;stroke-width:1;stroke-miterlimit:4;stroke-opacity:1;stroke-dasharray:none"
       sodipodi:type="arc" />
    <rect
       style="fill:none;stroke:#000000;stroke-width:2;stroke-miterlimit:4;stroke-opacity:1;stroke-dasharray:none"
       id="rect3960"
       width="120"
       height="120"
       x="80"
       y="392.36218" />
    <path
       sodipodi:type="arc"
       style="fill:#42b0cb;fill-opacity:1;stroke:#000000;stroke-width:1;stroke-miterlimit:4;stroke-opacity:1;stroke-dasharray:none"
       id="path3970"
       sodipodi:cx="235"
       sodipodi:cy="189.09448"
       sodipodi:rx="5"
       sodipodi:ry="5"
       d="m 240,189.09448 c 0,2.76143 -2.23858,5 -5,5 -2.76142,0 -5,-2.23857 -5,-5 0,-2.76142 2.23858,-5 5,-5 2.76142,0 5,2.23858 5,5 z"
       transform="translate(-50,283.2677)" />
    <path
       sodipodi:type="arc"
       style="fill:#42b0cb;fill-opacity:1;stroke:#000000;stroke-width:1;stroke-miterlimit:4;stroke-opacity:1;stroke-dasharray:none"
       id="path3974"
       sodipodi:cx="235"
       sodipodi:cy="189.09448"
       sodipodi:rx="5"
       sodipodi:ry="5"
       d="m 240,189.09448 c 0,2.76143 -2.23858,5 -5,5 -2.76142,0 -5,-2.23857 -5,-5 0,-2.76142 2.23858,-5 5,-5 2.76142,0 5,2.23858 5,5 z"
       transform="translate(-104,273.2677)" />
    <path
       sodipodi:type="arc"
       style="fill:#42b0cb;fill-opacity:1;stroke:#000000;stroke-width:1;stroke-miterlimit:4;stroke-opacity:1;stroke-dasharray:none"
       id="path3986"
       sodipodi:cx="235"
       sodipodi:cy="189.09448"
       sodipodi:rx="5"
       sodipodi:ry="5"
       d="m 240,189.09448 c 0,2.76143 -2.23858,5 -5,5 -2.76142,0 -5,-2.23857 -5,-5 0,-2.76142 2.23858,-5 5,-5 2.76142,0 5,2.23858 5,5 z"
       transform="translate(-135,308.2677)" />
    <path
       transform="translate(-141,244.2677)"
       d="m 240,189.09448 c 0,2.76143 -2.23858,5 -5,5 -2.76142,0 -5,-2.23857 -5,-5 0,-2.76142 2.23858,-5 5,-5 2.76142,0 5,2.23858 5,5 z"
       sodipodi:ry="5"
       sodipodi:rx="5"
       sodipodi:cy="189.09448"
       sodipodi:cx="235"
       id="path3988"
       style="fill:#42b0cb;fill-opacity:1;stroke:#000000;stroke-width:1;stroke-miterlimit:4;stroke-opacity:1;stroke-dasharray:none"
       sodipodi:type="arc" />
    <path
       sodipodi:type="arc"
       style="fill:#42b0cb;fill-opacity:1;stroke:#000000;stroke-width:1;stroke-miterlimit:4;stroke-opacity:1;stroke-dasharray:none"
       id="path3990"
       sodipodi:cx="235"
       sodipodi:cy="189.09448"
       sodipodi:rx="5"
       sodipodi:ry="5"
       d="m 240,189.09448 c 0,2.76143 -2.23858,5 -5,5 -2.76142,0 -5,-2.23857 -5,-5 0,-2.76142 2.23858,-5 5,-5 2.76142,0 5,2.23858 5,5 z"
       transform="translate(-95,218.2677)" />
    <path
       transform="translate(-95,218.2677)"
       d="m 240,189.09448 c 0,2.76143 -2.23858,5 -5,5 -2.76142,0 -5,-2.23857 -5,-5 0,-2.76142 2.23858,-5 5,-5 2.76142,0 5,2.23858 5,5 z"
       sodipodi:ry="5"
       sodipodi:rx="5"
       sodipodi:cy="189.09448"
       sodipodi:cx="235"
       id="path3992"
       style="fill:#42b0cb;fill-opacity:1;stroke:#000000;stroke-width:1;stroke-miterlimit:4;stroke-opacity:1;stroke-dasharray:none"
       sodipodi:type="arc" />
    <path
       sodipodi:type="arc"
       style="fill:#42b0cb;fill-opacity:1;stroke:#000000;stroke-width:1;stroke-miterlimit:4;stroke-opacity:1;stroke-dasharray:none"
       id="path3994"
       sodipodi:cx="235"
       sodipodi:cy="189.09448"
       sodipodi:rx="5"
       sodipodi:ry="5"
       d="m 240,189.09448 c 0,2.76143 -2.23858,5 -5,5 -2.76142,0 -5,-2.23857 -5,-5 0,-2.76142 2.23858,-5 5,-5 2.76142,0 5,2.23858 5,5 z"
       transform="translate(-60,243.2677)" />
    <rect
       style="fill:none;stroke:#000000;stroke-width:2;stroke-miterlimit:4;stroke-opacity:1;stroke-dasharray:none"
       id="rect5560"
       width="119.99974"
       height="119.99951"
       x="200"
       y="392.36267" />
    <path
       transform="translate(-20,213.26819)"
       d="m 240,189.09448 c 0,2.76143 -2.23858,5 -5,5 -2.76142,0 -5,-2.23857 -5,-5 0,-2.76142 2.23858,-5 5,-5 2.76142,0 5,2.23858 5,5 z"
       sodipodi:ry="5"
       sodipodi:rx="5"
       sodipodi:cy="189.09448"
       sodipodi:cx="235"
       id="path5580"
       style="fill:#fe9708;fill-opacity:1;stroke:#000000;stroke-width:1;stroke-miterlimit:4;stroke-opacity:1;stroke-dasharray:none"
       sodipodi:type="arc" />
    <path
       transform="translate(25,248.2677)"
       d="m 240,189.09448 c 0,2.76143 -2.23858,5 -5,5 -2.76142,0 -5,-2.23857 -5,-5 0,-2.76142 2.23858,-5 5,-5 2.76142,0 5,2.23858 5,5 z"
       sodipodi:ry="5"
       sodipodi:rx="5"
       sodipodi:cy="189.09448"
       sodipodi:cx="235"
       id="path5596"
       style="fill:#fe9708;fill-opacity:1;stroke:#000000;stroke-width:1;stroke-miterlimit:4;stroke-opacity:1;stroke-dasharray:none"
       sodipodi:type="arc" />
    <path
       sodipodi:type="arc"
       style="fill:#fe9708;fill-opacity:1;stroke:#000000;stroke-width:1;stroke-miterlimit:4;stroke-opacity:1;stroke-dasharray:none"
       id="path5610"
       sodipodi:cx="235"
       sodipodi:cy="189.09448"
       sodipodi:rx="5"
       sodipodi:ry="5"
       d="m 240,189.09448 c 0,2.76143 -2.23858,5 -5,5 -2.76142,0 -5,-2.23857 -5,-5 0,-2.76142 2.23858,-5 5,-5 2.76142,0 5,2.23858 5,5 z"
       transform="translate(55,228.26819)" />
    <path
       transform="translate(15,308.26819)"
       d="m 240,189.09448 c 0,2.76143 -2.23858,5 -5,5 -2.76142,0 -5,-2.23857 -5,-5 0,-2.76142 2.23858,-5 5,-5 2.76142,0 5,2.23858 5,5 z"
       sodipodi:ry="5"
       sodipodi:rx="5"
       sodipodi:cy="189.09448"
       sodipodi:cx="235"
       id="path5612"
       style="fill:#fe9708;fill-opacity:1;stroke:#000000;stroke-width:1;stroke-miterlimit:4;stroke-opacity:1;stroke-dasharray:none"
       sodipodi:type="arc" />
    <path
       sodipodi:type="arc"
       style="fill:#fe9708;fill-opacity:1;stroke:#000000;stroke-width:1;stroke-miterlimit:4;stroke-opacity:1;stroke-dasharray:none"
       id="path5614"
       sodipodi:cx="235"
       sodipodi:cy="189.09448"
       sodipodi:rx="5"
       sodipodi:ry="5"
       d="m 240,189.09448 c 0,2.76143 -2.23858,5 -5,5 -2.76142,0 -5,-2.23857 -5,-5 0,-2.76142 2.23858,-5 5,-5 2.76142,0 5,2.23858 5,5 z"
       transform="translate(-9,274.26819)" />
    <path
       sodipodi:type="arc"
       style="fill:#fe9708;fill-opacity:1;stroke:#000000;stroke-width:1;stroke-miterlimit:4;stroke-opacity:1;stroke-dasharray:none"
       id="path5622"
       sodipodi:cx="235"
       sodipodi:cy="189.09448"
       sodipodi:rx="5"
       sodipodi:ry="5"
       d="m 240,189.09448 c 0,2.76143 -2.23858,5 -5,5 -2.76142,0 -5,-2.23857 -5,-5 0,-2.76142 2.23858,-5 5,-5 2.76142,0 5,2.23858 5,5 z"
       transform="translate(72,259.26819)" />
    <path
       sodipodi:type="arc"
       style="fill:#fe9708;fill-opacity:1;stroke:#000000;stroke-width:1;stroke-miterlimit:4;stroke-opacity:1;stroke-dasharray:none"
       id="path5624"
       sodipodi:cx="235"
       sodipodi:cy="189.09448"
       sodipodi:rx="5"
       sodipodi:ry="5"
       d="m 240,189.09448 c 0,2.76143 -2.23858,5 -5,5 -2.76142,0 -5,-2.23857 -5,-5 0,-2.76142 2.23858,-5 5,-5 2.76142,0 5,2.23858 5,5 z"
       transform="translate(60,303.26819)" />
    <path
       sodipodi:type="arc"
       style="stroke-opacity:1;fill-opacity:1;stroke:#000000;stroke-miterlimit:4;stroke-dasharray:none;stroke-width:1;fill:#42b0cb"
       id="path5890"
       sodipodi:cx="235"
       sodipodi:cy="189.09448"
       sodipodi:rx="5"
       sodipodi:ry="5"
       d="m 240,189.09448 c 0,2.76143 -2.23858,5 -5,5 -2.76142,0 -5,-2.23857 -5,-5 0,-2.76142 2.23858,-5 5,-5 2.76142,0 5,2.23858 5,5 z"
       transform="translate(235,262.76819)" />
    <path
       transform="translate(260,262.76819)"
       d="m 240,189.09448 c 0,2.76143 -2.23858,5 -5,5 -2.76142,0 -5,-2.23857 -5,-5 0,-2.76142 2.23858,-5 5,-5 2.76142,0 5,2.23858 5,5 z"
       sodipodi:ry="5"
       sodipodi:rx="5"
       sodipodi:cy="189.09448"
       sodipodi:cx="235"
       id="path5892"
       style="stroke-opacity:1;fill-opacity:1;stroke:#000000;stroke-miterlimit:4;stroke-dasharray:none;stroke-width:1;fill:#42b0cb"
       sodipodi:type="arc" />
    <path
       transform="translate(206,262.76819)"
       d="m 240,189.09448 c 0,2.76143 -2.23858,5 -5,5 -2.76142,0 -5,-2.23857 -5,-5 0,-2.76142 2.23858,-5 5,-5 2.76142,0 5,2.23858 5,5 z"
       sodipodi:ry="5"
       sodipodi:rx="5"
       sodipodi:cy="189.09448"
       sodipodi:cx="235"
       id="path5894"
       style="fill:#42b0cb;fill-opacity:1;stroke:#000000;stroke-width:1;stroke-miterlimit:4;stroke-opacity:1;stroke-dasharray:none"
       sodipodi:type="arc" />
    <path
       transform="translate(175,262.76819)"
       d="m 240,189.09448 c 0,2.76143 -2.23858,5 -5,5 -2.76142,0 -5,-2.23857 -5,-5 0,-2.76142 2.23858,-5 5,-5 2.76142,0 5,2.23858 5,5 z"
       sodipodi:ry="5"
       sodipodi:rx="5"
       sodipodi:cy="189.09448"
       sodipodi:cx="235"
       id="path5896"
       style="fill:#42b0cb;fill-opacity:1;stroke:#000000;stroke-width:1;stroke-miterlimit:4;stroke-opacity:1;stroke-dasharray:none"
       sodipodi:type="arc" />
    <path
       sodipodi:type="arc"
       style="fill:#42b0cb;fill-opacity:1;stroke:#000000;stroke-width:1;stroke-miterlimit:4;stroke-opacity:1;stroke-dasharray:none"
       id="path5898"
       sodipodi:cx="235"
       sodipodi:cy="189.09448"
       sodipodi:rx="5"
       sodipodi:ry="5"
       d="m 240,189.09448 c 0,2.76143 -2.23858,5 -5,5 -2.76142,0 -5,-2.23857 -5,-5 0,-2.76142 2.23858,-5 5,-5 2.76142,0 5,2.23858 5,5 z"
       transform="translate(169,262.76819)" />
    <path
       sodipodi:type="arc"
       style="stroke-opacity:1;fill-opacity:1;stroke:#ff0000;stroke-miterlimit:4;stroke-dasharray:none;stroke-width:3;fill:#42b0cb"
       id="path5902"
       sodipodi:cx="235"
       sodipodi:cy="189.09448"
       sodipodi:rx="5"
       sodipodi:ry="5"
       d="m 240,189.09448 c 0,2.76143 -2.23858,5 -5,5 -2.76142,0 -5,-2.23857 -5,-5 0,-2.76142 2.23858,-5 5,-5 2.76142,0 5,2.23858 5,5 z"
       transform="translate(215,262.76819)" />
    <path
       transform="translate(250,262.76819)"
       d="m 240,189.09448 c 0,2.76143 -2.23858,5 -5,5 -2.76142,0 -5,-2.23857 -5,-5 0,-2.76142 2.23858,-5 5,-5 2.76142,0 5,2.23858 5,5 z"
       sodipodi:ry="5"
       sodipodi:rx="5"
       sodipodi:cy="189.09448"
       sodipodi:cx="235"
       id="path5904"
       style="stroke-opacity:1;fill-opacity:1;stroke:#000000;stroke-miterlimit:4;stroke-dasharray:none;stroke-width:1;fill:#42b0cb"
       sodipodi:type="arc" />
    <path
       sodipodi:type="arc"
       style="stroke-opacity:1;fill-opacity:1;stroke:#ff0000;stroke-miterlimit:4;stroke-dasharray:none;stroke-width:3;fill:#fe9708"
       id="path5906"
       sodipodi:cx="235"
       sodipodi:cy="189.09448"
       sodipodi:rx="5"
       sodipodi:ry="5"
       d="m 240,189.09448 c 0,2.76143 -2.23858,5 -5,5 -2.76142,0 -5,-2.23857 -5,-5 0,-2.76142 2.23858,-5 5,-5 2.76142,0 5,2.23858 5,5 z"
       transform="translate(290,262.76819)" />
    <path
       sodipodi:type="arc"
       style="stroke-opacity:1;fill-opacity:1;stroke:#ff0000;stroke-miterlimit:4;stroke-dasharray:none;stroke-width:3;fill:#fe9708"
       id="path5908"
       sodipodi:cx="235"
       sodipodi:cy="189.09448"
       sodipodi:rx="5"
       sodipodi:ry="5"
       d="m 240,189.09448 c 0,2.76143 -2.23858,5 -5,5 -2.76142,0 -5,-2.23857 -5,-5 0,-2.76142 2.23858,-5 5,-5 2.76142,0 5,2.23858 5,5 z"
       transform="translate(335,262.76819)" />
    <path
       transform="translate(365,262.76819)"
       d="m 240,189.09448 c 0,2.76143 -2.23858,5 -5,5 -2.76142,0 -5,-2.23857 -5,-5 0,-2.76142 2.23858,-5 5,-5 2.76142,0 5,2.23858 5,5 z"
       sodipodi:ry="5"
       sodipodi:rx="5"
       sodipodi:cy="189.09448"
       sodipodi:cx="235"
       id="path5910"
       style="fill:#fe9708;fill-opacity:1;stroke:#000000;stroke-width:1;stroke-miterlimit:4;stroke-opacity:1;stroke-dasharray:none"
       sodipodi:type="arc" />
    <path
       sodipodi:type="arc"
       style="stroke-opacity:1;fill-opacity:1;stroke:#ff0000;stroke-miterlimit:4;stroke-dasharray:none;stroke-width:3;fill:#fe9708"
       id="path5912"
       sodipodi:cx="235"
       sodipodi:cy="189.09448"
       sodipodi:rx="5"
       sodipodi:ry="5"
       d="m 240,189.09448 c 0,2.76143 -2.23858,5 -5,5 -2.76142,0 -5,-2.23857 -5,-5 0,-2.76142 2.23858,-5 5,-5 2.76142,0 5,2.23858 5,5 z"
       transform="translate(325,262.76819)" />
    <path
       transform="translate(301,262.76819)"
       d="m 240,189.09448 c 0,2.76143 -2.23858,5 -5,5 -2.76142,0 -5,-2.23857 -5,-5 0,-2.76142 2.23858,-5 5,-5 2.76142,0 5,2.23858 5,5 z"
       sodipodi:ry="5"
       sodipodi:rx="5"
       sodipodi:cy="189.09448"
       sodipodi:cx="235"
       id="path5914"
       style="stroke-opacity:1;fill-opacity:1;stroke:#ff0000;stroke-miterlimit:4;stroke-dasharray:none;stroke-width:3;fill:#fe9708"
       sodipodi:type="arc" />
    <path
       transform="translate(382,262.76819)"
       d="m 240,189.09448 c 0,2.76143 -2.23858,5 -5,5 -2.76142,0 -5,-2.23857 -5,-5 0,-2.76142 2.23858,-5 5,-5 2.76142,0 5,2.23858 5,5 z"
       sodipodi:ry="5"
       sodipodi:rx="5"
       sodipodi:cy="189.09448"
       sodipodi:cx="235"
       id="path5916"
       style="fill:#fe9708;fill-opacity:1;stroke:#000000;stroke-width:1;stroke-miterlimit:4;stroke-opacity:1;stroke-dasharray:none"
       sodipodi:type="arc" />
    <path
       transform="translate(370,262.76819)"
       d="m 240,189.09448 c 0,2.76143 -2.23858,5 -5,5 -2.76142,0 -5,-2.23857 -5,-5 0,-2.76142 2.23858,-5 5,-5 2.76142,0 5,2.23858 5,5 z"
       sodipodi:ry="5"
       sodipodi:rx="5"
       sodipodi:cy="189.09448"
       sodipodi:cx="235"
       id="path5918"
       style="fill:#fe9708;fill-opacity:1;stroke:#000000;stroke-width:1;stroke-miterlimit:4;stroke-opacity:1;stroke-dasharray:none"
       sodipodi:type="arc" />
    <path
       inkscape:connector-curvature="0"
       id="path6110"
       d="m 450,457.36218 0,20 75,0 0,-20"
       style="stroke-linejoin:miter;marker-end:url(#Arrow2Mend4);stroke-opacity:1;marker-start:url(#Arrow2Mstarti);stroke:#ff0000;stroke-linecap:butt;stroke-width:1px;fill:none" />
    <path
       inkscape:connector-curvature="0"
       id="path7504"
       d="m 525,477.36218 10,0 0,-20"
       style="stroke-linejoin:miter;marker-end:url(#Arrow2Mendr);stroke-opacity:1;stroke:#ff0000;stroke-linecap:butt;stroke-width:1px;fill:none" />
    <path
       sodipodi:nodetypes="ccc"
       style="stroke-linejoin:miter;marker-end:url(#Arrow2MendE);stroke-opacity:1;stroke:#ff0000;stroke-linecap:butt;stroke-width:1px;fill:none"
       d="m 535,477.36218 25,0 0,-20"
       id="path7696"
       inkscape:connector-curvature="0" />
    <path
       inkscape:connector-curvature="0"
       id="path7698"
       d="m 560,477.36218 10,0 0,-20"
       style="stroke-linejoin:miter;marker-end:url(#Arrow2MendQ);stroke-opacity:1;stroke:#ff0000;stroke-linecap:butt;stroke-width:1px;fill:none" />
    <text
       sodipodi:linespacing="125%"
       id="text8080"
       y="402.36218"
       x="60"
       style="font-size:12px;font-style:normal;font-variant:normal;font-weight:normal;font-stretch:normal;line-height:125%;letter-spacing:0px;word-spacing:0px;fill:#000000;fill-opacity:1;stroke:none;font-family:Bitstream Vera Sans;-inkscape-font-specification:Bitstream Vera Sans"
       xml:space="preserve"><tspan
         style="font-weight:bold;-inkscape-font-specification:Bitstream Vera Sans Bold"
         y="402.36218"
         x="60"
         id="tspan8082"
         sodipodi:role="line">A</tspan></text>
    <text
       xml:space="preserve"
       style="font-size:12px;font-style:normal;font-variant:normal;font-weight:normal;font-stretch:normal;line-height:125%;letter-spacing:0px;word-spacing:0px;fill:#000000;fill-opacity:1;stroke:none;font-family:Bitstream Vera Sans;-inkscape-font-specification:Bitstream Vera Sans"
       x="370"
       y="442.36218"
       id="text8084"
       sodipodi:linespacing="125%"><tspan
         sodipodi:role="line"
         id="tspan8086"
         x="370"
         y="442.36218"
         style="font-weight:bold;-inkscape-font-specification:Bitstream Vera Sans Bold">B</tspan></text>
    <path
       inkscape:connector-curvature="0"
       id="path8126"
       d="m 450,428.36218 120,0"
       style="stroke-linejoin:miter;marker-end:url(#Arrow2Mendg);stroke-opacity:1;stroke:#ff0000;stroke-linecap:butt;stroke-miterlimit:4;stroke-dasharray:none;stroke-width:1.25;fill:none" />
  </g>
</svg>
